0
SECTION
2
HEADER
9
$INSUNITS
70
4
0
ENDSEC
0
SECTION
2
TABLES
0
TABLE
2
LTYPE
0
LTYPE
72
65
70
0
2
CONTINUOUS
3
______
73
0
40
0
0
LTYPE
72
65
70
0
2
DASHED
3
_ _ _ 
73
2
40
7.5
49
5
49
-2.5
0
LTYPE
72
65
70
0
2
DOTTED
3
. . . 
73
2
40
1.5
49
0.5
49
-1
0
ENDTAB
0
TABLE
2
LAYER
0
ENDTAB
0
ENDSEC
0
SECTION
2
ENTITIES
0
LINE
8
0
6
CONTINUOUS
10
160.75
20
-158.75
11
178.25
21
-158.75
0
LINE
8
0
6
CONTINUOUS
10
178.25
20
-158.75
11
178.25
21
-141.25
0
LINE
8
0
6
CONTINUOUS
10
178.25
20
-141.25
11
160.75
21
-141.25
0
LINE
8
0
6
CONTINUOUS
10
160.75
20
-141.25
11
160.75
21
-158.75
0
LINE
8
0
6
CONTINUOUS
10
154.4166667
20
-139.75
11
171.9166667
21
-139.75
0
LINE
8
0
6
CONTINUOUS
10
171.9166667
20
-139.75
11
171.9166667
21
-122.25
0
LINE
8
0
6
CONTINUOUS
10
171.9166667
20
-122.25
11
154.4166667
21
-122.25
0
LINE
8
0
6
CONTINUOUS
10
154.4166667
20
-122.25
11
154.4166667
21
-139.75
0
LINE
8
0
6
CONTINUOUS
10
148.0833334
20
-120.75
11
165.5833334
21
-120.75
0
LINE
8
0
6
CONTINUOUS
10
165.5833334
20
-120.75
11
165.5833334
21
-103.25
0
LINE
8
0
6
CONTINUOUS
10
165.5833334
20
-103.25
11
148.0833334
21
-103.25
0
LINE
8
0
6
CONTINUOUS
10
148.0833334
20
-103.25
11
148.0833334
21
-120.75
0
LINE
8
0
6
CONTINUOUS
10
141.7500001
20
-101.75
11
159.2500001
21
-101.75
0
LINE
8
0
6
CONTINUOUS
10
159.2500001
20
-101.75
11
159.2500001
21
-84.25
0
LINE
8
0
6
CONTINUOUS
10
159.2500001
20
-84.25
11
141.7500001
21
-84.25
0
LINE
8
0
6
CONTINUOUS
10
141.7500001
20
-84.25
11
141.7500001
21
-101.75
0
LINE
8
0
6
CONTINUOUS
10
179.75
20
-158.75
11
197.25
21
-158.75
0
LINE
8
0
6
CONTINUOUS
10
197.25
20
-158.75
11
197.25
21
-141.25
0
LINE
8
0
6
CONTINUOUS
10
197.25
20
-141.25
11
179.75
21
-141.25
0
LINE
8
0
6
CONTINUOUS
10
179.75
20
-141.25
11
179.75
21
-158.75
0
LINE
8
0
6
CONTINUOUS
10
173.4166667
20
-139.75
11
190.9166667
21
-139.75
0
LINE
8
0
6
CONTINUOUS
10
190.9166667
20
-139.75
11
190.9166667
21
-122.25
0
LINE
8
0
6
CONTINUOUS
10
190.9166667
20
-122.25
11
173.4166667
21
-122.25
0
LINE
8
0
6
CONTINUOUS
10
173.4166667
20
-122.25
11
173.4166667
21
-139.75
0
LINE
8
0
6
CONTINUOUS
10
167.0833334
20
-120.75
11
184.5833334
21
-120.75
0
LINE
8
0
6
CONTINUOUS
10
184.5833334
20
-120.75
11
184.5833334
21
-103.25
0
LINE
8
0
6
CONTINUOUS
10
184.5833334
20
-103.25
11
167.0833334
21
-103.25
0
LINE
8
0
6
CONTINUOUS
10
167.0833334
20
-103.25
11
167.0833334
21
-120.75
0
LINE
8
0
6
CONTINUOUS
10
160.7500001
20
-101.75
11
178.2500001
21
-101.75
0
LINE
8
0
6
CONTINUOUS
10
178.2500001
20
-101.75
11
178.2500001
21
-84.25
0
LINE
8
0
6
CONTINUOUS
10
178.2500001
20
-84.25
11
160.7500001
21
-84.25
0
LINE
8
0
6
CONTINUOUS
10
160.7500001
20
-84.25
11
160.7500001
21
-101.75
0
LINE
8
0
6
CONTINUOUS
10
198.75
20
-158.75
11
216.25
21
-158.75
0
LINE
8
0
6
CONTINUOUS
10
216.25
20
-158.75
11
216.25
21
-141.25
0
LINE
8
0
6
CONTINUOUS
10
216.25
20
-141.25
11
198.75
21
-141.25
0
LINE
8
0
6
CONTINUOUS
10
198.75
20
-141.25
11
198.75
21
-158.75
0
LINE
8
0
6
CONTINUOUS
10
192.4166667
20
-139.75
11
209.9166667
21
-139.75
0
LINE
8
0
6
CONTINUOUS
10
209.9166667
20
-139.75
11
209.9166667
21
-122.25
0
LINE
8
0
6
CONTINUOUS
10
209.9166667
20
-122.25
11
192.4166667
21
-122.25
0
LINE
8
0
6
CONTINUOUS
10
192.4166667
20
-122.25
11
192.4166667
21
-139.75
0
LINE
8
0
6
CONTINUOUS
10
186.0833334
20
-120.75
11
203.5833334
21
-120.75
0
LINE
8
0
6
CONTINUOUS
10
203.5833334
20
-120.75
11
203.5833334
21
-103.25
0
LINE
8
0
6
CONTINUOUS
10
203.5833334
20
-103.25
11
186.0833334
21
-103.25
0
LINE
8
0
6
CONTINUOUS
10
186.0833334
20
-103.25
11
186.0833334
21
-120.75
0
LINE
8
0
6
CONTINUOUS
10
179.7500001
20
-101.75
11
197.2500001
21
-101.75
0
LINE
8
0
6
CONTINUOUS
10
197.2500001
20
-101.75
11
197.2500001
21
-84.25
0
LINE
8
0
6
CONTINUOUS
10
197.2500001
20
-84.25
11
179.7500001
21
-84.25
0
LINE
8
0
6
CONTINUOUS
10
179.7500001
20
-84.25
11
179.7500001
21
-101.75
0
LINE
8
0
6
CONTINUOUS
10
217.75
20
-158.75
11
235.25
21
-158.75
0
LINE
8
0
6
CONTINUOUS
10
235.25
20
-158.75
11
235.25
21
-141.25
0
LINE
8
0
6
CONTINUOUS
10
235.25
20
-141.25
11
217.75
21
-141.25
0
LINE
8
0
6
CONTINUOUS
10
217.75
20
-141.25
11
217.75
21
-158.75
0
LINE
8
0
6
CONTINUOUS
10
211.4166667
20
-139.75
11
228.9166667
21
-139.75
0
LINE
8
0
6
CONTINUOUS
10
228.9166667
20
-139.75
11
228.9166667
21
-122.25
0
LINE
8
0
6
CONTINUOUS
10
228.9166667
20
-122.25
11
211.4166667
21
-122.25
0
LINE
8
0
6
CONTINUOUS
10
211.4166667
20
-122.25
11
211.4166667
21
-139.75
0
LINE
8
0
6
CONTINUOUS
10
205.0833334
20
-120.75
11
222.5833334
21
-120.75
0
LINE
8
0
6
CONTINUOUS
10
222.5833334
20
-120.75
11
222.5833334
21
-103.25
0
LINE
8
0
6
CONTINUOUS
10
222.5833334
20
-103.25
11
205.0833334
21
-103.25
0
LINE
8
0
6
CONTINUOUS
10
205.0833334
20
-103.25
11
205.0833334
21
-120.75
0
LINE
8
0
6
CONTINUOUS
10
198.7500001
20
-101.75
11
216.2500001
21
-101.75
0
LINE
8
0
6
CONTINUOUS
10
216.2500001
20
-101.75
11
216.2500001
21
-84.25
0
LINE
8
0
6
CONTINUOUS
10
216.2500001
20
-84.25
11
198.7500001
21
-84.25
0
LINE
8
0
6
CONTINUOUS
10
198.7500001
20
-84.25
11
198.7500001
21
-101.75
0
LINE
8
0
6
CONTINUOUS
10
236.75
20
-158.75
11
254.25
21
-158.75
0
LINE
8
0
6
CONTINUOUS
10
254.25
20
-158.75
11
254.25
21
-141.25
0
LINE
8
0
6
CONTINUOUS
10
254.25
20
-141.25
11
236.75
21
-141.25
0
LINE
8
0
6
CONTINUOUS
10
236.75
20
-141.25
11
236.75
21
-158.75
0
LINE
8
0
6
CONTINUOUS
10
230.4166667
20
-139.75
11
247.9166667
21
-139.75
0
LINE
8
0
6
CONTINUOUS
10
247.9166667
20
-139.75
11
247.9166667
21
-122.25
0
LINE
8
0
6
CONTINUOUS
10
247.9166667
20
-122.25
11
230.4166667
21
-122.25
0
LINE
8
0
6
CONTINUOUS
10
230.4166667
20
-122.25
11
230.4166667
21
-139.75
0
LINE
8
0
6
CONTINUOUS
10
224.0833334
20
-120.75
11
241.5833334
21
-120.75
0
LINE
8
0
6
CONTINUOUS
10
241.5833334
20
-120.75
11
241.5833334
21
-103.25
0
LINE
8
0
6
CONTINUOUS
10
241.5833334
20
-103.25
11
224.0833334
21
-103.25
0
LINE
8
0
6
CONTINUOUS
10
224.0833334
20
-103.25
11
224.0833334
21
-120.75
0
LINE
8
0
6
CONTINUOUS
10
217.7500001
20
-101.75
11
235.2500001
21
-101.75
0
LINE
8
0
6
CONTINUOUS
10
235.2500001
20
-101.75
11
235.2500001
21
-84.25
0
LINE
8
0
6
CONTINUOUS
10
235.2500001
20
-84.25
11
217.7500001
21
-84.25
0
LINE
8
0
6
CONTINUOUS
10
217.7500001
20
-84.25
11
217.7500001
21
-101.75
0
ENDSEC
0
EOF