%TF.GenerationSoftware,KiCad,Pcbnew,10.0.4*%
%TF.CreationDate,2026-07-05T16:32:57+02:00*%
%TF.ProjectId,KB-Michka-30HE,4b422d4d-6963-4686-9b61-2d333048452e,v1.0.0*%
%TF.SameCoordinates,Original*%
%TF.FileFunction,Paste,Bot*%
%TF.FilePolarity,Positive*%
%FSLAX46Y46*%
G04 Gerber Fmt 4.6, Leading zero omitted, Abs format (unit mm)*
G04 Created by KiCad (PCBNEW 10.0.4) date 2026-07-05 16:32:57*
%MOMM*%
%LPD*%
G01*
G04 APERTURE LIST*
G04 Aperture macros list*
%AMRoundRect*
0 Rectangle with rounded corners*
0 $1 Rounding radius*
0 $2 $3 $4 $5 $6 $7 $8 $9 X,Y pos of 4 corners*
0 Add a 4 corners polygon primitive as box body*
4,1,4,$2,$3,$4,$5,$6,$7,$8,$9,$2,$3,0*
0 Add four circle primitives for the rounded corners*
1,1,$1+$1,$2,$3*
1,1,$1+$1,$4,$5*
1,1,$1+$1,$6,$7*
1,1,$1+$1,$8,$9*
0 Add four rect primitives between the rounded corners*
20,1,$1+$1,$2,$3,$4,$5,0*
20,1,$1+$1,$4,$5,$6,$7,0*
20,1,$1+$1,$6,$7,$8,$9,0*
20,1,$1+$1,$8,$9,$2,$3,0*%
G04 Aperture macros list end*
%ADD10RoundRect,0.250000X0.475000X-0.337500X0.475000X0.337500X-0.475000X0.337500X-0.475000X-0.337500X0*%
%ADD11RoundRect,0.250000X0.350000X0.450000X-0.350000X0.450000X-0.350000X-0.450000X0.350000X-0.450000X0*%
%ADD12R,0.600000X1.070000*%
%ADD13RoundRect,0.250000X-0.475000X0.337500X-0.475000X-0.337500X0.475000X-0.337500X0.475000X0.337500X0*%
%ADD14RoundRect,0.250000X0.337500X0.475000X-0.337500X0.475000X-0.337500X-0.475000X0.337500X-0.475000X0*%
%ADD15R,1.778000X0.279400*%
%ADD16R,0.279400X1.778000*%
G04 APERTURE END LIST*
D10*
%TO.C,REF\u002A\u002A*%
X185375001Y-151037501D03*
D11*
X187500000Y-153000000D03*
D12*
X189450000Y-151240000D03*
D13*
X191500000Y-149000000D03*
D10*
X185375013Y-148962491D03*
D11*
X185500000Y-153000000D03*
D12*
X187550000Y-151240000D03*
D13*
X191500012Y-151075010D03*
D12*
X188500000Y-148760000D03*
%TD*%
D10*
%TO.C,REF\u002A\u002A*%
X242375001Y-94037501D03*
D11*
X244500000Y-96000000D03*
D12*
X246450000Y-94240000D03*
D13*
X248500000Y-92000000D03*
D10*
X242375013Y-91962491D03*
D11*
X242500000Y-96000000D03*
D12*
X244550000Y-94240000D03*
D13*
X248500012Y-94075010D03*
D12*
X245500000Y-91760000D03*
%TD*%
D10*
%TO.C,REF\u002A\u002A*%
X210708334Y-113037501D03*
D11*
X212833333Y-115000000D03*
D12*
X214783333Y-113240000D03*
D13*
X216833333Y-111000000D03*
D10*
X210708346Y-110962491D03*
D11*
X210833333Y-115000000D03*
D12*
X212883333Y-113240000D03*
D13*
X216833345Y-113075010D03*
D12*
X213833333Y-110760000D03*
%TD*%
D10*
%TO.C,REF\u002A\u002A*%
X134708334Y-132037501D03*
D11*
X136833333Y-134000000D03*
D12*
X138783333Y-132240000D03*
D13*
X140833333Y-130000000D03*
D10*
X134708346Y-129962491D03*
D11*
X134833333Y-134000000D03*
D12*
X136883333Y-132240000D03*
D13*
X140833345Y-132075010D03*
D12*
X137833333Y-129760000D03*
%TD*%
D10*
%TO.C,REF\u002A\u002A*%
X173875001Y-170037501D03*
D11*
X176000000Y-172000000D03*
D12*
X177950000Y-170240000D03*
D13*
X180000000Y-168000000D03*
D10*
X173875013Y-167962491D03*
D11*
X174000000Y-172000000D03*
D12*
X176050000Y-170240000D03*
D13*
X180000012Y-170075010D03*
D12*
X177000000Y-167760000D03*
%TD*%
D10*
%TO.C,REF\u002A\u002A*%
X236041668Y-132037501D03*
D11*
X238166667Y-134000000D03*
D12*
X240116667Y-132240000D03*
D13*
X242166667Y-130000000D03*
D10*
X236041680Y-129962491D03*
D11*
X236166667Y-134000000D03*
D12*
X238216667Y-132240000D03*
D13*
X242166679Y-132075010D03*
D12*
X239166667Y-129760000D03*
%TD*%
D10*
%TO.C,REF\u002A\u002A*%
X172708334Y-113037501D03*
D11*
X174833333Y-115000000D03*
D12*
X176783333Y-113240000D03*
D13*
X178833333Y-111000000D03*
D10*
X172708346Y-110962491D03*
D11*
X172833333Y-115000000D03*
D12*
X174883333Y-113240000D03*
D13*
X178833345Y-113075010D03*
D12*
X175833333Y-110760000D03*
%TD*%
D10*
%TO.C,REF\u002A\u002A*%
X191708334Y-113037501D03*
D11*
X193833333Y-115000000D03*
D12*
X195783333Y-113240000D03*
D13*
X197833333Y-111000000D03*
D10*
X191708346Y-110962491D03*
D11*
X191833333Y-115000000D03*
D12*
X193883333Y-113240000D03*
D13*
X197833345Y-113075010D03*
D12*
X194833333Y-110760000D03*
%TD*%
D10*
%TO.C,REF\u002A\u002A*%
X153708334Y-113037501D03*
D11*
X155833333Y-115000000D03*
D12*
X157783333Y-113240000D03*
D13*
X159833333Y-111000000D03*
D10*
X153708346Y-110962491D03*
D11*
X153833333Y-115000000D03*
D12*
X155883333Y-113240000D03*
D13*
X159833345Y-113075010D03*
D12*
X156833333Y-110760000D03*
%TD*%
D10*
%TO.C,REF\u002A\u002A*%
X166375001Y-94037501D03*
D11*
X168500000Y-96000000D03*
D12*
X170450000Y-94240000D03*
D13*
X172500000Y-92000000D03*
D10*
X166375013Y-91962491D03*
D11*
X166500000Y-96000000D03*
D12*
X168550000Y-94240000D03*
D13*
X172500012Y-94075010D03*
D12*
X169500000Y-91760000D03*
%TD*%
D10*
%TO.C,REF\u002A\u002A*%
X204375001Y-94037501D03*
D11*
X206500000Y-96000000D03*
D12*
X208450000Y-94240000D03*
D13*
X210500000Y-92000000D03*
D10*
X204375013Y-91962491D03*
D11*
X204500000Y-96000000D03*
D12*
X206550000Y-94240000D03*
D13*
X210500012Y-94075010D03*
D12*
X207500000Y-91760000D03*
%TD*%
D10*
%TO.C,REF\u002A\u002A*%
X249000000Y-126037500D03*
X249000000Y-123962500D03*
%TD*%
%TO.C,REF\u002A\u002A*%
X223375001Y-94037501D03*
D11*
X225500000Y-96000000D03*
D12*
X227450000Y-94240000D03*
D13*
X229500000Y-92000000D03*
D10*
X223375013Y-91962491D03*
D11*
X223500000Y-96000000D03*
D12*
X225550000Y-94240000D03*
D13*
X229500012Y-94075010D03*
D12*
X226500000Y-91760000D03*
%TD*%
D14*
%TO.C,100\u00B5F*%
X260500000Y-93500000D03*
X258425000Y-93500000D03*
%TD*%
D10*
%TO.C,REF\u002A\u002A*%
X198041668Y-132037501D03*
D11*
X200166667Y-134000000D03*
D12*
X202116667Y-132240000D03*
D13*
X204166667Y-130000000D03*
D10*
X198041680Y-129962491D03*
D11*
X198166667Y-134000000D03*
D12*
X200216667Y-132240000D03*
D13*
X204166679Y-132075010D03*
D12*
X201166667Y-129760000D03*
%TD*%
D10*
%TO.C,REF\u002A\u002A*%
X208875001Y-170037501D03*
D11*
X211000000Y-172000000D03*
D12*
X212950000Y-170240000D03*
D13*
X215000000Y-168000000D03*
D10*
X208875013Y-167962491D03*
D11*
X209000000Y-172000000D03*
D12*
X211050000Y-170240000D03*
D13*
X215000012Y-170075010D03*
D12*
X212000000Y-167760000D03*
%TD*%
D14*
%TO.C,100nF*%
X260500000Y-96500000D03*
X258425000Y-96500000D03*
%TD*%
D10*
%TO.C,REF\u002A\u002A*%
X185375001Y-94037501D03*
D11*
X187500000Y-96000000D03*
D12*
X189450000Y-94240000D03*
D13*
X191500000Y-92000000D03*
D10*
X185375013Y-91962491D03*
D11*
X185500000Y-96000000D03*
D12*
X187550000Y-94240000D03*
D13*
X191500012Y-94075010D03*
D12*
X188500000Y-91760000D03*
%TD*%
D14*
%TO.C,100\u00B5F*%
X260037500Y-107500000D03*
X257962500Y-107500000D03*
%TD*%
D10*
%TO.C,REF\u002A\u002A*%
X160041668Y-132037501D03*
D11*
X162166667Y-134000000D03*
D12*
X164116667Y-132240000D03*
D13*
X166166667Y-130000000D03*
D10*
X160041680Y-129962491D03*
D11*
X160166667Y-134000000D03*
D12*
X162216667Y-132240000D03*
D13*
X166166679Y-132075010D03*
D12*
X163166667Y-129760000D03*
%TD*%
D10*
%TO.C,REF\u002A\u002A*%
X137875001Y-151037501D03*
D11*
X140000000Y-153000000D03*
D12*
X141950000Y-151240000D03*
D13*
X144000000Y-149000000D03*
D10*
X137875013Y-148962491D03*
D11*
X138000000Y-153000000D03*
D12*
X140050000Y-151240000D03*
D13*
X144000012Y-151075010D03*
D12*
X141000000Y-148760000D03*
%TD*%
D10*
%TO.C,REF\u002A\u002A*%
X131541668Y-113037501D03*
D11*
X133666667Y-115000000D03*
D12*
X135616667Y-113240000D03*
D13*
X137666667Y-111000000D03*
D10*
X131541680Y-110962491D03*
D11*
X131666667Y-115000000D03*
D12*
X133716667Y-113240000D03*
D13*
X137666679Y-113075010D03*
D12*
X134666667Y-110760000D03*
%TD*%
D10*
%TO.C,REF\u002A\u002A*%
X147375001Y-94037501D03*
D11*
X149500000Y-96000000D03*
D12*
X151450000Y-94240000D03*
D13*
X153500000Y-92000000D03*
D10*
X147375013Y-91962491D03*
D11*
X147500000Y-96000000D03*
D12*
X149550000Y-94240000D03*
D13*
X153500012Y-94075010D03*
D12*
X150500000Y-91760000D03*
%TD*%
D10*
%TO.C,REF\u002A\u002A*%
X229708334Y-113037501D03*
D11*
X231833333Y-115000000D03*
D12*
X233783333Y-113240000D03*
D13*
X235833333Y-111000000D03*
D10*
X229708346Y-110962491D03*
D11*
X229833333Y-115000000D03*
D12*
X231883333Y-113240000D03*
D13*
X235833345Y-113075010D03*
D12*
X232833333Y-110760000D03*
%TD*%
D10*
%TO.C,REF\u002A\u002A*%
X204375001Y-151037501D03*
D11*
X206500000Y-153000000D03*
D12*
X208450000Y-151240000D03*
D13*
X210500000Y-149000000D03*
D10*
X204375013Y-148962491D03*
D11*
X204500000Y-153000000D03*
D12*
X206550000Y-151240000D03*
D13*
X210500012Y-151075010D03*
D12*
X207500000Y-148760000D03*
%TD*%
D10*
%TO.C,REF\u002A\u002A*%
X129875001Y-170037501D03*
D11*
X132000000Y-172000000D03*
D12*
X133950000Y-170240000D03*
D13*
X136000000Y-168000000D03*
D10*
X129875013Y-167962491D03*
D11*
X130000000Y-172000000D03*
D12*
X132050000Y-170240000D03*
D13*
X136000012Y-170075010D03*
D12*
X133000000Y-167760000D03*
%TD*%
D10*
%TO.C,FB*%
X257500000Y-101537500D03*
X257500000Y-99462500D03*
%TD*%
%TO.C,REF\u002A\u002A*%
X217041668Y-132037501D03*
D11*
X219166667Y-134000000D03*
D12*
X221116667Y-132240000D03*
D13*
X223166667Y-130000000D03*
D10*
X217041680Y-129962491D03*
D11*
X217166667Y-134000000D03*
D12*
X219216667Y-132240000D03*
D13*
X223166679Y-132075010D03*
D12*
X220166667Y-129760000D03*
%TD*%
D10*
%TO.C,REF\u002A\u002A*%
X179041668Y-132037501D03*
D11*
X181166667Y-134000000D03*
D12*
X183116667Y-132240000D03*
D13*
X185166667Y-130000000D03*
D10*
X179041680Y-129962491D03*
D11*
X179166667Y-134000000D03*
D12*
X181216667Y-132240000D03*
D13*
X185166679Y-132075010D03*
D12*
X182166667Y-129760000D03*
%TD*%
D10*
%TO.C,REF\u002A\u002A*%
X242375001Y-170037501D03*
D11*
X244500000Y-172000000D03*
D12*
X246450000Y-170240000D03*
D13*
X248500000Y-168000000D03*
D10*
X242375013Y-167962491D03*
D11*
X242500000Y-172000000D03*
D12*
X244550000Y-170240000D03*
D13*
X248500012Y-170075010D03*
D12*
X245500000Y-167760000D03*
%TD*%
D10*
%TO.C,REF\u002A\u002A*%
X151875001Y-170037501D03*
D11*
X154000000Y-172000000D03*
D12*
X155950000Y-170240000D03*
D13*
X158000000Y-168000000D03*
D10*
X151875013Y-167962491D03*
D11*
X152000000Y-172000000D03*
D12*
X154050000Y-170240000D03*
D13*
X158000012Y-170075010D03*
D12*
X155000000Y-167760000D03*
%TD*%
D10*
%TO.C,REF\u002A\u002A*%
X128375001Y-94037501D03*
D11*
X130500000Y-96000000D03*
D12*
X132450000Y-94240000D03*
D13*
X134500000Y-92000000D03*
D10*
X128375013Y-91962491D03*
D11*
X128500000Y-96000000D03*
D12*
X130550000Y-94240000D03*
D13*
X134500012Y-94075010D03*
D12*
X131500000Y-91760000D03*
%TD*%
D10*
%TO.C,REF\u002A\u002A*%
X223375001Y-151037501D03*
D11*
X225500000Y-153000000D03*
D12*
X227450000Y-151240000D03*
D13*
X229500000Y-149000000D03*
D10*
X223375013Y-148962491D03*
D11*
X223500000Y-153000000D03*
D12*
X225550000Y-151240000D03*
D13*
X229500012Y-151075010D03*
D12*
X226500000Y-148760000D03*
%TD*%
D14*
%TO.C,100nF*%
X260037500Y-110500000D03*
X257962500Y-110500000D03*
%TD*%
D10*
%TO.C,REF\u002A\u002A*%
X242375001Y-151037501D03*
D11*
X244500000Y-153000000D03*
D12*
X246450000Y-151240000D03*
D13*
X248500000Y-149000000D03*
D10*
X242375013Y-148962491D03*
D11*
X242500000Y-153000000D03*
D12*
X244550000Y-151240000D03*
D13*
X248500012Y-151075010D03*
D12*
X245500000Y-148760000D03*
%TD*%
D10*
%TO.C,REF\u002A\u002A*%
X166375001Y-151037501D03*
D11*
X168500000Y-153000000D03*
D12*
X170450000Y-151240000D03*
D13*
X172500000Y-149000000D03*
D10*
X166375013Y-148962491D03*
D11*
X166500000Y-153000000D03*
D12*
X168550000Y-151240000D03*
D13*
X172500012Y-151075010D03*
D12*
X169500000Y-148760000D03*
%TD*%
D15*
%TO.C,REF\u002A\u002A*%
X249501067Y-133750000D03*
X249501067Y-133250001D03*
X249501067Y-132749999D03*
X249501067Y-132249999D03*
X249501067Y-131750001D03*
X249501067Y-131250000D03*
X249501067Y-130750000D03*
X249501067Y-130249999D03*
X249501067Y-129750001D03*
X249501067Y-129250001D03*
X249501067Y-128749999D03*
X249501067Y-128250000D03*
D16*
X250916667Y-126834400D03*
X251416666Y-126834400D03*
X251916668Y-126834400D03*
X252416668Y-126834400D03*
X252916666Y-126834400D03*
X253416667Y-126834400D03*
X253916667Y-126834400D03*
X254416668Y-126834400D03*
X254916666Y-126834400D03*
X255416666Y-126834400D03*
X255916668Y-126834400D03*
X256416667Y-126834400D03*
D15*
X257832267Y-128250000D03*
X257832267Y-128749999D03*
X257832267Y-129250001D03*
X257832267Y-129750001D03*
X257832267Y-130249999D03*
X257832267Y-130750000D03*
X257832267Y-131250000D03*
X257832267Y-131750001D03*
X257832267Y-132249999D03*
X257832267Y-132749999D03*
X257832267Y-133250001D03*
X257832267Y-133750000D03*
D16*
X256416667Y-135165600D03*
X255916668Y-135165600D03*
X255416666Y-135165600D03*
X254916666Y-135165600D03*
X254416668Y-135165600D03*
X253916667Y-135165600D03*
X253416667Y-135165600D03*
X252916666Y-135165600D03*
X252416668Y-135165600D03*
X251916668Y-135165600D03*
X251416666Y-135165600D03*
X250916667Y-135165600D03*
%TD*%
M02*
