%TF.GenerationSoftware,KiCad,Pcbnew,10.0.4*%
%TF.CreationDate,2026-07-05T16:09:33+02:00*%
%TF.ProjectId,KB-Michka-30HE,4b422d4d-6963-4686-9b61-2d333048452e,v1.0.0*%
%TF.SameCoordinates,Original*%
%TF.FileFunction,Copper,L2,Bot*%
%TF.FilePolarity,Positive*%
%FSLAX46Y46*%
G04 Gerber Fmt 4.6, Leading zero omitted, Abs format (unit mm)*
G04 Created by KiCad (PCBNEW 10.0.4) date 2026-07-05 16:09:33*
%MOMM*%
%LPD*%
G01*
G04 APERTURE LIST*
G04 Aperture macros list*
%AMRoundRect*
0 Rectangle with rounded corners*
0 $1 Rounding radius*
0 $2 $3 $4 $5 $6 $7 $8 $9 X,Y pos of 4 corners*
0 Add a 4 corners polygon primitive as box body*
4,1,4,$2,$3,$4,$5,$6,$7,$8,$9,$2,$3,0*
0 Add four circle primitives for the rounded corners*
1,1,$1+$1,$2,$3*
1,1,$1+$1,$4,$5*
1,1,$1+$1,$6,$7*
1,1,$1+$1,$8,$9*
0 Add four rect primitives between the rounded corners*
20,1,$1+$1,$2,$3,$4,$5,0*
20,1,$1+$1,$4,$5,$6,$7,0*
20,1,$1+$1,$6,$7,$8,$9,0*
20,1,$1+$1,$8,$9,$2,$3,0*%
G04 Aperture macros list end*
%TA.AperFunction,ComponentPad*%
%ADD10C,0.700000*%
%TD*%
%TA.AperFunction,ComponentPad*%
%ADD11C,4.400000*%
%TD*%
%TA.AperFunction,ComponentPad*%
%ADD12C,1.524000*%
%TD*%
%TA.AperFunction,SMDPad,CuDef*%
%ADD13RoundRect,0.250000X0.475000X-0.337500X0.475000X0.337500X-0.475000X0.337500X-0.475000X-0.337500X0*%
%TD*%
%TA.AperFunction,SMDPad,CuDef*%
%ADD14RoundRect,0.250000X0.350000X0.450000X-0.350000X0.450000X-0.350000X-0.450000X0.350000X-0.450000X0*%
%TD*%
%TA.AperFunction,SMDPad,CuDef*%
%ADD15R,0.600000X1.070000*%
%TD*%
%TA.AperFunction,SMDPad,CuDef*%
%ADD16RoundRect,0.250000X-0.475000X0.337500X-0.475000X-0.337500X0.475000X-0.337500X0.475000X0.337500X0*%
%TD*%
%TA.AperFunction,SMDPad,CuDef*%
%ADD17RoundRect,0.250000X0.337500X0.475000X-0.337500X0.475000X-0.337500X-0.475000X0.337500X-0.475000X0*%
%TD*%
%TA.AperFunction,SMDPad,CuDef*%
%ADD18R,1.778000X0.279400*%
%TD*%
%TA.AperFunction,SMDPad,CuDef*%
%ADD19R,0.279400X1.778000*%
%TD*%
%TA.AperFunction,ViaPad*%
%ADD20C,0.800000*%
%TD*%
%TA.AperFunction,Conductor*%
%ADD21C,0.250000*%
%TD*%
G04 APERTURE END LIST*
D10*
%TO.P,_3,1*%
%TO.N,N/C*%
X233850000Y-161000000D03*
X234333274Y-159833274D03*
X234333274Y-162166726D03*
X235500000Y-159350000D03*
D11*
X235500000Y-161000000D03*
D10*
X235500000Y-162650000D03*
X236666726Y-159833274D03*
X236666726Y-162166726D03*
X237150000Y-161000000D03*
%TD*%
D12*
%TO.P,REF\u002A\u002A,0*%
%TO.N,MUX_A4*%
X262453333Y-119660000D03*
%TO.P,REF\u002A\u002A,1*%
%TO.N,MUX_A3*%
X259913333Y-119660000D03*
%TO.P,REF\u002A\u002A,2*%
%TO.N,MUX_A2*%
X257373333Y-119660000D03*
%TO.P,REF\u002A\u002A,3*%
%TO.N,MUX_A1*%
X254833333Y-119660000D03*
%TO.P,REF\u002A\u002A,4*%
%TO.N,MUX_A0*%
X252293333Y-119660000D03*
%TO.P,REF\u002A\u002A,5*%
%TO.N,N/C*%
X249753333Y-119660000D03*
%TO.P,REF\u002A\u002A,6*%
X247213333Y-119660000D03*
%TO.P,REF\u002A\u002A,7*%
X244673333Y-119660000D03*
%TO.P,REF\u002A\u002A,8*%
X242133333Y-119660000D03*
%TO.P,REF\u002A\u002A,9*%
X242133333Y-117120000D03*
%TO.P,REF\u002A\u002A,10*%
X242133333Y-114580000D03*
%TO.P,REF\u002A\u002A,11*%
X242133333Y-112040000D03*
%TO.P,REF\u002A\u002A,12*%
X242133333Y-109500000D03*
%TO.P,REF\u002A\u002A,13*%
X242133333Y-106960000D03*
%TO.P,REF\u002A\u002A,14*%
X242133333Y-104420000D03*
%TO.P,REF\u002A\u002A,15*%
X244673333Y-104420000D03*
%TO.P,REF\u002A\u002A,26*%
X247213333Y-104420000D03*
%TO.P,REF\u002A\u002A,27*%
%TO.N,AIN1*%
X249753333Y-104420000D03*
%TO.P,REF\u002A\u002A,28*%
%TO.N,N/C*%
X252293333Y-104420000D03*
%TO.P,REF\u002A\u002A,29*%
X254833333Y-104420000D03*
%TO.P,REF\u002A\u002A,30*%
%TO.N,VCC*%
X257373333Y-104420000D03*
%TO.P,REF\u002A\u002A,31*%
%TO.N,GND*%
X259913333Y-104420000D03*
%TO.P,REF\u002A\u002A,32*%
%TO.N,N/C*%
X262453333Y-104420000D03*
%TD*%
D10*
%TO.P,_1,1*%
%TO.N,N/C*%
X143850000Y-104000000D03*
X144333274Y-102833274D03*
X144333274Y-105166726D03*
X145500000Y-102350000D03*
D11*
X145500000Y-104000000D03*
D10*
X145500000Y-105650000D03*
X146666726Y-102833274D03*
X146666726Y-105166726D03*
X147150000Y-104000000D03*
%TD*%
%TO.P,_4,1*%
%TO.N,N/C*%
X153350000Y-150000000D03*
X153833274Y-148833274D03*
X153833274Y-151166726D03*
X155000000Y-148350000D03*
D11*
X155000000Y-150000000D03*
D10*
X155000000Y-151650000D03*
X156166726Y-148833274D03*
X156166726Y-151166726D03*
X156650000Y-150000000D03*
%TD*%
%TO.P,_5,1*%
%TO.N,N/C*%
X190183333Y-122000000D03*
X190666607Y-120833274D03*
X190666607Y-123166726D03*
X191833333Y-120350000D03*
D11*
X191833333Y-122000000D03*
D10*
X191833333Y-123650000D03*
X193000059Y-120833274D03*
X193000059Y-123166726D03*
X193483333Y-122000000D03*
%TD*%
%TO.P,_2,1*%
%TO.N,N/C*%
X234350000Y-102000000D03*
X234833274Y-100833274D03*
X234833274Y-103166726D03*
X236000000Y-100350000D03*
D11*
X236000000Y-102000000D03*
D10*
X236000000Y-103650000D03*
X237166726Y-100833274D03*
X237166726Y-103166726D03*
X237650000Y-102000000D03*
%TD*%
D13*
%TO.P,REF\u002A\u002A,1*%
%TO.N,col2_r4*%
X185375001Y-151037501D03*
D14*
%TO.N,Q_col2_r4*%
X187500000Y-153000000D03*
D15*
%TO.N,3V3A*%
X189450000Y-151240000D03*
D16*
%TO.N,GND*%
X191500000Y-149000000D03*
D13*
%TO.P,REF\u002A\u002A,2*%
X185375013Y-148962491D03*
D14*
%TO.N,col2_r4*%
X185500000Y-153000000D03*
D15*
%TO.N,Q_col2_r4*%
X187550000Y-151240000D03*
D16*
%TO.N,3V3A*%
X191500012Y-151075010D03*
D15*
%TO.P,REF\u002A\u002A,3*%
%TO.N,GND*%
X188500000Y-148760000D03*
%TD*%
D13*
%TO.P,REF\u002A\u002A,1*%
%TO.N,col6_r1*%
X242375001Y-94037501D03*
D14*
%TO.N,Q_col6_r1*%
X244500000Y-96000000D03*
D15*
%TO.N,3V3A*%
X246450000Y-94240000D03*
D16*
%TO.N,GND*%
X248500000Y-92000000D03*
D13*
%TO.P,REF\u002A\u002A,2*%
X242375013Y-91962491D03*
D14*
%TO.N,col6_r1*%
X242500000Y-96000000D03*
D15*
%TO.N,Q_col6_r1*%
X244550000Y-94240000D03*
D16*
%TO.N,3V3A*%
X248500012Y-94075010D03*
D15*
%TO.P,REF\u002A\u002A,3*%
%TO.N,GND*%
X245500000Y-91760000D03*
%TD*%
D13*
%TO.P,REF\u002A\u002A,1*%
%TO.N,col4_r2*%
X210708334Y-113037501D03*
D14*
%TO.N,Q_col4_r2*%
X212833333Y-115000000D03*
D15*
%TO.N,3V3A*%
X214783333Y-113240000D03*
D16*
%TO.N,GND*%
X216833333Y-111000000D03*
D13*
%TO.P,REF\u002A\u002A,2*%
X210708346Y-110962491D03*
D14*
%TO.N,col4_r2*%
X210833333Y-115000000D03*
D15*
%TO.N,Q_col4_r2*%
X212883333Y-113240000D03*
D16*
%TO.N,3V3A*%
X216833345Y-113075010D03*
D15*
%TO.P,REF\u002A\u002A,3*%
%TO.N,GND*%
X213833333Y-110760000D03*
%TD*%
D13*
%TO.P,REF\u002A\u002A,1*%
%TO.N,col0_r3*%
X134708334Y-132037501D03*
D14*
%TO.N,Q_col0_r3*%
X136833333Y-134000000D03*
D15*
%TO.N,3V3A*%
X138783333Y-132240000D03*
D16*
%TO.N,GND*%
X140833333Y-130000000D03*
D13*
%TO.P,REF\u002A\u002A,2*%
X134708346Y-129962491D03*
D14*
%TO.N,col0_r3*%
X134833333Y-134000000D03*
D15*
%TO.N,Q_col0_r3*%
X136883333Y-132240000D03*
D16*
%TO.N,3V3A*%
X140833345Y-132075010D03*
D15*
%TO.P,REF\u002A\u002A,3*%
%TO.N,GND*%
X137833333Y-129760000D03*
%TD*%
D13*
%TO.P,REF\u002A\u002A,1*%
%TO.N,col2_r5*%
X173875001Y-170037501D03*
D14*
%TO.N,Q_col2_r5*%
X176000000Y-172000000D03*
D15*
%TO.N,3V3A*%
X177950000Y-170240000D03*
D16*
%TO.N,GND*%
X180000000Y-168000000D03*
D13*
%TO.P,REF\u002A\u002A,2*%
X173875013Y-167962491D03*
D14*
%TO.N,col2_r5*%
X174000000Y-172000000D03*
D15*
%TO.N,Q_col2_r5*%
X176050000Y-170240000D03*
D16*
%TO.N,3V3A*%
X180000012Y-170075010D03*
D15*
%TO.P,REF\u002A\u002A,3*%
%TO.N,GND*%
X177000000Y-167760000D03*
%TD*%
D13*
%TO.P,REF\u002A\u002A,1*%
%TO.N,col5_r3*%
X236041668Y-132037501D03*
D14*
%TO.N,Q_col5_r3*%
X238166667Y-134000000D03*
D15*
%TO.N,3V3A*%
X240116667Y-132240000D03*
D16*
%TO.N,GND*%
X242166667Y-130000000D03*
D13*
%TO.P,REF\u002A\u002A,2*%
X236041680Y-129962491D03*
D14*
%TO.N,col5_r3*%
X236166667Y-134000000D03*
D15*
%TO.N,Q_col5_r3*%
X238216667Y-132240000D03*
D16*
%TO.N,3V3A*%
X242166679Y-132075010D03*
D15*
%TO.P,REF\u002A\u002A,3*%
%TO.N,GND*%
X239166667Y-129760000D03*
%TD*%
D13*
%TO.P,REF\u002A\u002A,1*%
%TO.N,col2_r2*%
X172708334Y-113037501D03*
D14*
%TO.N,Q_col2_r2*%
X174833333Y-115000000D03*
D15*
%TO.N,3V3A*%
X176783333Y-113240000D03*
D16*
%TO.N,GND*%
X178833333Y-111000000D03*
D13*
%TO.P,REF\u002A\u002A,2*%
X172708346Y-110962491D03*
D14*
%TO.N,col2_r2*%
X172833333Y-115000000D03*
D15*
%TO.N,Q_col2_r2*%
X174883333Y-113240000D03*
D16*
%TO.N,3V3A*%
X178833345Y-113075010D03*
D15*
%TO.P,REF\u002A\u002A,3*%
%TO.N,GND*%
X175833333Y-110760000D03*
%TD*%
D13*
%TO.P,REF\u002A\u002A,1*%
%TO.N,col3_r2*%
X191708334Y-113037501D03*
D14*
%TO.N,Q_col3_r2*%
X193833333Y-115000000D03*
D15*
%TO.N,3V3A*%
X195783333Y-113240000D03*
D16*
%TO.N,GND*%
X197833333Y-111000000D03*
D13*
%TO.P,REF\u002A\u002A,2*%
X191708346Y-110962491D03*
D14*
%TO.N,col3_r2*%
X191833333Y-115000000D03*
D15*
%TO.N,Q_col3_r2*%
X193883333Y-113240000D03*
D16*
%TO.N,3V3A*%
X197833345Y-113075010D03*
D15*
%TO.P,REF\u002A\u002A,3*%
%TO.N,GND*%
X194833333Y-110760000D03*
%TD*%
D13*
%TO.P,REF\u002A\u002A,1*%
%TO.N,col1_r2*%
X153708334Y-113037501D03*
D14*
%TO.N,Q_col1_r2*%
X155833333Y-115000000D03*
D15*
%TO.N,3V3A*%
X157783333Y-113240000D03*
D16*
%TO.N,GND*%
X159833333Y-111000000D03*
D13*
%TO.P,REF\u002A\u002A,2*%
X153708346Y-110962491D03*
D14*
%TO.N,col1_r2*%
X153833333Y-115000000D03*
D15*
%TO.N,Q_col1_r2*%
X155883333Y-113240000D03*
D16*
%TO.N,3V3A*%
X159833345Y-113075010D03*
D15*
%TO.P,REF\u002A\u002A,3*%
%TO.N,GND*%
X156833333Y-110760000D03*
%TD*%
D13*
%TO.P,REF\u002A\u002A,1*%
%TO.N,col2_r1*%
X166375001Y-94037501D03*
D14*
%TO.N,Q_col2_r1*%
X168500000Y-96000000D03*
D15*
%TO.N,3V3A*%
X170450000Y-94240000D03*
D16*
%TO.N,GND*%
X172500000Y-92000000D03*
D13*
%TO.P,REF\u002A\u002A,2*%
X166375013Y-91962491D03*
D14*
%TO.N,col2_r1*%
X166500000Y-96000000D03*
D15*
%TO.N,Q_col2_r1*%
X168550000Y-94240000D03*
D16*
%TO.N,3V3A*%
X172500012Y-94075010D03*
D15*
%TO.P,REF\u002A\u002A,3*%
%TO.N,GND*%
X169500000Y-91760000D03*
%TD*%
D13*
%TO.P,REF\u002A\u002A,1*%
%TO.N,col4_r1*%
X204375001Y-94037501D03*
D14*
%TO.N,Q_col4_r1*%
X206500000Y-96000000D03*
D15*
%TO.N,3V3A*%
X208450000Y-94240000D03*
D16*
%TO.N,GND*%
X210500000Y-92000000D03*
D13*
%TO.P,REF\u002A\u002A,2*%
X204375013Y-91962491D03*
D14*
%TO.N,col4_r1*%
X204500000Y-96000000D03*
D15*
%TO.N,Q_col4_r1*%
X206550000Y-94240000D03*
D16*
%TO.N,3V3A*%
X210500012Y-94075010D03*
D15*
%TO.P,REF\u002A\u002A,3*%
%TO.N,GND*%
X207500000Y-91760000D03*
%TD*%
D13*
%TO.P,REF\u002A\u002A,1*%
%TO.N,3V3A*%
X249000000Y-126037500D03*
%TO.P,REF\u002A\u002A,2*%
%TO.N,GND*%
X249000000Y-123962500D03*
%TD*%
%TO.P,REF\u002A\u002A,1*%
%TO.N,col5_r1*%
X223375001Y-94037501D03*
D14*
%TO.N,Q_col5_r1*%
X225500000Y-96000000D03*
D15*
%TO.N,3V3A*%
X227450000Y-94240000D03*
D16*
%TO.N,GND*%
X229500000Y-92000000D03*
D13*
%TO.P,REF\u002A\u002A,2*%
X223375013Y-91962491D03*
D14*
%TO.N,col5_r1*%
X223500000Y-96000000D03*
D15*
%TO.N,Q_col5_r1*%
X225550000Y-94240000D03*
D16*
%TO.N,3V3A*%
X229500012Y-94075010D03*
D15*
%TO.P,REF\u002A\u002A,3*%
%TO.N,GND*%
X226500000Y-91760000D03*
%TD*%
D17*
%TO.P,100\u00B5F,1*%
%TO.N,GND*%
X260500000Y-93500000D03*
%TO.P,100\u00B5F,2*%
%TO.N,3V3A*%
X258425000Y-93500000D03*
%TD*%
D13*
%TO.P,REF\u002A\u002A,1*%
%TO.N,col3_r3*%
X198041668Y-132037501D03*
D14*
%TO.N,Q_col3_r3*%
X200166667Y-134000000D03*
D15*
%TO.N,3V3A*%
X202116667Y-132240000D03*
D16*
%TO.N,GND*%
X204166667Y-130000000D03*
D13*
%TO.P,REF\u002A\u002A,2*%
X198041680Y-129962491D03*
D14*
%TO.N,col3_r3*%
X198166667Y-134000000D03*
D15*
%TO.N,Q_col3_r3*%
X200216667Y-132240000D03*
D16*
%TO.N,3V3A*%
X204166679Y-132075010D03*
D15*
%TO.P,REF\u002A\u002A,3*%
%TO.N,GND*%
X201166667Y-129760000D03*
%TD*%
D13*
%TO.P,REF\u002A\u002A,1*%
%TO.N,col3_r5*%
X208875001Y-170037501D03*
D14*
%TO.N,Q_col3_r5*%
X211000000Y-172000000D03*
D15*
%TO.N,3V3A*%
X212950000Y-170240000D03*
D16*
%TO.N,GND*%
X215000000Y-168000000D03*
D13*
%TO.P,REF\u002A\u002A,2*%
X208875013Y-167962491D03*
D14*
%TO.N,col3_r5*%
X209000000Y-172000000D03*
D15*
%TO.N,Q_col3_r5*%
X211050000Y-170240000D03*
D16*
%TO.N,3V3A*%
X215000012Y-170075010D03*
D15*
%TO.P,REF\u002A\u002A,3*%
%TO.N,GND*%
X212000000Y-167760000D03*
%TD*%
D17*
%TO.P,100nF,1*%
%TO.N,GND*%
X260500000Y-96500000D03*
%TO.P,100nF,2*%
%TO.N,3V3A*%
X258425000Y-96500000D03*
%TD*%
D13*
%TO.P,REF\u002A\u002A,1*%
%TO.N,col3_r1*%
X185375001Y-94037501D03*
D14*
%TO.N,Q_col3_r1*%
X187500000Y-96000000D03*
D15*
%TO.N,3V3A*%
X189450000Y-94240000D03*
D16*
%TO.N,GND*%
X191500000Y-92000000D03*
D13*
%TO.P,REF\u002A\u002A,2*%
X185375013Y-91962491D03*
D14*
%TO.N,col3_r1*%
X185500000Y-96000000D03*
D15*
%TO.N,Q_col3_r1*%
X187550000Y-94240000D03*
D16*
%TO.N,3V3A*%
X191500012Y-94075010D03*
D15*
%TO.P,REF\u002A\u002A,3*%
%TO.N,GND*%
X188500000Y-91760000D03*
%TD*%
D17*
%TO.P,100\u00B5F,1*%
%TO.N,GND*%
X260037500Y-107500000D03*
%TO.P,100\u00B5F,2*%
%TO.N,VCC*%
X257962500Y-107500000D03*
%TD*%
D13*
%TO.P,REF\u002A\u002A,1*%
%TO.N,col1_r3*%
X160041668Y-132037501D03*
D14*
%TO.N,Q_col1_r3*%
X162166667Y-134000000D03*
D15*
%TO.N,3V3A*%
X164116667Y-132240000D03*
D16*
%TO.N,GND*%
X166166667Y-130000000D03*
D13*
%TO.P,REF\u002A\u002A,2*%
X160041680Y-129962491D03*
D14*
%TO.N,col1_r3*%
X160166667Y-134000000D03*
D15*
%TO.N,Q_col1_r3*%
X162216667Y-132240000D03*
D16*
%TO.N,3V3A*%
X166166679Y-132075010D03*
D15*
%TO.P,REF\u002A\u002A,3*%
%TO.N,GND*%
X163166667Y-129760000D03*
%TD*%
D13*
%TO.P,REF\u002A\u002A,1*%
%TO.N,col0_r4*%
X137875001Y-151037501D03*
D14*
%TO.N,Q_col0_r4*%
X140000000Y-153000000D03*
D15*
%TO.N,3V3A*%
X141950000Y-151240000D03*
D16*
%TO.N,GND*%
X144000000Y-149000000D03*
D13*
%TO.P,REF\u002A\u002A,2*%
X137875013Y-148962491D03*
D14*
%TO.N,col0_r4*%
X138000000Y-153000000D03*
D15*
%TO.N,Q_col0_r4*%
X140050000Y-151240000D03*
D16*
%TO.N,3V3A*%
X144000012Y-151075010D03*
D15*
%TO.P,REF\u002A\u002A,3*%
%TO.N,GND*%
X141000000Y-148760000D03*
%TD*%
D13*
%TO.P,REF\u002A\u002A,1*%
%TO.N,col0_r2*%
X131541668Y-113037501D03*
D14*
%TO.N,Q_col0_r2*%
X133666667Y-115000000D03*
D15*
%TO.N,3V3A*%
X135616667Y-113240000D03*
D16*
%TO.N,GND*%
X137666667Y-111000000D03*
D13*
%TO.P,REF\u002A\u002A,2*%
X131541680Y-110962491D03*
D14*
%TO.N,col0_r2*%
X131666667Y-115000000D03*
D15*
%TO.N,Q_col0_r2*%
X133716667Y-113240000D03*
D16*
%TO.N,3V3A*%
X137666679Y-113075010D03*
D15*
%TO.P,REF\u002A\u002A,3*%
%TO.N,GND*%
X134666667Y-110760000D03*
%TD*%
D13*
%TO.P,REF\u002A\u002A,1*%
%TO.N,col1_r1*%
X147375001Y-94037501D03*
D14*
%TO.N,Q_col1_r1*%
X149500000Y-96000000D03*
D15*
%TO.N,3V3A*%
X151450000Y-94240000D03*
D16*
%TO.N,GND*%
X153500000Y-92000000D03*
D13*
%TO.P,REF\u002A\u002A,2*%
X147375013Y-91962491D03*
D14*
%TO.N,col1_r1*%
X147500000Y-96000000D03*
D15*
%TO.N,Q_col1_r1*%
X149550000Y-94240000D03*
D16*
%TO.N,3V3A*%
X153500012Y-94075010D03*
D15*
%TO.P,REF\u002A\u002A,3*%
%TO.N,GND*%
X150500000Y-91760000D03*
%TD*%
D13*
%TO.P,REF\u002A\u002A,1*%
%TO.N,col5_r2*%
X229708334Y-113037501D03*
D14*
%TO.N,Q_col5_r2*%
X231833333Y-115000000D03*
D15*
%TO.N,3V3A*%
X233783333Y-113240000D03*
D16*
%TO.N,GND*%
X235833333Y-111000000D03*
D13*
%TO.P,REF\u002A\u002A,2*%
X229708346Y-110962491D03*
D14*
%TO.N,col5_r2*%
X229833333Y-115000000D03*
D15*
%TO.N,Q_col5_r2*%
X231883333Y-113240000D03*
D16*
%TO.N,3V3A*%
X235833345Y-113075010D03*
D15*
%TO.P,REF\u002A\u002A,3*%
%TO.N,GND*%
X232833333Y-110760000D03*
%TD*%
D13*
%TO.P,REF\u002A\u002A,1*%
%TO.N,col3_r4*%
X204375001Y-151037501D03*
D14*
%TO.N,Q_col3_r4*%
X206500000Y-153000000D03*
D15*
%TO.N,3V3A*%
X208450000Y-151240000D03*
D16*
%TO.N,GND*%
X210500000Y-149000000D03*
D13*
%TO.P,REF\u002A\u002A,2*%
X204375013Y-148962491D03*
D14*
%TO.N,col3_r4*%
X204500000Y-153000000D03*
D15*
%TO.N,Q_col3_r4*%
X206550000Y-151240000D03*
D16*
%TO.N,3V3A*%
X210500012Y-151075010D03*
D15*
%TO.P,REF\u002A\u002A,3*%
%TO.N,GND*%
X207500000Y-148760000D03*
%TD*%
D13*
%TO.P,REF\u002A\u002A,1*%
%TO.N,col0_r5*%
X129875001Y-170037501D03*
D14*
%TO.N,Q_col0_r5*%
X132000000Y-172000000D03*
D15*
%TO.N,3V3A*%
X133950000Y-170240000D03*
D16*
%TO.N,GND*%
X136000000Y-168000000D03*
D13*
%TO.P,REF\u002A\u002A,2*%
X129875013Y-167962491D03*
D14*
%TO.N,col0_r5*%
X130000000Y-172000000D03*
D15*
%TO.N,Q_col0_r5*%
X132050000Y-170240000D03*
D16*
%TO.N,3V3A*%
X136000012Y-170075010D03*
D15*
%TO.P,REF\u002A\u002A,3*%
%TO.N,GND*%
X133000000Y-167760000D03*
%TD*%
D13*
%TO.P,FB,1*%
%TO.N,VCC*%
X257500000Y-101537500D03*
%TO.P,FB,2*%
%TO.N,3V3A*%
X257500000Y-99462500D03*
%TD*%
%TO.P,REF\u002A\u002A,1*%
%TO.N,col4_r3*%
X217041668Y-132037501D03*
D14*
%TO.N,Q_col4_r3*%
X219166667Y-134000000D03*
D15*
%TO.N,3V3A*%
X221116667Y-132240000D03*
D16*
%TO.N,GND*%
X223166667Y-130000000D03*
D13*
%TO.P,REF\u002A\u002A,2*%
X217041680Y-129962491D03*
D14*
%TO.N,col4_r3*%
X217166667Y-134000000D03*
D15*
%TO.N,Q_col4_r3*%
X219216667Y-132240000D03*
D16*
%TO.N,3V3A*%
X223166679Y-132075010D03*
D15*
%TO.P,REF\u002A\u002A,3*%
%TO.N,GND*%
X220166667Y-129760000D03*
%TD*%
D13*
%TO.P,REF\u002A\u002A,1*%
%TO.N,col2_r3*%
X179041668Y-132037501D03*
D14*
%TO.N,Q_col2_r3*%
X181166667Y-134000000D03*
D15*
%TO.N,3V3A*%
X183116667Y-132240000D03*
D16*
%TO.N,GND*%
X185166667Y-130000000D03*
D13*
%TO.P,REF\u002A\u002A,2*%
X179041680Y-129962491D03*
D14*
%TO.N,col2_r3*%
X179166667Y-134000000D03*
D15*
%TO.N,Q_col2_r3*%
X181216667Y-132240000D03*
D16*
%TO.N,3V3A*%
X185166679Y-132075010D03*
D15*
%TO.P,REF\u002A\u002A,3*%
%TO.N,GND*%
X182166667Y-129760000D03*
%TD*%
D13*
%TO.P,REF\u002A\u002A,1*%
%TO.N,col4_r5*%
X242375001Y-170037501D03*
D14*
%TO.N,Q_col4_r5*%
X244500000Y-172000000D03*
D15*
%TO.N,3V3A*%
X246450000Y-170240000D03*
D16*
%TO.N,GND*%
X248500000Y-168000000D03*
D13*
%TO.P,REF\u002A\u002A,2*%
X242375013Y-167962491D03*
D14*
%TO.N,col4_r5*%
X242500000Y-172000000D03*
D15*
%TO.N,Q_col4_r5*%
X244550000Y-170240000D03*
D16*
%TO.N,3V3A*%
X248500012Y-170075010D03*
D15*
%TO.P,REF\u002A\u002A,3*%
%TO.N,GND*%
X245500000Y-167760000D03*
%TD*%
D13*
%TO.P,REF\u002A\u002A,1*%
%TO.N,col1_r5*%
X151875001Y-170037501D03*
D14*
%TO.N,Q_col1_r5*%
X154000000Y-172000000D03*
D15*
%TO.N,3V3A*%
X155950000Y-170240000D03*
D16*
%TO.N,GND*%
X158000000Y-168000000D03*
D13*
%TO.P,REF\u002A\u002A,2*%
X151875013Y-167962491D03*
D14*
%TO.N,col1_r5*%
X152000000Y-172000000D03*
D15*
%TO.N,Q_col1_r5*%
X154050000Y-170240000D03*
D16*
%TO.N,3V3A*%
X158000012Y-170075010D03*
D15*
%TO.P,REF\u002A\u002A,3*%
%TO.N,GND*%
X155000000Y-167760000D03*
%TD*%
D13*
%TO.P,REF\u002A\u002A,1*%
%TO.N,col0_r1*%
X128375001Y-94037501D03*
D14*
%TO.N,Q_col0_r1*%
X130500000Y-96000000D03*
D15*
%TO.N,3V3A*%
X132450000Y-94240000D03*
D16*
%TO.N,GND*%
X134500000Y-92000000D03*
D13*
%TO.P,REF\u002A\u002A,2*%
X128375013Y-91962491D03*
D14*
%TO.N,col0_r1*%
X128500000Y-96000000D03*
D15*
%TO.N,Q_col0_r1*%
X130550000Y-94240000D03*
D16*
%TO.N,3V3A*%
X134500012Y-94075010D03*
D15*
%TO.P,REF\u002A\u002A,3*%
%TO.N,GND*%
X131500000Y-91760000D03*
%TD*%
D13*
%TO.P,REF\u002A\u002A,1*%
%TO.N,col4_r4*%
X223375001Y-151037501D03*
D14*
%TO.N,Q_col4_r4*%
X225500000Y-153000000D03*
D15*
%TO.N,3V3A*%
X227450000Y-151240000D03*
D16*
%TO.N,GND*%
X229500000Y-149000000D03*
D13*
%TO.P,REF\u002A\u002A,2*%
X223375013Y-148962491D03*
D14*
%TO.N,col4_r4*%
X223500000Y-153000000D03*
D15*
%TO.N,Q_col4_r4*%
X225550000Y-151240000D03*
D16*
%TO.N,3V3A*%
X229500012Y-151075010D03*
D15*
%TO.P,REF\u002A\u002A,3*%
%TO.N,GND*%
X226500000Y-148760000D03*
%TD*%
D17*
%TO.P,100nF,1*%
%TO.N,GND*%
X260037500Y-110500000D03*
%TO.P,100nF,2*%
%TO.N,VCC*%
X257962500Y-110500000D03*
%TD*%
D13*
%TO.P,REF\u002A\u002A,1*%
%TO.N,col5_r4*%
X242375001Y-151037501D03*
D14*
%TO.N,Q_col5_r4*%
X244500000Y-153000000D03*
D15*
%TO.N,3V3A*%
X246450000Y-151240000D03*
D16*
%TO.N,GND*%
X248500000Y-149000000D03*
D13*
%TO.P,REF\u002A\u002A,2*%
X242375013Y-148962491D03*
D14*
%TO.N,col5_r4*%
X242500000Y-153000000D03*
D15*
%TO.N,Q_col5_r4*%
X244550000Y-151240000D03*
D16*
%TO.N,3V3A*%
X248500012Y-151075010D03*
D15*
%TO.P,REF\u002A\u002A,3*%
%TO.N,GND*%
X245500000Y-148760000D03*
%TD*%
D13*
%TO.P,REF\u002A\u002A,1*%
%TO.N,col1_r4*%
X166375001Y-151037501D03*
D14*
%TO.N,Q_col1_r4*%
X168500000Y-153000000D03*
D15*
%TO.N,3V3A*%
X170450000Y-151240000D03*
D16*
%TO.N,GND*%
X172500000Y-149000000D03*
D13*
%TO.P,REF\u002A\u002A,2*%
X166375013Y-148962491D03*
D14*
%TO.N,col1_r4*%
X166500000Y-153000000D03*
D15*
%TO.N,Q_col1_r4*%
X168550000Y-151240000D03*
D16*
%TO.N,3V3A*%
X172500012Y-151075010D03*
D15*
%TO.P,REF\u002A\u002A,3*%
%TO.N,GND*%
X169500000Y-148760000D03*
%TD*%
D18*
%TO.P,REF\u002A\u002A,1*%
%TO.N,col0_r3*%
X249501067Y-133750000D03*
%TO.P,REF\u002A\u002A,2*%
%TO.N,col1_r3*%
X249501067Y-133250001D03*
%TO.P,REF\u002A\u002A,3*%
%TO.N,col2_r3*%
X249501067Y-132749999D03*
%TO.P,REF\u002A\u002A,4*%
%TO.N,col3_r3*%
X249501067Y-132249999D03*
%TO.P,REF\u002A\u002A,5*%
%TO.N,col4_r3*%
X249501067Y-131750001D03*
%TO.P,REF\u002A\u002A,6*%
%TO.N,col5_r3*%
X249501067Y-131250000D03*
%TO.P,REF\u002A\u002A,7*%
%TO.N,col0_r2*%
X249501067Y-130750000D03*
%TO.P,REF\u002A\u002A,8*%
%TO.N,col1_r2*%
X249501067Y-130249999D03*
%TO.P,REF\u002A\u002A,9*%
%TO.N,col2_r2*%
X249501067Y-129750001D03*
%TO.P,REF\u002A\u002A,10*%
%TO.N,col3_r2*%
X249501067Y-129250001D03*
%TO.P,REF\u002A\u002A,11*%
%TO.N,col4_r2*%
X249501067Y-128749999D03*
%TO.P,REF\u002A\u002A,12*%
%TO.N,col5_r2*%
X249501067Y-128250000D03*
D19*
%TO.P,REF\u002A\u002A,13*%
%TO.N,3V3A*%
X250916667Y-126834400D03*
%TO.P,REF\u002A\u002A,14*%
X251416666Y-126834400D03*
%TO.P,REF\u002A\u002A,15*%
%TO.N,MUX_A0*%
X251916668Y-126834400D03*
%TO.P,REF\u002A\u002A,16*%
%TO.N,MUX_A1*%
X252416668Y-126834400D03*
%TO.P,REF\u002A\u002A,17*%
%TO.N,MUX_A2*%
X252916666Y-126834400D03*
%TO.P,REF\u002A\u002A,18*%
%TO.N,MUX_A3*%
X253416667Y-126834400D03*
%TO.P,REF\u002A\u002A,19*%
%TO.N,MUX_A4*%
X253916667Y-126834400D03*
%TO.P,REF\u002A\u002A,20*%
%TO.N,GND*%
X254416668Y-126834400D03*
%TO.P,REF\u002A\u002A,21*%
X254916666Y-126834400D03*
%TO.P,REF\u002A\u002A,22*%
X255416666Y-126834400D03*
%TO.P,REF\u002A\u002A,23*%
X255916668Y-126834400D03*
%TO.P,REF\u002A\u002A,24*%
X256416667Y-126834400D03*
D18*
%TO.P,REF\u002A\u002A,25*%
%TO.N,col6_r1*%
X257832267Y-128250000D03*
%TO.P,REF\u002A\u002A,26*%
%TO.N,col5_r1*%
X257832267Y-128749999D03*
%TO.P,REF\u002A\u002A,27*%
%TO.N,col4_r1*%
X257832267Y-129250001D03*
%TO.P,REF\u002A\u002A,28*%
%TO.N,col3_r1*%
X257832267Y-129750001D03*
%TO.P,REF\u002A\u002A,29*%
%TO.N,col2_r1*%
X257832267Y-130249999D03*
%TO.P,REF\u002A\u002A,30*%
%TO.N,col1_r1*%
X257832267Y-130750000D03*
%TO.P,REF\u002A\u002A,31*%
%TO.N,col0_r1*%
X257832267Y-131250000D03*
%TO.P,REF\u002A\u002A,32*%
%TO.N,N/C*%
X257832267Y-131750001D03*
%TO.P,REF\u002A\u002A,33*%
X257832267Y-132249999D03*
%TO.P,REF\u002A\u002A,34*%
%TO.N,col4_r5*%
X257832267Y-132749999D03*
%TO.P,REF\u002A\u002A,35*%
%TO.N,col3_r5*%
X257832267Y-133250001D03*
%TO.P,REF\u002A\u002A,36*%
%TO.N,col2_r5*%
X257832267Y-133750000D03*
D19*
%TO.P,REF\u002A\u002A,37*%
%TO.N,col1_r5*%
X256416667Y-135165600D03*
%TO.P,REF\u002A\u002A,38*%
%TO.N,col0_r5*%
X255916668Y-135165600D03*
%TO.P,REF\u002A\u002A,39*%
%TO.N,col5_r4*%
X255416666Y-135165600D03*
%TO.P,REF\u002A\u002A,40*%
%TO.N,col4_r4*%
X254916666Y-135165600D03*
%TO.P,REF\u002A\u002A,41*%
%TO.N,N/C*%
X254416668Y-135165600D03*
%TO.P,REF\u002A\u002A,42*%
X253916667Y-135165600D03*
%TO.P,REF\u002A\u002A,43*%
%TO.N,AIN1*%
X253416667Y-135165600D03*
%TO.P,REF\u002A\u002A,44*%
%TO.N,N/C*%
X252916666Y-135165600D03*
%TO.P,REF\u002A\u002A,45*%
%TO.N,col3_r4*%
X252416668Y-135165600D03*
%TO.P,REF\u002A\u002A,46*%
%TO.N,col2_r4*%
X251916668Y-135165600D03*
%TO.P,REF\u002A\u002A,47*%
%TO.N,col1_r4*%
X251416666Y-135165600D03*
%TO.P,REF\u002A\u002A,48*%
%TO.N,col0_r4*%
X250916667Y-135165600D03*
%TD*%
D20*
%TO.N,AIN1*%
X253000000Y-133000000D03*
%TO.N,GND*%
X145500000Y-91500000D03*
X240500000Y-91500000D03*
X202500000Y-148500000D03*
X172000000Y-167500000D03*
X240500000Y-167500000D03*
X183500000Y-148500000D03*
X171000000Y-110500000D03*
X164500000Y-91500000D03*
X164500000Y-148500000D03*
X215000000Y-129500000D03*
X207000000Y-167500000D03*
X183500000Y-91500000D03*
X240500000Y-148500000D03*
X221500000Y-91500000D03*
X152000000Y-110500000D03*
X132500000Y-129500000D03*
X196000000Y-129500000D03*
X234000000Y-129500000D03*
X190000000Y-110500000D03*
X129500000Y-110500000D03*
X228000000Y-110500000D03*
X209000000Y-110500000D03*
X177000000Y-129500000D03*
X128000000Y-167500000D03*
X136000000Y-148500000D03*
X126000000Y-91500000D03*
X158000000Y-129500000D03*
X221500000Y-148500000D03*
X150000000Y-167500000D03*
X202500000Y-91500000D03*
%TO.N,col6_r1*%
X262000000Y-126000000D03*
X240500000Y-96000000D03*
%TO.N,col2_r1*%
X164500000Y-96000000D03*
X262000000Y-130000000D03*
%TO.N,col4_r1*%
X202500000Y-96000000D03*
X262000000Y-128000000D03*
%TO.N,col5_r1*%
X262000000Y-127000000D03*
X221500000Y-96000000D03*
%TO.N,col3_r1*%
X262000000Y-129000000D03*
X183500000Y-96000000D03*
%TO.N,col1_r1*%
X145500000Y-96000000D03*
X262000000Y-131000000D03*
%TO.N,col0_r1*%
X262000000Y-132000000D03*
X126500000Y-96000000D03*
%TD*%
%TO.N,MUX_A4*%
D21*
X257613333Y-124500000D02*
X262453333Y-119660000D01*
X253916667Y-125655701D02*
X255072368Y-124500000D01*
X255072368Y-124500000D02*
X257613333Y-124500000D01*
X253916667Y-126834400D02*
X253916667Y-125655701D01*
%TO.N,MUX_A3*%
X254935972Y-124000000D02*
X255573333Y-124000000D01*
X255573333Y-124000000D02*
X259913333Y-119660000D01*
X253416667Y-125519305D02*
X254935972Y-124000000D01*
X253416667Y-126834400D02*
X253416667Y-125519305D01*
%TO.N,MUX_A2*%
X252916666Y-126834400D02*
X252916666Y-125382910D01*
X254799576Y-123500000D02*
X255000000Y-123500000D01*
X255000000Y-123500000D02*
X255000000Y-122033333D01*
X252916666Y-125382910D02*
X254799576Y-123500000D01*
X255000000Y-122033333D02*
X257373333Y-119660000D01*
%TO.N,MUX_A1*%
X254833333Y-121166667D02*
X254833333Y-119660000D01*
X254500000Y-123000000D02*
X254500000Y-121500000D01*
X254500000Y-121500000D02*
X254833333Y-121166667D01*
X252416668Y-126834400D02*
X252416668Y-125083332D01*
X252416668Y-125083332D02*
X254500000Y-123000000D01*
%TO.N,MUX_A0*%
X251916668Y-126834400D02*
X251916668Y-120036665D01*
X251916668Y-120036665D02*
X252293333Y-119660000D01*
%TO.N,AIN1*%
X253416667Y-133416667D02*
X253000000Y-133000000D01*
X253416667Y-135165600D02*
X253416667Y-133416667D01*
%TO.N,VCC*%
X257500000Y-101537500D02*
X257500000Y-102000000D01*
X257962500Y-110500000D02*
X257962500Y-107500000D01*
X257500000Y-102000000D02*
X257373333Y-102126667D01*
X257373333Y-104420000D02*
X257373333Y-106910833D01*
X257373333Y-106910833D02*
X257962500Y-107500000D01*
X257373333Y-102126667D02*
X257373333Y-104420000D01*
%TO.N,GND*%
X126462491Y-91962491D02*
X128375013Y-91962491D01*
X260500000Y-96500000D02*
X260500000Y-97000000D01*
X145962491Y-91962491D02*
X145500000Y-91500000D01*
X147375013Y-91962491D02*
X150297509Y-91962491D01*
X259913333Y-104420000D02*
X259913333Y-107375833D01*
X191500000Y-92000000D02*
X188740000Y-92000000D01*
X250840333Y-122122167D02*
X250840333Y-119159667D01*
X126000000Y-91500000D02*
X126462491Y-91962491D01*
X158000000Y-168000000D02*
X150500000Y-168000000D01*
X158500000Y-130000000D02*
X158000000Y-129500000D01*
X184912522Y-91500000D02*
X185375013Y-91962491D01*
X223166667Y-130000000D02*
X215500000Y-130000000D01*
X250840333Y-119159667D02*
X252000000Y-118000000D01*
X166166667Y-130000000D02*
X158500000Y-130000000D01*
X191500000Y-149000000D02*
X184000000Y-149000000D01*
X165000000Y-149000000D02*
X164500000Y-148500000D01*
X166375013Y-91962491D02*
X169297509Y-91962491D01*
X264000000Y-120000000D02*
X264000000Y-118000000D01*
X183500000Y-91500000D02*
X184912522Y-91500000D01*
X128500000Y-168000000D02*
X128000000Y-167500000D01*
X241912522Y-167500000D02*
X242375013Y-167962491D01*
X248500000Y-92000000D02*
X248000000Y-92000000D01*
X223577504Y-91760000D02*
X223375013Y-91962491D01*
X245297509Y-91962491D02*
X245500000Y-91760000D01*
X242166667Y-130000000D02*
X234500000Y-130000000D01*
X229500000Y-149000000D02*
X222000000Y-149000000D01*
X134500000Y-92000000D02*
X131740000Y-92000000D01*
X229000000Y-92000000D02*
X228760000Y-91760000D01*
X177500000Y-130000000D02*
X177000000Y-129500000D01*
X242375013Y-91962491D02*
X240962491Y-91962491D01*
X249000000Y-123962500D02*
X250840333Y-122122167D01*
X235833333Y-111000000D02*
X228500000Y-111000000D01*
X248500000Y-168000000D02*
X248462491Y-167962491D01*
X140833333Y-130000000D02*
X133000000Y-130000000D01*
X257165600Y-126834400D02*
X264000000Y-120000000D01*
X190500000Y-111000000D02*
X190000000Y-110500000D01*
X164962491Y-91962491D02*
X164500000Y-91500000D01*
X204166667Y-130000000D02*
X196500000Y-130000000D01*
X172500000Y-168000000D02*
X172000000Y-167500000D01*
X209500000Y-111000000D02*
X209000000Y-110500000D01*
X196500000Y-130000000D02*
X196000000Y-129500000D01*
X188740000Y-92000000D02*
X188500000Y-91760000D01*
X234500000Y-130000000D02*
X234000000Y-129500000D01*
X130450000Y-87050000D02*
X254050000Y-87050000D01*
X184000000Y-149000000D02*
X183500000Y-148500000D01*
X172500000Y-149000000D02*
X165000000Y-149000000D01*
X241000000Y-149000000D02*
X240500000Y-148500000D01*
X128375013Y-91962491D02*
X131297509Y-91962491D01*
X228760000Y-91760000D02*
X226500000Y-91760000D01*
X131740000Y-92000000D02*
X131500000Y-91760000D01*
X254416668Y-126834400D02*
X257165600Y-126834400D01*
X185375013Y-91962491D02*
X188297509Y-91962491D01*
X180000000Y-168000000D02*
X172500000Y-168000000D01*
X207297509Y-91962491D02*
X207500000Y-91760000D01*
X171500000Y-111000000D02*
X171000000Y-110500000D01*
X228500000Y-111000000D02*
X228000000Y-110500000D01*
X172500000Y-92000000D02*
X169740000Y-92000000D01*
X136500000Y-149000000D02*
X136000000Y-148500000D01*
X221962491Y-91962491D02*
X221500000Y-91500000D01*
X153500000Y-92000000D02*
X150740000Y-92000000D01*
X207000000Y-167500000D02*
X207500000Y-168000000D01*
X207500000Y-168000000D02*
X215000000Y-168000000D01*
X248500000Y-149000000D02*
X241000000Y-149000000D01*
X131297509Y-91962491D02*
X131500000Y-91760000D01*
X259913333Y-107375833D02*
X260037500Y-107500000D01*
X223375013Y-91962491D02*
X221962491Y-91962491D01*
X260500000Y-97000000D02*
X259913333Y-97586667D01*
X197833333Y-111000000D02*
X190500000Y-111000000D01*
X178833333Y-111000000D02*
X171500000Y-111000000D01*
X248000000Y-92000000D02*
X247760000Y-91760000D01*
X130000000Y-111000000D02*
X129500000Y-110500000D01*
X210500000Y-149000000D02*
X203000000Y-149000000D01*
X136000000Y-168000000D02*
X128500000Y-168000000D01*
X150500000Y-168000000D02*
X150000000Y-167500000D01*
X188297509Y-91962491D02*
X188500000Y-91760000D01*
X240500000Y-167500000D02*
X241912522Y-167500000D01*
X252000000Y-118000000D02*
X264000000Y-118000000D01*
X222000000Y-149000000D02*
X221500000Y-148500000D01*
X166375013Y-91962491D02*
X164962491Y-91962491D01*
X147375013Y-91962491D02*
X145962491Y-91962491D01*
X207740000Y-92000000D02*
X207500000Y-91760000D01*
X247760000Y-91760000D02*
X245500000Y-91760000D01*
X203912522Y-91500000D02*
X204375013Y-91962491D01*
X150297509Y-91962491D02*
X150500000Y-91760000D01*
X264000000Y-118000000D02*
X264000000Y-114462500D01*
X264000000Y-114462500D02*
X260037500Y-110500000D01*
X137666667Y-111000000D02*
X130000000Y-111000000D01*
X216833333Y-111000000D02*
X209500000Y-111000000D01*
X204375013Y-91962491D02*
X207297509Y-91962491D01*
X229500000Y-92000000D02*
X229000000Y-92000000D01*
X185166667Y-130000000D02*
X177500000Y-130000000D01*
X144000000Y-149000000D02*
X136500000Y-149000000D01*
X126000000Y-91500000D02*
X130450000Y-87050000D01*
X254050000Y-87050000D02*
X260500000Y-93500000D01*
X159833333Y-111000000D02*
X152500000Y-111000000D01*
X169297509Y-91962491D02*
X169500000Y-91760000D01*
X259913333Y-97586667D02*
X259913333Y-104420000D01*
X226500000Y-91760000D02*
X223577504Y-91760000D01*
X203000000Y-149000000D02*
X202500000Y-148500000D01*
X260037500Y-107500000D02*
X260037500Y-110500000D01*
X152500000Y-111000000D02*
X152000000Y-110500000D01*
X169740000Y-92000000D02*
X169500000Y-91760000D01*
X248462491Y-167962491D02*
X242375013Y-167962491D01*
X133000000Y-130000000D02*
X132500000Y-129500000D01*
X215500000Y-130000000D02*
X215000000Y-129500000D01*
X240962491Y-91962491D02*
X240500000Y-91500000D01*
X202500000Y-91500000D02*
X203912522Y-91500000D01*
X150740000Y-92000000D02*
X150500000Y-91760000D01*
X242375013Y-91962491D02*
X245297509Y-91962491D01*
X210500000Y-92000000D02*
X207740000Y-92000000D01*
X260500000Y-93500000D02*
X260500000Y-96500000D01*
%TO.N,col2_r4*%
X185500000Y-153000000D02*
X185500000Y-151162500D01*
X186412502Y-150000000D02*
X185375001Y-151037501D01*
X251916668Y-135165600D02*
X251916668Y-145306744D01*
X196185882Y-145979904D02*
X192165786Y-150000000D01*
X185500000Y-151162500D02*
X185375001Y-151037501D01*
X192165786Y-150000000D02*
X186412502Y-150000000D01*
X251916668Y-145306744D02*
X251243508Y-145979904D01*
X251243508Y-145979904D02*
X196185882Y-145979904D01*
%TO.N,Q_col2_r4*%
X187550000Y-151240000D02*
X187550000Y-152950000D01*
X187550000Y-152950000D02*
X187500000Y-153000000D01*
%TO.N,3V3A*%
X248500012Y-173499988D02*
X248500012Y-170075010D01*
X229500012Y-151075010D02*
X229500012Y-154499988D01*
X251416666Y-126834400D02*
X250916667Y-126834400D01*
X140833345Y-132075010D02*
X140833345Y-131665774D01*
X229500012Y-154499988D02*
X227000000Y-157000000D01*
X143500000Y-128999119D02*
X143500000Y-128000000D01*
X223166679Y-132075010D02*
X223166679Y-131665774D01*
X143000000Y-110160881D02*
X140085871Y-113075010D01*
X185166679Y-132075010D02*
X183281657Y-132075010D01*
X143000000Y-107000000D02*
X131974695Y-107000000D01*
X213114990Y-170075010D02*
X212950000Y-170240000D01*
X161000000Y-111499119D02*
X161000000Y-107000000D01*
X128586667Y-124086667D02*
X131750000Y-127250000D01*
X172500012Y-154499988D02*
X172500012Y-151075010D01*
X191500012Y-151075010D02*
X189614990Y-151075010D01*
X143500000Y-128000000D02*
X168500000Y-128000000D01*
X234000000Y-87500000D02*
X215000000Y-87500000D01*
X166166679Y-131665774D02*
X168500000Y-129332453D01*
X200500000Y-109999119D02*
X200500000Y-107000000D01*
X204166679Y-132075010D02*
X202281657Y-132075010D01*
X157835022Y-170240000D02*
X158000012Y-170075010D01*
X236883333Y-112025022D02*
X236883333Y-106383333D01*
X258425000Y-96500000D02*
X258425000Y-93500000D01*
X246450000Y-94240000D02*
X246450000Y-96050000D01*
X236883333Y-106383333D02*
X236500000Y-106000000D01*
X132500000Y-128000000D02*
X143500000Y-128000000D01*
X170614990Y-151075010D02*
X170450000Y-151240000D01*
X158000000Y-87500000D02*
X139500000Y-87500000D01*
X180000012Y-170075010D02*
X180000012Y-172999988D01*
X130000000Y-153000000D02*
X130000000Y-129000000D01*
X166166679Y-132075010D02*
X164281657Y-132075010D01*
X247950000Y-123379900D02*
X248666333Y-122663567D01*
X215000012Y-172999988D02*
X212000000Y-176000000D01*
X143000000Y-107000000D02*
X143000000Y-110160881D01*
X243246667Y-130995022D02*
X242166679Y-132075010D01*
X208614990Y-94075010D02*
X208450000Y-94240000D01*
X158000012Y-170075010D02*
X158000012Y-172999988D01*
X179835022Y-170240000D02*
X180000012Y-170075010D01*
X221281657Y-132075010D02*
X221116667Y-132240000D01*
X176948323Y-113075010D02*
X176783333Y-113240000D01*
X202281657Y-132075010D02*
X202116667Y-132240000D01*
X132614990Y-94075010D02*
X132450000Y-94240000D01*
X131750000Y-127250000D02*
X132500000Y-128000000D01*
X191500012Y-154499988D02*
X189000000Y-157000000D01*
X140833345Y-131665774D02*
X143500000Y-128999119D01*
X155000000Y-176000000D02*
X177000000Y-176000000D01*
X128586667Y-110388028D02*
X128586667Y-124086667D01*
X243246667Y-128753333D02*
X243246667Y-130995022D01*
X178833345Y-113075010D02*
X178833345Y-112665774D01*
X141000000Y-157000000D02*
X170000000Y-157000000D01*
X258425000Y-92425000D02*
X253500000Y-87500000D01*
X158000012Y-172999988D02*
X155000000Y-176000000D01*
X240281657Y-132075010D02*
X240116667Y-132240000D01*
X212919204Y-94075010D02*
X215000000Y-91994214D01*
X136000012Y-170075010D02*
X134114990Y-170075010D01*
X136919204Y-94075010D02*
X134500012Y-94075010D01*
X215000012Y-170075010D02*
X215000012Y-172999988D01*
X161000000Y-107000000D02*
X143000000Y-107000000D01*
X210500012Y-151075010D02*
X210500012Y-154499988D01*
X195500000Y-92494214D02*
X195500000Y-87500000D01*
X197833345Y-113075010D02*
X195948323Y-113075010D01*
X140833345Y-132075010D02*
X138948323Y-132075010D01*
X144000012Y-151075010D02*
X142114990Y-151075010D01*
X200500000Y-107000000D02*
X181000000Y-107000000D01*
X142114990Y-151075010D02*
X141950000Y-151240000D01*
X248500012Y-94075010D02*
X250919204Y-94075010D01*
X204166679Y-132075010D02*
X204166679Y-131665774D01*
X135781657Y-113075010D02*
X135616667Y-113240000D01*
X248500012Y-94075010D02*
X246614990Y-94075010D01*
X258425000Y-98537500D02*
X257500000Y-99462500D01*
X168500000Y-129332453D02*
X168500000Y-128000000D01*
X220000000Y-107000000D02*
X200500000Y-107000000D01*
X225000000Y-128000000D02*
X244000000Y-128000000D01*
X215000012Y-170075010D02*
X213114990Y-170075010D01*
X250916667Y-126834400D02*
X249796900Y-126834400D01*
X229500012Y-151075010D02*
X227614990Y-151075010D01*
X189000000Y-157000000D02*
X208000000Y-157000000D01*
X246614990Y-94075010D02*
X246450000Y-94240000D01*
X159833345Y-113075010D02*
X157948323Y-113075010D01*
X140085871Y-113075010D02*
X137666679Y-113075010D01*
X168500000Y-128000000D02*
X188832453Y-128000000D01*
X134000000Y-157000000D02*
X131500000Y-154500000D01*
X189614990Y-94075010D02*
X189450000Y-94240000D01*
X252500000Y-92494214D02*
X252500000Y-87500000D01*
X181000000Y-107000000D02*
X161000000Y-107000000D01*
X229500012Y-94075010D02*
X231919204Y-94075010D01*
X253380333Y-103582167D02*
X257500000Y-99462500D01*
X176000000Y-92994214D02*
X176000000Y-87500000D01*
X159833345Y-113075010D02*
X159833345Y-112665774D01*
X130000000Y-129000000D02*
X131750000Y-127250000D01*
X131500000Y-154500000D02*
X130000000Y-153000000D01*
X246000000Y-157000000D02*
X248500012Y-154499988D01*
X252500000Y-87500000D02*
X234000000Y-87500000D01*
X246450000Y-96050000D02*
X236500000Y-106000000D01*
X214783333Y-113240000D02*
X216668355Y-113240000D01*
X170000000Y-157000000D02*
X189000000Y-157000000D01*
X216833345Y-113075010D02*
X216833345Y-112665774D01*
X248500012Y-154499988D02*
X248500012Y-151075010D01*
X249796900Y-126834400D02*
X249000000Y-126037500D01*
X141000000Y-157000000D02*
X134000000Y-157000000D01*
X227614990Y-94075010D02*
X227450000Y-94240000D01*
X170614990Y-94075010D02*
X170450000Y-94240000D01*
X191500012Y-151075010D02*
X191500012Y-154499988D01*
X193919204Y-94075010D02*
X195500000Y-92494214D01*
X197833345Y-113075010D02*
X197833345Y-112665774D01*
X126000000Y-160000000D02*
X126000000Y-176000000D01*
X253380333Y-104870251D02*
X253380333Y-103582167D01*
X191500012Y-94075010D02*
X189614990Y-94075010D01*
X229500012Y-94075010D02*
X227614990Y-94075010D01*
X247950000Y-124987500D02*
X247950000Y-123379900D01*
X183281657Y-132075010D02*
X183116667Y-132240000D01*
X210500012Y-94075010D02*
X212919204Y-94075010D01*
X164281657Y-132075010D02*
X164116667Y-132240000D01*
X220000000Y-109499119D02*
X220000000Y-107000000D01*
X235500000Y-107000000D02*
X220000000Y-107000000D01*
X236500000Y-106000000D02*
X235500000Y-107000000D01*
X195948323Y-113075010D02*
X195783333Y-113240000D01*
X249000000Y-126037500D02*
X247950000Y-124987500D01*
X216833345Y-112665774D02*
X220000000Y-109499119D01*
X244000000Y-128000000D02*
X243246667Y-128753333D01*
X176000000Y-87500000D02*
X158000000Y-87500000D01*
X210500012Y-151075010D02*
X208614990Y-151075010D01*
X242166679Y-132075010D02*
X240281657Y-132075010D01*
X126000000Y-176000000D02*
X133000000Y-176000000D01*
X223166679Y-132075010D02*
X221281657Y-132075010D01*
X172500012Y-94075010D02*
X174919204Y-94075010D01*
X253500000Y-87500000D02*
X252500000Y-87500000D01*
X225000000Y-129832453D02*
X225000000Y-128000000D01*
X134500012Y-94075010D02*
X132614990Y-94075010D01*
X133000000Y-176000000D02*
X155000000Y-176000000D01*
X185166679Y-132075010D02*
X185166679Y-131665774D01*
X216668355Y-113240000D02*
X216833345Y-113075010D01*
X223166679Y-131665774D02*
X225000000Y-129832453D01*
X189614990Y-151075010D02*
X189450000Y-151240000D01*
X155950000Y-170240000D02*
X157835022Y-170240000D01*
X227614990Y-151075010D02*
X227450000Y-151240000D01*
X231919204Y-94075010D02*
X234000000Y-91994214D01*
X258425000Y-93500000D02*
X258425000Y-92425000D01*
X227000000Y-157000000D02*
X246000000Y-157000000D01*
X248500012Y-151075010D02*
X246614990Y-151075010D01*
X134114990Y-170075010D02*
X133950000Y-170240000D01*
X166166679Y-132075010D02*
X166166679Y-131665774D01*
X195500000Y-87500000D02*
X176000000Y-87500000D01*
X139500000Y-91494214D02*
X136919204Y-94075010D01*
X246614990Y-170075010D02*
X246450000Y-170240000D01*
X144000012Y-151075010D02*
X144000012Y-153999988D01*
X206500000Y-129332453D02*
X206500000Y-128000000D01*
X136000012Y-172999988D02*
X133000000Y-176000000D01*
X210500012Y-94075010D02*
X208614990Y-94075010D01*
X181000000Y-110499119D02*
X181000000Y-107000000D01*
X188832453Y-128000000D02*
X206500000Y-128000000D01*
X156424990Y-94075010D02*
X158000000Y-92500000D01*
X172500012Y-151075010D02*
X170614990Y-151075010D01*
X234000000Y-91994214D02*
X234000000Y-87500000D01*
X250919204Y-94075010D02*
X252500000Y-92494214D01*
X233783333Y-113240000D02*
X235668355Y-113240000D01*
X208000000Y-157000000D02*
X227000000Y-157000000D01*
X191500012Y-94075010D02*
X193919204Y-94075010D01*
X170000000Y-157000000D02*
X172500012Y-154499988D01*
X235833345Y-113075010D02*
X236883333Y-112025022D01*
X172500012Y-94075010D02*
X170614990Y-94075010D01*
X174919204Y-94075010D02*
X176000000Y-92994214D01*
X180000012Y-172999988D02*
X177000000Y-176000000D01*
X208614990Y-151075010D02*
X208450000Y-151240000D01*
X235668355Y-113240000D02*
X235833345Y-113075010D01*
X178833345Y-112665774D02*
X181000000Y-110499119D01*
X151614990Y-94075010D02*
X151450000Y-94240000D01*
X177000000Y-176000000D02*
X212000000Y-176000000D01*
X248666333Y-109584251D02*
X253380333Y-104870251D01*
X138948323Y-132075010D02*
X138783333Y-132240000D01*
X258425000Y-96500000D02*
X258425000Y-98537500D01*
X178833345Y-113075010D02*
X176948323Y-113075010D01*
X153500012Y-94075010D02*
X151614990Y-94075010D01*
X159833345Y-112665774D02*
X161000000Y-111499119D01*
X136000012Y-170075010D02*
X136000012Y-172999988D01*
X204166679Y-131665774D02*
X206500000Y-129332453D01*
X206500000Y-128000000D02*
X225000000Y-128000000D01*
X212000000Y-176000000D02*
X246000000Y-176000000D01*
X137666679Y-113075010D02*
X135781657Y-113075010D01*
X185166679Y-131665774D02*
X188832453Y-128000000D01*
X246614990Y-151075010D02*
X246450000Y-151240000D01*
X248500012Y-170075010D02*
X246614990Y-170075010D01*
X248666333Y-122663567D02*
X248666333Y-109584251D01*
X153500012Y-94075010D02*
X156424990Y-94075010D01*
X158000000Y-92500000D02*
X158000000Y-87500000D01*
X210500012Y-154499988D02*
X208000000Y-157000000D01*
X215000000Y-91994214D02*
X215000000Y-87500000D01*
X131500000Y-154500000D02*
X126000000Y-160000000D01*
X246000000Y-176000000D02*
X248500012Y-173499988D01*
X215000000Y-87500000D02*
X195500000Y-87500000D01*
X177950000Y-170240000D02*
X179835022Y-170240000D01*
X139500000Y-87500000D02*
X139500000Y-91494214D01*
X131974695Y-107000000D02*
X128586667Y-110388028D01*
X157948323Y-113075010D02*
X157783333Y-113240000D01*
X144000012Y-153999988D02*
X141000000Y-157000000D01*
X197833345Y-112665774D02*
X200500000Y-109999119D01*
%TO.N,col6_r1*%
X261974695Y-126000000D02*
X259724695Y-128250000D01*
X242375001Y-95875001D02*
X242500000Y-96000000D01*
X242375001Y-94037501D02*
X242375001Y-95875001D01*
X262000000Y-126000000D02*
X261974695Y-126000000D01*
X259724695Y-128250000D02*
X257832267Y-128250000D01*
X240500000Y-96000000D02*
X242500000Y-96000000D01*
%TO.N,Q_col6_r1*%
X244550000Y-94240000D02*
X244550000Y-95950000D01*
X244550000Y-95950000D02*
X244500000Y-96000000D01*
%TO.N,col4_r2*%
X239500000Y-119927633D02*
X248322366Y-128749999D01*
X210708334Y-113037501D02*
X210708334Y-114875001D01*
X239500000Y-116500000D02*
X239500000Y-119927633D01*
X210708334Y-114875001D02*
X210833333Y-115000000D01*
X210833333Y-115000000D02*
X212333333Y-116500000D01*
X212333333Y-116500000D02*
X239500000Y-116500000D01*
X248322366Y-128749999D02*
X249501067Y-128749999D01*
%TO.N,Q_col4_r2*%
X212883333Y-114950000D02*
X212833333Y-115000000D01*
X212883333Y-113240000D02*
X212883333Y-114950000D01*
%TO.N,col0_r3*%
X249501067Y-133750000D02*
X246431980Y-133750000D01*
X242906980Y-137275000D02*
X138108333Y-137275000D01*
X138108333Y-137275000D02*
X134833333Y-134000000D01*
X246431980Y-133750000D02*
X242906980Y-137275000D01*
X134833333Y-134000000D02*
X134833333Y-132162500D01*
X134833333Y-132162500D02*
X134708334Y-132037501D01*
%TO.N,Q_col0_r3*%
X136883333Y-133950000D02*
X136833333Y-134000000D01*
X136883333Y-132240000D02*
X136883333Y-133950000D01*
%TO.N,col2_r5*%
X260377210Y-133750000D02*
X260427209Y-133700001D01*
X173875001Y-171875001D02*
X174000000Y-172000000D01*
X173875001Y-170037501D02*
X173875001Y-171875001D01*
X257832267Y-133750000D02*
X260377210Y-133750000D01*
X174749992Y-169162510D02*
X173875001Y-170037501D01*
X250842994Y-166050000D02*
X183615786Y-166050000D01*
X260600000Y-156292994D02*
X250842994Y-166050000D01*
X183615786Y-166050000D02*
X180503276Y-169162510D01*
X260600000Y-133872792D02*
X260600000Y-156292994D01*
X260427209Y-133700001D02*
X260600000Y-133872792D01*
X180503276Y-169162510D02*
X174749992Y-169162510D01*
%TO.N,Q_col2_r5*%
X176000000Y-170290000D02*
X176050000Y-170240000D01*
X176000000Y-172000000D02*
X176000000Y-170290000D01*
%TO.N,col5_r3*%
X249501067Y-131250000D02*
X249536367Y-131214700D01*
X236041668Y-132037501D02*
X236041668Y-133875001D01*
X236166667Y-134000000D02*
X237191667Y-135025000D01*
X241975000Y-135025000D02*
X245750000Y-131250000D01*
X236041668Y-133875001D02*
X236166667Y-134000000D01*
X237191667Y-135025000D02*
X241975000Y-135025000D01*
X245750000Y-131250000D02*
X249501067Y-131250000D01*
%TO.N,Q_col5_r3*%
X238166667Y-134000000D02*
X238166667Y-132290000D01*
X238166667Y-132290000D02*
X238216667Y-132240000D01*
%TO.N,col2_r2*%
X172708334Y-114875001D02*
X172833333Y-115000000D01*
X172833333Y-115000000D02*
X175333333Y-117500000D01*
X238500000Y-117500000D02*
X238500000Y-120200425D01*
X175333333Y-117500000D02*
X238500000Y-117500000D01*
X172708334Y-113037501D02*
X172708334Y-114875001D01*
X238500000Y-120200425D02*
X248049576Y-129750001D01*
X248049576Y-129750001D02*
X249501067Y-129750001D01*
%TO.N,Q_col2_r2*%
X174883333Y-114950000D02*
X174833333Y-115000000D01*
X174883333Y-113240000D02*
X174883333Y-114950000D01*
%TO.N,col3_r2*%
X191708334Y-114875001D02*
X191833333Y-115000000D01*
X191833333Y-115000000D02*
X193833333Y-117000000D01*
X191708334Y-113037501D02*
X191708334Y-114875001D01*
X239000000Y-120064029D02*
X248185972Y-129250001D01*
X193833333Y-117000000D02*
X239000000Y-117000000D01*
X248185972Y-129250001D02*
X249501067Y-129250001D01*
X239000000Y-117000000D02*
X239000000Y-120064029D01*
%TO.N,Q_col3_r2*%
X193883333Y-114950000D02*
X193833333Y-115000000D01*
X193883333Y-113240000D02*
X193883333Y-114950000D01*
%TO.N,col1_r2*%
X153833333Y-115000000D02*
X156833333Y-118000000D01*
X238000000Y-118000000D02*
X238000000Y-120336821D01*
X238000000Y-120336821D02*
X247913178Y-130249999D01*
X156833333Y-118000000D02*
X238000000Y-118000000D01*
X247913178Y-130249999D02*
X249501067Y-130249999D01*
X153833333Y-113162500D02*
X153708334Y-113037501D01*
X153833333Y-115000000D02*
X153833333Y-113162500D01*
%TO.N,Q_col1_r2*%
X155883333Y-113240000D02*
X155883333Y-114950000D01*
X155883333Y-114950000D02*
X155833333Y-115000000D01*
%TO.N,col2_r1*%
X164500000Y-96000000D02*
X166500000Y-96000000D01*
X262000000Y-130000000D02*
X261750001Y-130249999D01*
X261750001Y-130249999D02*
X257832267Y-130249999D01*
X166375001Y-94037501D02*
X166375001Y-95875001D01*
X166375001Y-95875001D02*
X166500000Y-96000000D01*
%TO.N,Q_col2_r1*%
X168550000Y-94240000D02*
X168550000Y-95950000D01*
X168550000Y-95950000D02*
X168500000Y-96000000D01*
%TO.N,col4_r1*%
X204375001Y-95875001D02*
X204500000Y-96000000D01*
X261500000Y-128000000D02*
X260249999Y-129250001D01*
X262000000Y-128000000D02*
X261500000Y-128000000D01*
X260249999Y-129250001D02*
X257832267Y-129250001D01*
X202500000Y-96000000D02*
X204500000Y-96000000D01*
X204375001Y-94037501D02*
X204375001Y-95875001D01*
%TO.N,Q_col4_r1*%
X206550000Y-94240000D02*
X206550000Y-95950000D01*
X206550000Y-95950000D02*
X206500000Y-96000000D01*
%TO.N,col5_r1*%
X260113605Y-128749999D02*
X257832267Y-128749999D01*
X223375001Y-94037501D02*
X223375001Y-95875001D01*
X261863604Y-127000000D02*
X260113605Y-128749999D01*
X262000000Y-127000000D02*
X261863604Y-127000000D01*
X221500000Y-96000000D02*
X223500000Y-96000000D01*
X223375001Y-95875001D02*
X223500000Y-96000000D01*
%TO.N,Q_col5_r1*%
X225550000Y-95950000D02*
X225500000Y-96000000D01*
X225550000Y-94240000D02*
X225550000Y-95950000D01*
%TO.N,col3_r3*%
X200091667Y-135925000D02*
X242347792Y-135925000D01*
X242347792Y-135925000D02*
X246022793Y-132249999D01*
X198041668Y-132037501D02*
X198041668Y-133875001D01*
X198166667Y-134000000D02*
X200091667Y-135925000D01*
X198041668Y-133875001D02*
X198166667Y-134000000D01*
X246022793Y-132249999D02*
X249501067Y-132249999D01*
%TO.N,Q_col3_r3*%
X200216667Y-132240000D02*
X200216667Y-133950000D01*
X200216667Y-133950000D02*
X200166667Y-134000000D01*
%TO.N,col3_r5*%
X257832267Y-133250001D02*
X260613605Y-133250001D01*
X209000000Y-170162500D02*
X208875001Y-170037501D01*
X261050000Y-156479390D02*
X251029390Y-166500000D01*
X209000000Y-172000000D02*
X209000000Y-170162500D01*
X218132600Y-166500000D02*
X215470090Y-169162510D01*
X260613605Y-133250001D02*
X261050000Y-133686396D01*
X261050000Y-133686396D02*
X261050000Y-156479390D01*
X251029390Y-166500000D02*
X218132600Y-166500000D01*
X215470090Y-169162510D02*
X209749992Y-169162510D01*
X209749992Y-169162510D02*
X208875001Y-170037501D01*
%TO.N,Q_col3_r5*%
X211050000Y-170240000D02*
X211050000Y-171950000D01*
X211050000Y-171950000D02*
X211000000Y-172000000D01*
%TO.N,col3_r1*%
X261974695Y-129000000D02*
X261224694Y-129750001D01*
X261224694Y-129750001D02*
X257832267Y-129750001D01*
X185375001Y-94037501D02*
X185375001Y-95875001D01*
X183500000Y-96000000D02*
X185500000Y-96000000D01*
X185375001Y-95875001D02*
X185500000Y-96000000D01*
X262000000Y-129000000D02*
X261974695Y-129000000D01*
%TO.N,Q_col3_r1*%
X187550000Y-95950000D02*
X187500000Y-96000000D01*
X187550000Y-94240000D02*
X187550000Y-95950000D01*
%TO.N,col1_r3*%
X162991667Y-136825000D02*
X242720584Y-136825000D01*
X246295583Y-133250001D02*
X249501067Y-133250001D01*
X160166667Y-134000000D02*
X162991667Y-136825000D01*
X242720584Y-136825000D02*
X246295583Y-133250001D01*
X160041668Y-132037501D02*
X160041668Y-133875001D01*
X160041668Y-133875001D02*
X160166667Y-134000000D01*
%TO.N,Q_col1_r3*%
X162216667Y-132240000D02*
X162216667Y-133950000D01*
X162216667Y-133950000D02*
X162166667Y-134000000D01*
%TO.N,col0_r4*%
X176496204Y-146000000D02*
X177416300Y-145079904D01*
X137875001Y-151037501D02*
X139000002Y-149912500D01*
X177416300Y-145079904D02*
X250802810Y-145079904D01*
X144720100Y-149912500D02*
X148632600Y-146000000D01*
X250916667Y-144966047D02*
X250916667Y-135165600D01*
X148632600Y-146000000D02*
X176496204Y-146000000D01*
X138000000Y-153000000D02*
X138000000Y-151162500D01*
X250802810Y-145079904D02*
X250916667Y-144966047D01*
X139000002Y-149912500D02*
X144720100Y-149912500D01*
X138000000Y-151162500D02*
X137875001Y-151037501D01*
%TO.N,Q_col0_r4*%
X140050000Y-152950000D02*
X140000000Y-153000000D01*
X140050000Y-151240000D02*
X140050000Y-152950000D01*
%TO.N,col0_r2*%
X135166667Y-118500000D02*
X237500000Y-118500000D01*
X237500000Y-118500000D02*
X237500000Y-120473217D01*
X131666667Y-115000000D02*
X131666667Y-113162500D01*
X247776783Y-130750000D02*
X249501067Y-130750000D01*
X131666667Y-113162500D02*
X131541668Y-113037501D01*
X131666667Y-115000000D02*
X135166667Y-118500000D01*
X237500000Y-120473217D02*
X247776783Y-130750000D01*
%TO.N,Q_col0_r2*%
X133716667Y-114950000D02*
X133666667Y-115000000D01*
X133716667Y-113240000D02*
X133716667Y-114950000D01*
%TO.N,col1_r1*%
X145500000Y-96000000D02*
X147500000Y-96000000D01*
X261750000Y-130750000D02*
X257832267Y-130750000D01*
X147375001Y-94037501D02*
X147375001Y-95875001D01*
X147375001Y-95875001D02*
X147500000Y-96000000D01*
X262000000Y-131000000D02*
X261750000Y-130750000D01*
%TO.N,Q_col1_r1*%
X149550000Y-95950000D02*
X149500000Y-96000000D01*
X149550000Y-94240000D02*
X149550000Y-95950000D01*
%TO.N,col5_r2*%
X230858333Y-116025000D02*
X239975000Y-116025000D01*
X229708334Y-113037501D02*
X229708334Y-114875001D01*
X229833333Y-115000000D02*
X230858333Y-116025000D01*
X240000000Y-116000000D02*
X240000000Y-119063918D01*
X239975000Y-116025000D02*
X240000000Y-116000000D01*
X249186082Y-128250000D02*
X249501067Y-128250000D01*
X240000000Y-119063918D02*
X249186082Y-128250000D01*
X229708334Y-114875001D02*
X229833333Y-115000000D01*
%TO.N,Q_col5_r2*%
X231833333Y-115000000D02*
X231833333Y-113290000D01*
X231833333Y-113290000D02*
X231883333Y-113240000D01*
%TO.N,col3_r4*%
X210970090Y-150162510D02*
X205249992Y-150162510D01*
X205249992Y-150162510D02*
X204375001Y-151037501D01*
X252416668Y-145443140D02*
X251429904Y-146429904D01*
X214702696Y-146429904D02*
X210970090Y-150162510D01*
X204500000Y-153000000D02*
X204500000Y-151162500D01*
X252416668Y-135165600D02*
X252416668Y-145443140D01*
X204500000Y-151162500D02*
X204375001Y-151037501D01*
X251429904Y-146429904D02*
X214702696Y-146429904D01*
%TO.N,Q_col3_r4*%
X206550000Y-152950000D02*
X206500000Y-153000000D01*
X206550000Y-151240000D02*
X206550000Y-152950000D01*
%TO.N,col0_r5*%
X130749992Y-169162510D02*
X129875001Y-170037501D01*
X130000000Y-172000000D02*
X130000000Y-170162500D01*
X255916668Y-136344301D02*
X256572367Y-137000000D01*
X259550000Y-156070202D02*
X250470202Y-165150000D01*
X255916668Y-135165600D02*
X255916668Y-136344301D01*
X140482600Y-165150000D02*
X136470090Y-169162510D01*
X136470090Y-169162510D02*
X130749992Y-169162510D01*
X256572367Y-137000000D02*
X259550000Y-137000000D01*
X130000000Y-170162500D02*
X129875001Y-170037501D01*
X250470202Y-165150000D02*
X140482600Y-165150000D01*
X259550000Y-137000000D02*
X259550000Y-156070202D01*
%TO.N,Q_col0_r5*%
X132050000Y-171950000D02*
X132000000Y-172000000D01*
X132050000Y-170240000D02*
X132050000Y-171950000D01*
%TO.N,col4_r3*%
X218641667Y-135475000D02*
X242161396Y-135475000D01*
X217041668Y-132037501D02*
X217041668Y-133875001D01*
X245886395Y-131750001D02*
X249501067Y-131750001D01*
X217041668Y-133875001D02*
X217166667Y-134000000D01*
X242161396Y-135475000D02*
X245886395Y-131750001D01*
X217166667Y-134000000D02*
X218641667Y-135475000D01*
%TO.N,Q_col4_r3*%
X219216667Y-133950000D02*
X219166667Y-134000000D01*
X219216667Y-132240000D02*
X219216667Y-133950000D01*
%TO.N,col2_r3*%
X242534188Y-136375000D02*
X246159189Y-132749999D01*
X179041668Y-133875001D02*
X179166667Y-134000000D01*
X246159189Y-132749999D02*
X249501067Y-132749999D01*
X179041668Y-132037501D02*
X179041668Y-133875001D01*
X179166667Y-134000000D02*
X181541667Y-136375000D01*
X181541667Y-136375000D02*
X242534188Y-136375000D01*
%TO.N,Q_col2_r3*%
X181166667Y-134000000D02*
X181166667Y-132290000D01*
X181166667Y-132290000D02*
X181216667Y-132240000D01*
%TO.N,col4_r5*%
X242375001Y-170037501D02*
X242375001Y-171875001D01*
X261500000Y-133500000D02*
X261500000Y-156665786D01*
X243249992Y-169162510D02*
X242375001Y-170037501D01*
X260749999Y-132749999D02*
X261500000Y-133500000D01*
X249003276Y-169162510D02*
X243249992Y-169162510D01*
X257832267Y-132749999D02*
X260749999Y-132749999D01*
X242375001Y-171875001D02*
X242500000Y-172000000D01*
X261500000Y-156665786D02*
X249003276Y-169162510D01*
%TO.N,Q_col4_r5*%
X244550000Y-170240000D02*
X244550000Y-171950000D01*
X244550000Y-171950000D02*
X244500000Y-172000000D01*
%TO.N,col1_r5*%
X258665600Y-135165600D02*
X260000000Y-136500000D01*
X256416667Y-135165600D02*
X258665600Y-135165600D01*
X260000000Y-156256598D02*
X250656598Y-165600000D01*
X183029390Y-166000000D02*
X172474695Y-166000000D01*
X168474695Y-170000000D02*
X159557602Y-170000000D01*
X260000000Y-136500000D02*
X260000000Y-156256598D01*
X250656598Y-165600000D02*
X183429390Y-165600000D01*
X159557602Y-170000000D02*
X158720112Y-169162510D01*
X183429390Y-165600000D02*
X183029390Y-166000000D01*
X158720112Y-169162510D02*
X152749992Y-169162510D01*
X151875001Y-171875001D02*
X152000000Y-172000000D01*
X151875001Y-170037501D02*
X151875001Y-171875001D01*
X152749992Y-169162510D02*
X151875001Y-170037501D01*
X172474695Y-166000000D02*
X168474695Y-170000000D01*
%TO.N,Q_col1_r5*%
X154000000Y-172000000D02*
X154000000Y-170290000D01*
X154000000Y-170290000D02*
X154050000Y-170240000D01*
%TO.N,col0_r1*%
X128375001Y-95875001D02*
X128500000Y-96000000D01*
X259760966Y-132000000D02*
X259010966Y-131250000D01*
X262000000Y-132000000D02*
X259760966Y-132000000D01*
X259010966Y-131250000D02*
X257832267Y-131250000D01*
X128375001Y-94037501D02*
X128375001Y-95875001D01*
X126500000Y-96000000D02*
X128500000Y-96000000D01*
%TO.N,Q_col0_r1*%
X130550000Y-95950000D02*
X130500000Y-96000000D01*
X130550000Y-94240000D02*
X130550000Y-95950000D01*
%TO.N,col4_r4*%
X254916666Y-143579538D02*
X254916666Y-135165600D01*
X223500000Y-153000000D02*
X223500000Y-151162500D01*
X223375001Y-151037501D02*
X224249992Y-150162510D01*
X223500000Y-151162500D02*
X223375001Y-151037501D01*
X251496204Y-147000000D02*
X254916666Y-143579538D01*
X230003276Y-150162510D02*
X233165786Y-147000000D01*
X233165786Y-147000000D02*
X251496204Y-147000000D01*
X224249992Y-150162510D02*
X230003276Y-150162510D01*
%TO.N,Q_col4_r4*%
X225550000Y-152950000D02*
X225500000Y-153000000D01*
X225550000Y-151240000D02*
X225550000Y-152950000D01*
%TO.N,col5_r4*%
X243500002Y-149912500D02*
X249220100Y-149912500D01*
X255416666Y-143715934D02*
X255416666Y-135165600D01*
X242375001Y-152875001D02*
X242500000Y-153000000D01*
X242375001Y-151037501D02*
X243500002Y-149912500D01*
X249220100Y-149912500D02*
X255416666Y-143715934D01*
X242375001Y-151037501D02*
X242375001Y-152875001D01*
%TO.N,Q_col5_r4*%
X244550000Y-151240000D02*
X244550000Y-152950000D01*
X244550000Y-152950000D02*
X244500000Y-153000000D01*
%TO.N,col1_r4*%
X177602696Y-145529904D02*
X251057112Y-145529904D01*
X166375001Y-151037501D02*
X167500002Y-149912500D01*
X251416666Y-145170350D02*
X251416666Y-135165600D01*
X166500000Y-151162500D02*
X166375001Y-151037501D01*
X166500000Y-153000000D02*
X166500000Y-151162500D01*
X251057112Y-145529904D02*
X251416666Y-145170350D01*
X167500002Y-149912500D02*
X173220100Y-149912500D01*
X173220100Y-149912500D02*
X177602696Y-145529904D01*
%TO.N,Q_col1_r4*%
X168550000Y-151240000D02*
X168550000Y-152950000D01*
X168550000Y-152950000D02*
X168500000Y-153000000D01*
%TD*%
M02*
