%TF.GenerationSoftware,KiCad,Pcbnew,10.0.4*%
%TF.CreationDate,2026-07-05T16:32:57+02:00*%
%TF.ProjectId,KB-Michka-30HE,4b422d4d-6963-4686-9b61-2d333048452e,v1.0.0*%
%TF.SameCoordinates,Original*%
%TF.FileFunction,Copper,L1,Top*%
%TF.FilePolarity,Positive*%
%FSLAX46Y46*%
G04 Gerber Fmt 4.6, Leading zero omitted, Abs format (unit mm)*
G04 Created by KiCad (PCBNEW 10.0.4) date 2026-07-05 16:32:57*
%MOMM*%
%LPD*%
G01*
G04 APERTURE LIST*
%TA.AperFunction,ComponentPad*%
%ADD10C,0.700000*%
%TD*%
%TA.AperFunction,ComponentPad*%
%ADD11C,4.400000*%
%TD*%
%TA.AperFunction,ComponentPad*%
%ADD12C,1.524000*%
%TD*%
%TA.AperFunction,ViaPad*%
%ADD13C,0.800000*%
%TD*%
%TA.AperFunction,Conductor*%
%ADD14C,0.250000*%
%TD*%
G04 APERTURE END LIST*
D10*
%TO.P,_3,1*%
%TO.N,N/C*%
X233850000Y-161000000D03*
X234333274Y-159833274D03*
X234333274Y-162166726D03*
X235500000Y-159350000D03*
D11*
X235500000Y-161000000D03*
D10*
X235500000Y-162650000D03*
X236666726Y-159833274D03*
X236666726Y-162166726D03*
X237150000Y-161000000D03*
%TD*%
D12*
%TO.P,REF\u002A\u002A,0*%
%TO.N,MUX_A4*%
X262453333Y-119660000D03*
%TO.P,REF\u002A\u002A,1*%
%TO.N,MUX_A3*%
X259913333Y-119660000D03*
%TO.P,REF\u002A\u002A,2*%
%TO.N,MUX_A2*%
X257373333Y-119660000D03*
%TO.P,REF\u002A\u002A,3*%
%TO.N,MUX_A1*%
X254833333Y-119660000D03*
%TO.P,REF\u002A\u002A,4*%
%TO.N,MUX_A0*%
X252293333Y-119660000D03*
%TO.P,REF\u002A\u002A,5*%
%TO.N,N/C*%
X249753333Y-119660000D03*
%TO.P,REF\u002A\u002A,6*%
X247213333Y-119660000D03*
%TO.P,REF\u002A\u002A,7*%
X244673333Y-119660000D03*
%TO.P,REF\u002A\u002A,8*%
X242133333Y-119660000D03*
%TO.P,REF\u002A\u002A,9*%
X242133333Y-117120000D03*
%TO.P,REF\u002A\u002A,10*%
X242133333Y-114580000D03*
%TO.P,REF\u002A\u002A,11*%
X242133333Y-112040000D03*
%TO.P,REF\u002A\u002A,12*%
X242133333Y-109500000D03*
%TO.P,REF\u002A\u002A,13*%
X242133333Y-106960000D03*
%TO.P,REF\u002A\u002A,14*%
X242133333Y-104420000D03*
%TO.P,REF\u002A\u002A,15*%
X244673333Y-104420000D03*
%TO.P,REF\u002A\u002A,26*%
X247213333Y-104420000D03*
%TO.P,REF\u002A\u002A,27*%
%TO.N,AIN1*%
X249753333Y-104420000D03*
%TO.P,REF\u002A\u002A,28*%
%TO.N,N/C*%
X252293333Y-104420000D03*
%TO.P,REF\u002A\u002A,29*%
X254833333Y-104420000D03*
%TO.P,REF\u002A\u002A,30*%
%TO.N,VCC*%
X257373333Y-104420000D03*
%TO.P,REF\u002A\u002A,31*%
%TO.N,GND*%
X259913333Y-104420000D03*
%TO.P,REF\u002A\u002A,32*%
%TO.N,N/C*%
X262453333Y-104420000D03*
%TD*%
D10*
%TO.P,_1,1*%
%TO.N,N/C*%
X143850000Y-104000000D03*
X144333274Y-102833274D03*
X144333274Y-105166726D03*
X145500000Y-102350000D03*
D11*
X145500000Y-104000000D03*
D10*
X145500000Y-105650000D03*
X146666726Y-102833274D03*
X146666726Y-105166726D03*
X147150000Y-104000000D03*
%TD*%
%TO.P,_4,1*%
%TO.N,N/C*%
X153350000Y-150000000D03*
X153833274Y-148833274D03*
X153833274Y-151166726D03*
X155000000Y-148350000D03*
D11*
X155000000Y-150000000D03*
D10*
X155000000Y-151650000D03*
X156166726Y-148833274D03*
X156166726Y-151166726D03*
X156650000Y-150000000D03*
%TD*%
%TO.P,_5,1*%
%TO.N,N/C*%
X190183333Y-122000000D03*
X190666607Y-120833274D03*
X190666607Y-123166726D03*
X191833333Y-120350000D03*
D11*
X191833333Y-122000000D03*
D10*
X191833333Y-123650000D03*
X193000059Y-120833274D03*
X193000059Y-123166726D03*
X193483333Y-122000000D03*
%TD*%
%TO.P,_2,1*%
%TO.N,N/C*%
X234350000Y-102000000D03*
X234833274Y-100833274D03*
X234833274Y-103166726D03*
X236000000Y-100350000D03*
D11*
X236000000Y-102000000D03*
D10*
X236000000Y-103650000D03*
X237166726Y-100833274D03*
X237166726Y-103166726D03*
X237650000Y-102000000D03*
%TD*%
D13*
%TO.N,AIN1*%
X253000000Y-133000000D03*
%TO.N,GND*%
X145500000Y-91500000D03*
X240500000Y-91500000D03*
X202500000Y-148500000D03*
X172000000Y-167500000D03*
X240500000Y-167500000D03*
X183500000Y-148500000D03*
X171000000Y-110500000D03*
X164500000Y-91500000D03*
X164500000Y-148500000D03*
X215000000Y-129500000D03*
X207000000Y-167500000D03*
X183500000Y-91500000D03*
X240500000Y-148500000D03*
X221500000Y-91500000D03*
X152000000Y-110500000D03*
X132500000Y-129500000D03*
X196000000Y-129500000D03*
X234000000Y-129500000D03*
X190000000Y-110500000D03*
X129500000Y-110500000D03*
X228000000Y-110500000D03*
X209000000Y-110500000D03*
X177000000Y-129500000D03*
X128000000Y-167500000D03*
X136000000Y-148500000D03*
X126000000Y-91500000D03*
X158000000Y-129500000D03*
X221500000Y-148500000D03*
X150000000Y-167500000D03*
X202500000Y-91500000D03*
%TO.N,col6_r1*%
X262000000Y-126000000D03*
X240500000Y-96000000D03*
%TO.N,col2_r1*%
X164500000Y-96000000D03*
X262000000Y-130000000D03*
%TO.N,col4_r1*%
X202500000Y-96000000D03*
X262000000Y-128000000D03*
%TO.N,col5_r1*%
X262000000Y-127000000D03*
X221500000Y-96000000D03*
%TO.N,col3_r1*%
X262000000Y-129000000D03*
X183500000Y-96000000D03*
%TO.N,col1_r1*%
X145500000Y-96000000D03*
X262000000Y-131000000D03*
%TO.N,col0_r1*%
X262000000Y-132000000D03*
X126500000Y-96000000D03*
%TD*%
%TO.N,AIN1*%
D14*
X258826333Y-120110251D02*
X258826333Y-115826333D01*
X262725000Y-132300305D02*
X262725000Y-124008918D01*
X262025305Y-133000000D02*
X262725000Y-132300305D01*
X249753333Y-104420000D02*
X249753333Y-106753333D01*
X262725000Y-124008918D02*
X258826333Y-120110251D01*
X253000000Y-133000000D02*
X262025305Y-133000000D01*
X258826333Y-115826333D02*
X250000000Y-107000000D01*
X249753333Y-106753333D02*
X250000000Y-107000000D01*
%TO.N,GND*%
X129500000Y-110500000D02*
X125000000Y-115000000D01*
X125420000Y-106420000D02*
X129500000Y-110500000D01*
X126000000Y-91500000D02*
X125420000Y-92080000D01*
X145500000Y-91500000D02*
X240500000Y-91500000D01*
X126000000Y-91500000D02*
X145500000Y-91500000D01*
X177000000Y-129500000D02*
X132500000Y-129500000D01*
X137025000Y-147475000D02*
X163475000Y-147475000D01*
X163475000Y-147475000D02*
X164500000Y-148500000D01*
X125000000Y-115000000D02*
X125000000Y-122000000D01*
X228000000Y-110500000D02*
X129500000Y-110500000D01*
X128000000Y-156500000D02*
X128000000Y-167500000D01*
X136000000Y-148500000D02*
X128000000Y-156500000D01*
X131753333Y-144253333D02*
X136000000Y-148500000D01*
X234000000Y-129500000D02*
X177000000Y-129500000D01*
X132500000Y-129500000D02*
X131753333Y-130246667D01*
X164500000Y-148500000D02*
X240500000Y-148500000D01*
X125420000Y-92080000D02*
X125420000Y-106420000D01*
X125000000Y-122000000D02*
X132500000Y-129500000D01*
X240500000Y-167500000D02*
X128000000Y-167500000D01*
X136000000Y-148500000D02*
X137025000Y-147475000D01*
X131753333Y-130246667D02*
X131753333Y-144253333D01*
%TO.N,col6_r1*%
X240500000Y-120500000D02*
X248000000Y-128000000D01*
X259974695Y-128000000D02*
X261974695Y-126000000D01*
X261974695Y-126000000D02*
X262000000Y-126000000D01*
X248000000Y-128000000D02*
X259974695Y-128000000D01*
X240500000Y-96000000D02*
X240500000Y-120500000D01*
%TO.N,col2_r1*%
X236681802Y-109318198D02*
X227181802Y-99818198D01*
X262000000Y-130000000D02*
X246727208Y-130000000D01*
X236681802Y-119954594D02*
X236681802Y-109318198D01*
X227181802Y-99818198D02*
X168318198Y-99818198D01*
X246727208Y-130000000D02*
X236681802Y-119954594D01*
X168318198Y-99818198D02*
X164500000Y-96000000D01*
%TO.N,col4_r1*%
X246900000Y-128900000D02*
X239550000Y-121550000D01*
X261074695Y-128900000D02*
X246900000Y-128900000D01*
X227363604Y-98000000D02*
X204500000Y-98000000D01*
X261974695Y-128000000D02*
X261074695Y-128900000D01*
X239550000Y-110186396D02*
X227363604Y-98000000D01*
X239550000Y-121550000D02*
X239550000Y-110186396D01*
X204500000Y-98000000D02*
X202500000Y-96000000D01*
X262000000Y-128000000D02*
X261974695Y-128000000D01*
%TO.N,col5_r1*%
X221500000Y-96000000D02*
X226000000Y-96000000D01*
X226000000Y-96000000D02*
X240000000Y-110000000D01*
X260524695Y-128450000D02*
X261974695Y-127000000D01*
X240000000Y-120636396D02*
X247813604Y-128450000D01*
X247813604Y-128450000D02*
X260524695Y-128450000D01*
X240000000Y-110000000D02*
X240000000Y-120636396D01*
X261974695Y-127000000D02*
X262000000Y-127000000D01*
%TO.N,col3_r1*%
X183500000Y-96000000D02*
X186500000Y-99000000D01*
X246713604Y-129350000D02*
X261650000Y-129350000D01*
X261650000Y-129350000D02*
X262000000Y-129000000D01*
X239100000Y-111100000D02*
X239100000Y-121736396D01*
X186500000Y-99000000D02*
X227000000Y-99000000D01*
X239100000Y-121736396D02*
X246713604Y-129350000D01*
X227000000Y-99000000D02*
X239100000Y-111100000D01*
%TO.N,col1_r1*%
X227000000Y-101000000D02*
X236231802Y-110231802D01*
X236231802Y-120140990D02*
X247090812Y-131000000D01*
X247090812Y-131000000D02*
X262000000Y-131000000D01*
X145500000Y-96000000D02*
X150500000Y-101000000D01*
X150500000Y-101000000D02*
X227000000Y-101000000D01*
X236231802Y-110231802D02*
X236231802Y-120140990D01*
%TO.N,col0_r1*%
X235781802Y-120327386D02*
X235781802Y-110418198D01*
X226813604Y-101450000D02*
X131950000Y-101450000D01*
X262000000Y-132000000D02*
X247454416Y-132000000D01*
X235781802Y-110418198D02*
X226813604Y-101450000D01*
X247454416Y-132000000D02*
X235781802Y-120327386D01*
X131950000Y-101450000D02*
X126500000Y-96000000D01*
%TD*%
%TA.AperFunction,Conductor*%
%TO.N,GND*%
G36*
X230943039Y-107019685D02*
G01*
X230988794Y-107072489D01*
X231000000Y-107124000D01*
X231000000Y-122000000D01*
X253963681Y-144963681D01*
X253997166Y-145025004D01*
X254000000Y-145051362D01*
X254000000Y-175876000D01*
X253980315Y-175943039D01*
X253927511Y-175988794D01*
X253876000Y-176000000D01*
X124124000Y-176000000D01*
X124056961Y-175980315D01*
X124011206Y-175927511D01*
X124000000Y-175876000D01*
X124000000Y-168913766D01*
X127044500Y-168913766D01*
X127044500Y-169086233D01*
X127078143Y-169255366D01*
X127078146Y-169255378D01*
X127144138Y-169414698D01*
X127144145Y-169414711D01*
X127239954Y-169558098D01*
X127239957Y-169558102D01*
X127361897Y-169680042D01*
X127361901Y-169680045D01*
X127505288Y-169775854D01*
X127505301Y-169775861D01*
X127664621Y-169841853D01*
X127664626Y-169841855D01*
X127833766Y-169875499D01*
X127833769Y-169875500D01*
X127833771Y-169875500D01*
X128006231Y-169875500D01*
X128006232Y-169875499D01*
X128175374Y-169841855D01*
X128334705Y-169775858D01*
X128478099Y-169680045D01*
X128600045Y-169558099D01*
X128695858Y-169414705D01*
X128761855Y-169255374D01*
X128795500Y-169086229D01*
X128795500Y-168913771D01*
X128795500Y-168913768D01*
X128795499Y-168913766D01*
X137204500Y-168913766D01*
X137204500Y-169086233D01*
X137238143Y-169255366D01*
X137238146Y-169255378D01*
X137304138Y-169414698D01*
X137304145Y-169414711D01*
X137399954Y-169558098D01*
X137399957Y-169558102D01*
X137521897Y-169680042D01*
X137521901Y-169680045D01*
X137665288Y-169775854D01*
X137665301Y-169775861D01*
X137824621Y-169841853D01*
X137824626Y-169841855D01*
X137993766Y-169875499D01*
X137993769Y-169875500D01*
X137993771Y-169875500D01*
X138166231Y-169875500D01*
X138166232Y-169875499D01*
X138335374Y-169841855D01*
X138494705Y-169775858D01*
X138638099Y-169680045D01*
X138760045Y-169558099D01*
X138855858Y-169414705D01*
X138921855Y-169255374D01*
X138955500Y-169086229D01*
X138955500Y-168913771D01*
X138955500Y-168913768D01*
X138955499Y-168913766D01*
X149044500Y-168913766D01*
X149044500Y-169086233D01*
X149078143Y-169255366D01*
X149078146Y-169255378D01*
X149144138Y-169414698D01*
X149144145Y-169414711D01*
X149239954Y-169558098D01*
X149239957Y-169558102D01*
X149361897Y-169680042D01*
X149361901Y-169680045D01*
X149505288Y-169775854D01*
X149505301Y-169775861D01*
X149664621Y-169841853D01*
X149664626Y-169841855D01*
X149833766Y-169875499D01*
X149833769Y-169875500D01*
X149833771Y-169875500D01*
X150006231Y-169875500D01*
X150006232Y-169875499D01*
X150175374Y-169841855D01*
X150334705Y-169775858D01*
X150478099Y-169680045D01*
X150600045Y-169558099D01*
X150695858Y-169414705D01*
X150761855Y-169255374D01*
X150795500Y-169086229D01*
X150795500Y-168913771D01*
X150795500Y-168913768D01*
X150795499Y-168913766D01*
X159204500Y-168913766D01*
X159204500Y-169086233D01*
X159238143Y-169255366D01*
X159238146Y-169255378D01*
X159304138Y-169414698D01*
X159304145Y-169414711D01*
X159399954Y-169558098D01*
X159399957Y-169558102D01*
X159521897Y-169680042D01*
X159521901Y-169680045D01*
X159665288Y-169775854D01*
X159665301Y-169775861D01*
X159824621Y-169841853D01*
X159824626Y-169841855D01*
X159993766Y-169875499D01*
X159993769Y-169875500D01*
X159993771Y-169875500D01*
X160166231Y-169875500D01*
X160166232Y-169875499D01*
X160335374Y-169841855D01*
X160494705Y-169775858D01*
X160638099Y-169680045D01*
X160760045Y-169558099D01*
X160855858Y-169414705D01*
X160921855Y-169255374D01*
X160955500Y-169086229D01*
X160955500Y-168913771D01*
X160955500Y-168913768D01*
X160955499Y-168913766D01*
X171044500Y-168913766D01*
X171044500Y-169086233D01*
X171078143Y-169255366D01*
X171078146Y-169255378D01*
X171144138Y-169414698D01*
X171144145Y-169414711D01*
X171239954Y-169558098D01*
X171239957Y-169558102D01*
X171361897Y-169680042D01*
X171361901Y-169680045D01*
X171505288Y-169775854D01*
X171505301Y-169775861D01*
X171664621Y-169841853D01*
X171664626Y-169841855D01*
X171833766Y-169875499D01*
X171833769Y-169875500D01*
X171833771Y-169875500D01*
X172006231Y-169875500D01*
X172006232Y-169875499D01*
X172175374Y-169841855D01*
X172334705Y-169775858D01*
X172478099Y-169680045D01*
X172600045Y-169558099D01*
X172695858Y-169414705D01*
X172761855Y-169255374D01*
X172795500Y-169086229D01*
X172795500Y-168913771D01*
X172795500Y-168913768D01*
X172795499Y-168913766D01*
X181204500Y-168913766D01*
X181204500Y-169086233D01*
X181238143Y-169255366D01*
X181238146Y-169255378D01*
X181304138Y-169414698D01*
X181304145Y-169414711D01*
X181399954Y-169558098D01*
X181399957Y-169558102D01*
X181521897Y-169680042D01*
X181521901Y-169680045D01*
X181665288Y-169775854D01*
X181665301Y-169775861D01*
X181824621Y-169841853D01*
X181824626Y-169841855D01*
X181993766Y-169875499D01*
X181993769Y-169875500D01*
X181993771Y-169875500D01*
X182166231Y-169875500D01*
X182166232Y-169875499D01*
X182335374Y-169841855D01*
X182494705Y-169775858D01*
X182638099Y-169680045D01*
X182760045Y-169558099D01*
X182855858Y-169414705D01*
X182921855Y-169255374D01*
X182955500Y-169086229D01*
X182955500Y-168913771D01*
X182955500Y-168913768D01*
X182955499Y-168913766D01*
X206044500Y-168913766D01*
X206044500Y-169086233D01*
X206078143Y-169255366D01*
X206078146Y-169255378D01*
X206144138Y-169414698D01*
X206144145Y-169414711D01*
X206239954Y-169558098D01*
X206239957Y-169558102D01*
X206361897Y-169680042D01*
X206361901Y-169680045D01*
X206505288Y-169775854D01*
X206505301Y-169775861D01*
X206664621Y-169841853D01*
X206664626Y-169841855D01*
X206833766Y-169875499D01*
X206833769Y-169875500D01*
X206833771Y-169875500D01*
X207006231Y-169875500D01*
X207006232Y-169875499D01*
X207175374Y-169841855D01*
X207334705Y-169775858D01*
X207478099Y-169680045D01*
X207600045Y-169558099D01*
X207695858Y-169414705D01*
X207761855Y-169255374D01*
X207795500Y-169086229D01*
X207795500Y-168913771D01*
X207795500Y-168913768D01*
X207795499Y-168913766D01*
X216204500Y-168913766D01*
X216204500Y-169086233D01*
X216238143Y-169255366D01*
X216238146Y-169255378D01*
X216304138Y-169414698D01*
X216304145Y-169414711D01*
X216399954Y-169558098D01*
X216399957Y-169558102D01*
X216521897Y-169680042D01*
X216521901Y-169680045D01*
X216665288Y-169775854D01*
X216665301Y-169775861D01*
X216824621Y-169841853D01*
X216824626Y-169841855D01*
X216993766Y-169875499D01*
X216993769Y-169875500D01*
X216993771Y-169875500D01*
X217166231Y-169875500D01*
X217166232Y-169875499D01*
X217335374Y-169841855D01*
X217494705Y-169775858D01*
X217638099Y-169680045D01*
X217760045Y-169558099D01*
X217855858Y-169414705D01*
X217921855Y-169255374D01*
X217955500Y-169086229D01*
X217955500Y-168913771D01*
X217955500Y-168913768D01*
X217955499Y-168913766D01*
X239544500Y-168913766D01*
X239544500Y-169086233D01*
X239578143Y-169255366D01*
X239578146Y-169255378D01*
X239644138Y-169414698D01*
X239644145Y-169414711D01*
X239739954Y-169558098D01*
X239739957Y-169558102D01*
X239861897Y-169680042D01*
X239861901Y-169680045D01*
X240005288Y-169775854D01*
X240005301Y-169775861D01*
X240164621Y-169841853D01*
X240164626Y-169841855D01*
X240333766Y-169875499D01*
X240333769Y-169875500D01*
X240333771Y-169875500D01*
X240506231Y-169875500D01*
X240506232Y-169875499D01*
X240675374Y-169841855D01*
X240834705Y-169775858D01*
X240978099Y-169680045D01*
X241100045Y-169558099D01*
X241195858Y-169414705D01*
X241261855Y-169255374D01*
X241295500Y-169086229D01*
X241295500Y-168913771D01*
X241295500Y-168913768D01*
X241295499Y-168913766D01*
X249704500Y-168913766D01*
X249704500Y-169086233D01*
X249738143Y-169255366D01*
X249738146Y-169255378D01*
X249804138Y-169414698D01*
X249804145Y-169414711D01*
X249899954Y-169558098D01*
X249899957Y-169558102D01*
X250021897Y-169680042D01*
X250021901Y-169680045D01*
X250165288Y-169775854D01*
X250165301Y-169775861D01*
X250324621Y-169841853D01*
X250324626Y-169841855D01*
X250493766Y-169875499D01*
X250493769Y-169875500D01*
X250493771Y-169875500D01*
X250666231Y-169875500D01*
X250666232Y-169875499D01*
X250835374Y-169841855D01*
X250994705Y-169775858D01*
X251138099Y-169680045D01*
X251260045Y-169558099D01*
X251355858Y-169414705D01*
X251421855Y-169255374D01*
X251455500Y-169086229D01*
X251455500Y-168913771D01*
X251455500Y-168913768D01*
X251455499Y-168913766D01*
X251421855Y-168744626D01*
X251421853Y-168744621D01*
X251355861Y-168585301D01*
X251355854Y-168585288D01*
X251260045Y-168441901D01*
X251260042Y-168441897D01*
X251138102Y-168319957D01*
X251138098Y-168319954D01*
X250994711Y-168224145D01*
X250994698Y-168224138D01*
X250835378Y-168158146D01*
X250835366Y-168158143D01*
X250666232Y-168124500D01*
X250666229Y-168124500D01*
X250493771Y-168124500D01*
X250493768Y-168124500D01*
X250324633Y-168158143D01*
X250324621Y-168158146D01*
X250165301Y-168224138D01*
X250165288Y-168224145D01*
X250021901Y-168319954D01*
X250021897Y-168319957D01*
X249899957Y-168441897D01*
X249899954Y-168441901D01*
X249804145Y-168585288D01*
X249804138Y-168585301D01*
X249738146Y-168744621D01*
X249738143Y-168744633D01*
X249704500Y-168913766D01*
X241295499Y-168913766D01*
X241261855Y-168744626D01*
X241261853Y-168744621D01*
X241195861Y-168585301D01*
X241195854Y-168585288D01*
X241100045Y-168441901D01*
X241100042Y-168441897D01*
X240978102Y-168319957D01*
X240978098Y-168319954D01*
X240834711Y-168224145D01*
X240834698Y-168224138D01*
X240675378Y-168158146D01*
X240675366Y-168158143D01*
X240506232Y-168124500D01*
X240506229Y-168124500D01*
X240333771Y-168124500D01*
X240333768Y-168124500D01*
X240164633Y-168158143D01*
X240164621Y-168158146D01*
X240005301Y-168224138D01*
X240005288Y-168224145D01*
X239861901Y-168319954D01*
X239861897Y-168319957D01*
X239739957Y-168441897D01*
X239739954Y-168441901D01*
X239644145Y-168585288D01*
X239644138Y-168585301D01*
X239578146Y-168744621D01*
X239578143Y-168744633D01*
X239544500Y-168913766D01*
X217955499Y-168913766D01*
X217921855Y-168744626D01*
X217921853Y-168744621D01*
X217855861Y-168585301D01*
X217855854Y-168585288D01*
X217760045Y-168441901D01*
X217760042Y-168441897D01*
X217638102Y-168319957D01*
X217638098Y-168319954D01*
X217494711Y-168224145D01*
X217494698Y-168224138D01*
X217335378Y-168158146D01*
X217335366Y-168158143D01*
X217166232Y-168124500D01*
X217166229Y-168124500D01*
X216993771Y-168124500D01*
X216993768Y-168124500D01*
X216824633Y-168158143D01*
X216824621Y-168158146D01*
X216665301Y-168224138D01*
X216665288Y-168224145D01*
X216521901Y-168319954D01*
X216521897Y-168319957D01*
X216399957Y-168441897D01*
X216399954Y-168441901D01*
X216304145Y-168585288D01*
X216304138Y-168585301D01*
X216238146Y-168744621D01*
X216238143Y-168744633D01*
X216204500Y-168913766D01*
X207795499Y-168913766D01*
X207761855Y-168744626D01*
X207761853Y-168744621D01*
X207695861Y-168585301D01*
X207695854Y-168585288D01*
X207600045Y-168441901D01*
X207600042Y-168441897D01*
X207478102Y-168319957D01*
X207478098Y-168319954D01*
X207334711Y-168224145D01*
X207334698Y-168224138D01*
X207175378Y-168158146D01*
X207175366Y-168158143D01*
X207006232Y-168124500D01*
X207006229Y-168124500D01*
X206833771Y-168124500D01*
X206833768Y-168124500D01*
X206664633Y-168158143D01*
X206664621Y-168158146D01*
X206505301Y-168224138D01*
X206505288Y-168224145D01*
X206361901Y-168319954D01*
X206361897Y-168319957D01*
X206239957Y-168441897D01*
X206239954Y-168441901D01*
X206144145Y-168585288D01*
X206144138Y-168585301D01*
X206078146Y-168744621D01*
X206078143Y-168744633D01*
X206044500Y-168913766D01*
X182955499Y-168913766D01*
X182921855Y-168744626D01*
X182921853Y-168744621D01*
X182855861Y-168585301D01*
X182855854Y-168585288D01*
X182760045Y-168441901D01*
X182760042Y-168441897D01*
X182638102Y-168319957D01*
X182638098Y-168319954D01*
X182494711Y-168224145D01*
X182494698Y-168224138D01*
X182335378Y-168158146D01*
X182335366Y-168158143D01*
X182166232Y-168124500D01*
X182166229Y-168124500D01*
X181993771Y-168124500D01*
X181993768Y-168124500D01*
X181824633Y-168158143D01*
X181824621Y-168158146D01*
X181665301Y-168224138D01*
X181665288Y-168224145D01*
X181521901Y-168319954D01*
X181521897Y-168319957D01*
X181399957Y-168441897D01*
X181399954Y-168441901D01*
X181304145Y-168585288D01*
X181304138Y-168585301D01*
X181238146Y-168744621D01*
X181238143Y-168744633D01*
X181204500Y-168913766D01*
X172795499Y-168913766D01*
X172761855Y-168744626D01*
X172761853Y-168744621D01*
X172695861Y-168585301D01*
X172695854Y-168585288D01*
X172600045Y-168441901D01*
X172600042Y-168441897D01*
X172478102Y-168319957D01*
X172478098Y-168319954D01*
X172334711Y-168224145D01*
X172334698Y-168224138D01*
X172175378Y-168158146D01*
X172175366Y-168158143D01*
X172006232Y-168124500D01*
X172006229Y-168124500D01*
X171833771Y-168124500D01*
X171833768Y-168124500D01*
X171664633Y-168158143D01*
X171664621Y-168158146D01*
X171505301Y-168224138D01*
X171505288Y-168224145D01*
X171361901Y-168319954D01*
X171361897Y-168319957D01*
X171239957Y-168441897D01*
X171239954Y-168441901D01*
X171144145Y-168585288D01*
X171144138Y-168585301D01*
X171078146Y-168744621D01*
X171078143Y-168744633D01*
X171044500Y-168913766D01*
X160955499Y-168913766D01*
X160921855Y-168744626D01*
X160921853Y-168744621D01*
X160855861Y-168585301D01*
X160855854Y-168585288D01*
X160760045Y-168441901D01*
X160760042Y-168441897D01*
X160638102Y-168319957D01*
X160638098Y-168319954D01*
X160494711Y-168224145D01*
X160494698Y-168224138D01*
X160335378Y-168158146D01*
X160335366Y-168158143D01*
X160166232Y-168124500D01*
X160166229Y-168124500D01*
X159993771Y-168124500D01*
X159993768Y-168124500D01*
X159824633Y-168158143D01*
X159824621Y-168158146D01*
X159665301Y-168224138D01*
X159665288Y-168224145D01*
X159521901Y-168319954D01*
X159521897Y-168319957D01*
X159399957Y-168441897D01*
X159399954Y-168441901D01*
X159304145Y-168585288D01*
X159304138Y-168585301D01*
X159238146Y-168744621D01*
X159238143Y-168744633D01*
X159204500Y-168913766D01*
X150795499Y-168913766D01*
X150761855Y-168744626D01*
X150761853Y-168744621D01*
X150695861Y-168585301D01*
X150695854Y-168585288D01*
X150600045Y-168441901D01*
X150600042Y-168441897D01*
X150478102Y-168319957D01*
X150478098Y-168319954D01*
X150334711Y-168224145D01*
X150334698Y-168224138D01*
X150175378Y-168158146D01*
X150175366Y-168158143D01*
X150006232Y-168124500D01*
X150006229Y-168124500D01*
X149833771Y-168124500D01*
X149833768Y-168124500D01*
X149664633Y-168158143D01*
X149664621Y-168158146D01*
X149505301Y-168224138D01*
X149505288Y-168224145D01*
X149361901Y-168319954D01*
X149361897Y-168319957D01*
X149239957Y-168441897D01*
X149239954Y-168441901D01*
X149144145Y-168585288D01*
X149144138Y-168585301D01*
X149078146Y-168744621D01*
X149078143Y-168744633D01*
X149044500Y-168913766D01*
X138955499Y-168913766D01*
X138921855Y-168744626D01*
X138921853Y-168744621D01*
X138855861Y-168585301D01*
X138855854Y-168585288D01*
X138760045Y-168441901D01*
X138760042Y-168441897D01*
X138638102Y-168319957D01*
X138638098Y-168319954D01*
X138494711Y-168224145D01*
X138494698Y-168224138D01*
X138335378Y-168158146D01*
X138335366Y-168158143D01*
X138166232Y-168124500D01*
X138166229Y-168124500D01*
X137993771Y-168124500D01*
X137993768Y-168124500D01*
X137824633Y-168158143D01*
X137824621Y-168158146D01*
X137665301Y-168224138D01*
X137665288Y-168224145D01*
X137521901Y-168319954D01*
X137521897Y-168319957D01*
X137399957Y-168441897D01*
X137399954Y-168441901D01*
X137304145Y-168585288D01*
X137304138Y-168585301D01*
X137238146Y-168744621D01*
X137238143Y-168744633D01*
X137204500Y-168913766D01*
X128795499Y-168913766D01*
X128761855Y-168744626D01*
X128761853Y-168744621D01*
X128695861Y-168585301D01*
X128695854Y-168585288D01*
X128600045Y-168441901D01*
X128600042Y-168441897D01*
X128478102Y-168319957D01*
X128478098Y-168319954D01*
X128334711Y-168224145D01*
X128334698Y-168224138D01*
X128175378Y-168158146D01*
X128175366Y-168158143D01*
X128006232Y-168124500D01*
X128006229Y-168124500D01*
X127833771Y-168124500D01*
X127833768Y-168124500D01*
X127664633Y-168158143D01*
X127664621Y-168158146D01*
X127505301Y-168224138D01*
X127505288Y-168224145D01*
X127361901Y-168319954D01*
X127361897Y-168319957D01*
X127239957Y-168441897D01*
X127239954Y-168441901D01*
X127144145Y-168585288D01*
X127144138Y-168585301D01*
X127078146Y-168744621D01*
X127078143Y-168744633D01*
X127044500Y-168913766D01*
X124000000Y-168913766D01*
X124000000Y-160847889D01*
X232791500Y-160847889D01*
X232791500Y-161152110D01*
X232825559Y-161454393D01*
X232825561Y-161454409D01*
X232893253Y-161750990D01*
X232893257Y-161751002D01*
X232993726Y-162038124D01*
X232993732Y-162038138D01*
X233125720Y-162312214D01*
X233125722Y-162312217D01*
X233287573Y-162569801D01*
X233477246Y-162807644D01*
X233692356Y-163022754D01*
X233930199Y-163212427D01*
X234187783Y-163374278D01*
X234461869Y-163506271D01*
X234461875Y-163506273D01*
X234748997Y-163606742D01*
X234749009Y-163606746D01*
X235045594Y-163674439D01*
X235347890Y-163708499D01*
X235347891Y-163708500D01*
X235347894Y-163708500D01*
X235652109Y-163708500D01*
X235652109Y-163708499D01*
X235954406Y-163674439D01*
X236250991Y-163606746D01*
X236538131Y-163506271D01*
X236812217Y-163374278D01*
X237069801Y-163212427D01*
X237307644Y-163022754D01*
X237522754Y-162807644D01*
X237712427Y-162569801D01*
X237874278Y-162312217D01*
X238006271Y-162038131D01*
X238106746Y-161750991D01*
X238174439Y-161454406D01*
X238208500Y-161152106D01*
X238208500Y-160847894D01*
X238174439Y-160545594D01*
X238106746Y-160249009D01*
X238006271Y-159961869D01*
X237874278Y-159687783D01*
X237712427Y-159430199D01*
X237522754Y-159192356D01*
X237307644Y-158977246D01*
X237069801Y-158787573D01*
X236812217Y-158625722D01*
X236812214Y-158625720D01*
X236538138Y-158493732D01*
X236538124Y-158493726D01*
X236251002Y-158393257D01*
X236250990Y-158393253D01*
X235954409Y-158325561D01*
X235954393Y-158325559D01*
X235652110Y-158291500D01*
X235652106Y-158291500D01*
X235347894Y-158291500D01*
X235347889Y-158291500D01*
X235045606Y-158325559D01*
X235045590Y-158325561D01*
X234749009Y-158393253D01*
X234748997Y-158393257D01*
X234461875Y-158493726D01*
X234461861Y-158493732D01*
X234187785Y-158625720D01*
X233930200Y-158787572D01*
X233692356Y-158977245D01*
X233477245Y-159192356D01*
X233287572Y-159430200D01*
X233125720Y-159687785D01*
X232993732Y-159961861D01*
X232993726Y-159961875D01*
X232893257Y-160248997D01*
X232893253Y-160249009D01*
X232825561Y-160545590D01*
X232825559Y-160545606D01*
X232791500Y-160847889D01*
X124000000Y-160847889D01*
X124000000Y-149913766D01*
X135044500Y-149913766D01*
X135044500Y-150086233D01*
X135078143Y-150255366D01*
X135078146Y-150255378D01*
X135144138Y-150414698D01*
X135144145Y-150414711D01*
X135239954Y-150558098D01*
X135239957Y-150558102D01*
X135361897Y-150680042D01*
X135361901Y-150680045D01*
X135505288Y-150775854D01*
X135505301Y-150775861D01*
X135664621Y-150841853D01*
X135664626Y-150841855D01*
X135833766Y-150875499D01*
X135833769Y-150875500D01*
X135833771Y-150875500D01*
X136006231Y-150875500D01*
X136006232Y-150875499D01*
X136175374Y-150841855D01*
X136334705Y-150775858D01*
X136478099Y-150680045D01*
X136600045Y-150558099D01*
X136695858Y-150414705D01*
X136761855Y-150255374D01*
X136795500Y-150086229D01*
X136795500Y-149913771D01*
X136795500Y-149913768D01*
X136795499Y-149913766D01*
X145204500Y-149913766D01*
X145204500Y-150086233D01*
X145238143Y-150255366D01*
X145238146Y-150255378D01*
X145304138Y-150414698D01*
X145304145Y-150414711D01*
X145399954Y-150558098D01*
X145399957Y-150558102D01*
X145521897Y-150680042D01*
X145521901Y-150680045D01*
X145665288Y-150775854D01*
X145665301Y-150775861D01*
X145824621Y-150841853D01*
X145824626Y-150841855D01*
X145993766Y-150875499D01*
X145993769Y-150875500D01*
X145993771Y-150875500D01*
X146166231Y-150875500D01*
X146166232Y-150875499D01*
X146335374Y-150841855D01*
X146494705Y-150775858D01*
X146638099Y-150680045D01*
X146760045Y-150558099D01*
X146855858Y-150414705D01*
X146921855Y-150255374D01*
X146955500Y-150086229D01*
X146955500Y-149913771D01*
X146955500Y-149913768D01*
X146955499Y-149913766D01*
X146946517Y-149868606D01*
X146942396Y-149847889D01*
X152291500Y-149847889D01*
X152291500Y-150152110D01*
X152325559Y-150454393D01*
X152325561Y-150454409D01*
X152393253Y-150750990D01*
X152393257Y-150751002D01*
X152493726Y-151038124D01*
X152493732Y-151038138D01*
X152625720Y-151312214D01*
X152625722Y-151312217D01*
X152787573Y-151569801D01*
X152977246Y-151807644D01*
X153192356Y-152022754D01*
X153430199Y-152212427D01*
X153687783Y-152374278D01*
X153961869Y-152506271D01*
X153961875Y-152506273D01*
X154248997Y-152606742D01*
X154249009Y-152606746D01*
X154545594Y-152674439D01*
X154847890Y-152708499D01*
X154847891Y-152708500D01*
X154847894Y-152708500D01*
X155152109Y-152708500D01*
X155152109Y-152708499D01*
X155454406Y-152674439D01*
X155750991Y-152606746D01*
X156038131Y-152506271D01*
X156312217Y-152374278D01*
X156569801Y-152212427D01*
X156807644Y-152022754D01*
X157022754Y-151807644D01*
X157212427Y-151569801D01*
X157374278Y-151312217D01*
X157506271Y-151038131D01*
X157606746Y-150750991D01*
X157674439Y-150454406D01*
X157708500Y-150152106D01*
X157708500Y-149913766D01*
X163544500Y-149913766D01*
X163544500Y-150086233D01*
X163578143Y-150255366D01*
X163578146Y-150255378D01*
X163644138Y-150414698D01*
X163644145Y-150414711D01*
X163739954Y-150558098D01*
X163739957Y-150558102D01*
X163861897Y-150680042D01*
X163861901Y-150680045D01*
X164005288Y-150775854D01*
X164005301Y-150775861D01*
X164164621Y-150841853D01*
X164164626Y-150841855D01*
X164333766Y-150875499D01*
X164333769Y-150875500D01*
X164333771Y-150875500D01*
X164506231Y-150875500D01*
X164506232Y-150875499D01*
X164675374Y-150841855D01*
X164834705Y-150775858D01*
X164978099Y-150680045D01*
X165100045Y-150558099D01*
X165195858Y-150414705D01*
X165261855Y-150255374D01*
X165295500Y-150086229D01*
X165295500Y-149913771D01*
X165295500Y-149913768D01*
X165295499Y-149913766D01*
X173704500Y-149913766D01*
X173704500Y-150086233D01*
X173738143Y-150255366D01*
X173738146Y-150255378D01*
X173804138Y-150414698D01*
X173804145Y-150414711D01*
X173899954Y-150558098D01*
X173899957Y-150558102D01*
X174021897Y-150680042D01*
X174021901Y-150680045D01*
X174165288Y-150775854D01*
X174165301Y-150775861D01*
X174324621Y-150841853D01*
X174324626Y-150841855D01*
X174493766Y-150875499D01*
X174493769Y-150875500D01*
X174493771Y-150875500D01*
X174666231Y-150875500D01*
X174666232Y-150875499D01*
X174835374Y-150841855D01*
X174994705Y-150775858D01*
X175138099Y-150680045D01*
X175260045Y-150558099D01*
X175355858Y-150414705D01*
X175421855Y-150255374D01*
X175455500Y-150086229D01*
X175455500Y-149913771D01*
X175455500Y-149913768D01*
X175455499Y-149913766D01*
X182544500Y-149913766D01*
X182544500Y-150086233D01*
X182578143Y-150255366D01*
X182578146Y-150255378D01*
X182644138Y-150414698D01*
X182644145Y-150414711D01*
X182739954Y-150558098D01*
X182739957Y-150558102D01*
X182861897Y-150680042D01*
X182861901Y-150680045D01*
X183005288Y-150775854D01*
X183005301Y-150775861D01*
X183164621Y-150841853D01*
X183164626Y-150841855D01*
X183333766Y-150875499D01*
X183333769Y-150875500D01*
X183333771Y-150875500D01*
X183506231Y-150875500D01*
X183506232Y-150875499D01*
X183675374Y-150841855D01*
X183834705Y-150775858D01*
X183978099Y-150680045D01*
X184100045Y-150558099D01*
X184195858Y-150414705D01*
X184261855Y-150255374D01*
X184295500Y-150086229D01*
X184295500Y-149913771D01*
X184295500Y-149913768D01*
X184295499Y-149913766D01*
X192704500Y-149913766D01*
X192704500Y-150086233D01*
X192738143Y-150255366D01*
X192738146Y-150255378D01*
X192804138Y-150414698D01*
X192804145Y-150414711D01*
X192899954Y-150558098D01*
X192899957Y-150558102D01*
X193021897Y-150680042D01*
X193021901Y-150680045D01*
X193165288Y-150775854D01*
X193165301Y-150775861D01*
X193324621Y-150841853D01*
X193324626Y-150841855D01*
X193493766Y-150875499D01*
X193493769Y-150875500D01*
X193493771Y-150875500D01*
X193666231Y-150875500D01*
X193666232Y-150875499D01*
X193835374Y-150841855D01*
X193994705Y-150775858D01*
X194138099Y-150680045D01*
X194260045Y-150558099D01*
X194355858Y-150414705D01*
X194421855Y-150255374D01*
X194455500Y-150086229D01*
X194455500Y-149913771D01*
X194455500Y-149913768D01*
X194455499Y-149913766D01*
X201544500Y-149913766D01*
X201544500Y-150086233D01*
X201578143Y-150255366D01*
X201578146Y-150255378D01*
X201644138Y-150414698D01*
X201644145Y-150414711D01*
X201739954Y-150558098D01*
X201739957Y-150558102D01*
X201861897Y-150680042D01*
X201861901Y-150680045D01*
X202005288Y-150775854D01*
X202005301Y-150775861D01*
X202164621Y-150841853D01*
X202164626Y-150841855D01*
X202333766Y-150875499D01*
X202333769Y-150875500D01*
X202333771Y-150875500D01*
X202506231Y-150875500D01*
X202506232Y-150875499D01*
X202675374Y-150841855D01*
X202834705Y-150775858D01*
X202978099Y-150680045D01*
X203100045Y-150558099D01*
X203195858Y-150414705D01*
X203261855Y-150255374D01*
X203295500Y-150086229D01*
X203295500Y-149913771D01*
X203295500Y-149913768D01*
X203295499Y-149913766D01*
X211704500Y-149913766D01*
X211704500Y-150086233D01*
X211738143Y-150255366D01*
X211738146Y-150255378D01*
X211804138Y-150414698D01*
X211804145Y-150414711D01*
X211899954Y-150558098D01*
X211899957Y-150558102D01*
X212021897Y-150680042D01*
X212021901Y-150680045D01*
X212165288Y-150775854D01*
X212165301Y-150775861D01*
X212324621Y-150841853D01*
X212324626Y-150841855D01*
X212493766Y-150875499D01*
X212493769Y-150875500D01*
X212493771Y-150875500D01*
X212666231Y-150875500D01*
X212666232Y-150875499D01*
X212835374Y-150841855D01*
X212994705Y-150775858D01*
X213138099Y-150680045D01*
X213260045Y-150558099D01*
X213355858Y-150414705D01*
X213421855Y-150255374D01*
X213455500Y-150086229D01*
X213455500Y-149913771D01*
X213455500Y-149913768D01*
X213455499Y-149913766D01*
X220544500Y-149913766D01*
X220544500Y-150086233D01*
X220578143Y-150255366D01*
X220578146Y-150255378D01*
X220644138Y-150414698D01*
X220644145Y-150414711D01*
X220739954Y-150558098D01*
X220739957Y-150558102D01*
X220861897Y-150680042D01*
X220861901Y-150680045D01*
X221005288Y-150775854D01*
X221005301Y-150775861D01*
X221164621Y-150841853D01*
X221164626Y-150841855D01*
X221333766Y-150875499D01*
X221333769Y-150875500D01*
X221333771Y-150875500D01*
X221506231Y-150875500D01*
X221506232Y-150875499D01*
X221675374Y-150841855D01*
X221834705Y-150775858D01*
X221978099Y-150680045D01*
X222100045Y-150558099D01*
X222195858Y-150414705D01*
X222261855Y-150255374D01*
X222295500Y-150086229D01*
X222295500Y-149913771D01*
X222295500Y-149913768D01*
X222295499Y-149913766D01*
X230704500Y-149913766D01*
X230704500Y-150086233D01*
X230738143Y-150255366D01*
X230738146Y-150255378D01*
X230804138Y-150414698D01*
X230804145Y-150414711D01*
X230899954Y-150558098D01*
X230899957Y-150558102D01*
X231021897Y-150680042D01*
X231021901Y-150680045D01*
X231165288Y-150775854D01*
X231165301Y-150775861D01*
X231324621Y-150841853D01*
X231324626Y-150841855D01*
X231493766Y-150875499D01*
X231493769Y-150875500D01*
X231493771Y-150875500D01*
X231666231Y-150875500D01*
X231666232Y-150875499D01*
X231835374Y-150841855D01*
X231994705Y-150775858D01*
X232138099Y-150680045D01*
X232260045Y-150558099D01*
X232355858Y-150414705D01*
X232421855Y-150255374D01*
X232455500Y-150086229D01*
X232455500Y-149913771D01*
X232455500Y-149913768D01*
X232455499Y-149913766D01*
X239544500Y-149913766D01*
X239544500Y-150086233D01*
X239578143Y-150255366D01*
X239578146Y-150255378D01*
X239644138Y-150414698D01*
X239644145Y-150414711D01*
X239739954Y-150558098D01*
X239739957Y-150558102D01*
X239861897Y-150680042D01*
X239861901Y-150680045D01*
X240005288Y-150775854D01*
X240005301Y-150775861D01*
X240164621Y-150841853D01*
X240164626Y-150841855D01*
X240333766Y-150875499D01*
X240333769Y-150875500D01*
X240333771Y-150875500D01*
X240506231Y-150875500D01*
X240506232Y-150875499D01*
X240675374Y-150841855D01*
X240834705Y-150775858D01*
X240978099Y-150680045D01*
X241100045Y-150558099D01*
X241195858Y-150414705D01*
X241261855Y-150255374D01*
X241295500Y-150086229D01*
X241295500Y-149913771D01*
X241295500Y-149913768D01*
X241295499Y-149913766D01*
X249704500Y-149913766D01*
X249704500Y-150086233D01*
X249738143Y-150255366D01*
X249738146Y-150255378D01*
X249804138Y-150414698D01*
X249804145Y-150414711D01*
X249899954Y-150558098D01*
X249899957Y-150558102D01*
X250021897Y-150680042D01*
X250021901Y-150680045D01*
X250165288Y-150775854D01*
X250165301Y-150775861D01*
X250324621Y-150841853D01*
X250324626Y-150841855D01*
X250493766Y-150875499D01*
X250493769Y-150875500D01*
X250493771Y-150875500D01*
X250666231Y-150875500D01*
X250666232Y-150875499D01*
X250835374Y-150841855D01*
X250994705Y-150775858D01*
X251138099Y-150680045D01*
X251260045Y-150558099D01*
X251355858Y-150414705D01*
X251421855Y-150255374D01*
X251455500Y-150086229D01*
X251455500Y-149913771D01*
X251455500Y-149913768D01*
X251455499Y-149913766D01*
X251442395Y-149847889D01*
X251421855Y-149744626D01*
X251421853Y-149744621D01*
X251355861Y-149585301D01*
X251355854Y-149585288D01*
X251260045Y-149441901D01*
X251260042Y-149441897D01*
X251138102Y-149319957D01*
X251138098Y-149319954D01*
X250994711Y-149224145D01*
X250994698Y-149224138D01*
X250835378Y-149158146D01*
X250835366Y-149158143D01*
X250666232Y-149124500D01*
X250666229Y-149124500D01*
X250493771Y-149124500D01*
X250493768Y-149124500D01*
X250324633Y-149158143D01*
X250324621Y-149158146D01*
X250165301Y-149224138D01*
X250165288Y-149224145D01*
X250021901Y-149319954D01*
X250021897Y-149319957D01*
X249899957Y-149441897D01*
X249899954Y-149441901D01*
X249804145Y-149585288D01*
X249804138Y-149585301D01*
X249738146Y-149744621D01*
X249738143Y-149744633D01*
X249704500Y-149913766D01*
X241295499Y-149913766D01*
X241282395Y-149847889D01*
X241261855Y-149744626D01*
X241261853Y-149744621D01*
X241195861Y-149585301D01*
X241195854Y-149585288D01*
X241100045Y-149441901D01*
X241100042Y-149441897D01*
X240978102Y-149319957D01*
X240978098Y-149319954D01*
X240834711Y-149224145D01*
X240834698Y-149224138D01*
X240675378Y-149158146D01*
X240675366Y-149158143D01*
X240506232Y-149124500D01*
X240506229Y-149124500D01*
X240333771Y-149124500D01*
X240333768Y-149124500D01*
X240164633Y-149158143D01*
X240164621Y-149158146D01*
X240005301Y-149224138D01*
X240005288Y-149224145D01*
X239861901Y-149319954D01*
X239861897Y-149319957D01*
X239739957Y-149441897D01*
X239739954Y-149441901D01*
X239644145Y-149585288D01*
X239644138Y-149585301D01*
X239578146Y-149744621D01*
X239578143Y-149744633D01*
X239544500Y-149913766D01*
X232455499Y-149913766D01*
X232442395Y-149847889D01*
X232421855Y-149744626D01*
X232421853Y-149744621D01*
X232355861Y-149585301D01*
X232355854Y-149585288D01*
X232260045Y-149441901D01*
X232260042Y-149441897D01*
X232138102Y-149319957D01*
X232138098Y-149319954D01*
X231994711Y-149224145D01*
X231994698Y-149224138D01*
X231835378Y-149158146D01*
X231835366Y-149158143D01*
X231666232Y-149124500D01*
X231666229Y-149124500D01*
X231493771Y-149124500D01*
X231493768Y-149124500D01*
X231324633Y-149158143D01*
X231324621Y-149158146D01*
X231165301Y-149224138D01*
X231165288Y-149224145D01*
X231021901Y-149319954D01*
X231021897Y-149319957D01*
X230899957Y-149441897D01*
X230899954Y-149441901D01*
X230804145Y-149585288D01*
X230804138Y-149585301D01*
X230738146Y-149744621D01*
X230738143Y-149744633D01*
X230704500Y-149913766D01*
X222295499Y-149913766D01*
X222282395Y-149847889D01*
X222261855Y-149744626D01*
X222261853Y-149744621D01*
X222195861Y-149585301D01*
X222195854Y-149585288D01*
X222100045Y-149441901D01*
X222100042Y-149441897D01*
X221978102Y-149319957D01*
X221978098Y-149319954D01*
X221834711Y-149224145D01*
X221834698Y-149224138D01*
X221675378Y-149158146D01*
X221675366Y-149158143D01*
X221506232Y-149124500D01*
X221506229Y-149124500D01*
X221333771Y-149124500D01*
X221333768Y-149124500D01*
X221164633Y-149158143D01*
X221164621Y-149158146D01*
X221005301Y-149224138D01*
X221005288Y-149224145D01*
X220861901Y-149319954D01*
X220861897Y-149319957D01*
X220739957Y-149441897D01*
X220739954Y-149441901D01*
X220644145Y-149585288D01*
X220644138Y-149585301D01*
X220578146Y-149744621D01*
X220578143Y-149744633D01*
X220544500Y-149913766D01*
X213455499Y-149913766D01*
X213442395Y-149847889D01*
X213421855Y-149744626D01*
X213421853Y-149744621D01*
X213355861Y-149585301D01*
X213355854Y-149585288D01*
X213260045Y-149441901D01*
X213260042Y-149441897D01*
X213138102Y-149319957D01*
X213138098Y-149319954D01*
X212994711Y-149224145D01*
X212994698Y-149224138D01*
X212835378Y-149158146D01*
X212835366Y-149158143D01*
X212666232Y-149124500D01*
X212666229Y-149124500D01*
X212493771Y-149124500D01*
X212493768Y-149124500D01*
X212324633Y-149158143D01*
X212324621Y-149158146D01*
X212165301Y-149224138D01*
X212165288Y-149224145D01*
X212021901Y-149319954D01*
X212021897Y-149319957D01*
X211899957Y-149441897D01*
X211899954Y-149441901D01*
X211804145Y-149585288D01*
X211804138Y-149585301D01*
X211738146Y-149744621D01*
X211738143Y-149744633D01*
X211704500Y-149913766D01*
X203295499Y-149913766D01*
X203282395Y-149847889D01*
X203261855Y-149744626D01*
X203261853Y-149744621D01*
X203195861Y-149585301D01*
X203195854Y-149585288D01*
X203100045Y-149441901D01*
X203100042Y-149441897D01*
X202978102Y-149319957D01*
X202978098Y-149319954D01*
X202834711Y-149224145D01*
X202834698Y-149224138D01*
X202675378Y-149158146D01*
X202675366Y-149158143D01*
X202506232Y-149124500D01*
X202506229Y-149124500D01*
X202333771Y-149124500D01*
X202333768Y-149124500D01*
X202164633Y-149158143D01*
X202164621Y-149158146D01*
X202005301Y-149224138D01*
X202005288Y-149224145D01*
X201861901Y-149319954D01*
X201861897Y-149319957D01*
X201739957Y-149441897D01*
X201739954Y-149441901D01*
X201644145Y-149585288D01*
X201644138Y-149585301D01*
X201578146Y-149744621D01*
X201578143Y-149744633D01*
X201544500Y-149913766D01*
X194455499Y-149913766D01*
X194442395Y-149847889D01*
X194421855Y-149744626D01*
X194421853Y-149744621D01*
X194355861Y-149585301D01*
X194355854Y-149585288D01*
X194260045Y-149441901D01*
X194260042Y-149441897D01*
X194138102Y-149319957D01*
X194138098Y-149319954D01*
X193994711Y-149224145D01*
X193994698Y-149224138D01*
X193835378Y-149158146D01*
X193835366Y-149158143D01*
X193666232Y-149124500D01*
X193666229Y-149124500D01*
X193493771Y-149124500D01*
X193493768Y-149124500D01*
X193324633Y-149158143D01*
X193324621Y-149158146D01*
X193165301Y-149224138D01*
X193165288Y-149224145D01*
X193021901Y-149319954D01*
X193021897Y-149319957D01*
X192899957Y-149441897D01*
X192899954Y-149441901D01*
X192804145Y-149585288D01*
X192804138Y-149585301D01*
X192738146Y-149744621D01*
X192738143Y-149744633D01*
X192704500Y-149913766D01*
X184295499Y-149913766D01*
X184282395Y-149847889D01*
X184261855Y-149744626D01*
X184261853Y-149744621D01*
X184195861Y-149585301D01*
X184195854Y-149585288D01*
X184100045Y-149441901D01*
X184100042Y-149441897D01*
X183978102Y-149319957D01*
X183978098Y-149319954D01*
X183834711Y-149224145D01*
X183834698Y-149224138D01*
X183675378Y-149158146D01*
X183675366Y-149158143D01*
X183506232Y-149124500D01*
X183506229Y-149124500D01*
X183333771Y-149124500D01*
X183333768Y-149124500D01*
X183164633Y-149158143D01*
X183164621Y-149158146D01*
X183005301Y-149224138D01*
X183005288Y-149224145D01*
X182861901Y-149319954D01*
X182861897Y-149319957D01*
X182739957Y-149441897D01*
X182739954Y-149441901D01*
X182644145Y-149585288D01*
X182644138Y-149585301D01*
X182578146Y-149744621D01*
X182578143Y-149744633D01*
X182544500Y-149913766D01*
X175455499Y-149913766D01*
X175442395Y-149847889D01*
X175421855Y-149744626D01*
X175421853Y-149744621D01*
X175355861Y-149585301D01*
X175355854Y-149585288D01*
X175260045Y-149441901D01*
X175260042Y-149441897D01*
X175138102Y-149319957D01*
X175138098Y-149319954D01*
X174994711Y-149224145D01*
X174994698Y-149224138D01*
X174835378Y-149158146D01*
X174835366Y-149158143D01*
X174666232Y-149124500D01*
X174666229Y-149124500D01*
X174493771Y-149124500D01*
X174493768Y-149124500D01*
X174324633Y-149158143D01*
X174324621Y-149158146D01*
X174165301Y-149224138D01*
X174165288Y-149224145D01*
X174021901Y-149319954D01*
X174021897Y-149319957D01*
X173899957Y-149441897D01*
X173899954Y-149441901D01*
X173804145Y-149585288D01*
X173804138Y-149585301D01*
X173738146Y-149744621D01*
X173738143Y-149744633D01*
X173704500Y-149913766D01*
X165295499Y-149913766D01*
X165282395Y-149847889D01*
X165261855Y-149744626D01*
X165261853Y-149744621D01*
X165195861Y-149585301D01*
X165195854Y-149585288D01*
X165100045Y-149441901D01*
X165100042Y-149441897D01*
X164978102Y-149319957D01*
X164978098Y-149319954D01*
X164834711Y-149224145D01*
X164834698Y-149224138D01*
X164675378Y-149158146D01*
X164675366Y-149158143D01*
X164506232Y-149124500D01*
X164506229Y-149124500D01*
X164333771Y-149124500D01*
X164333768Y-149124500D01*
X164164633Y-149158143D01*
X164164621Y-149158146D01*
X164005301Y-149224138D01*
X164005288Y-149224145D01*
X163861901Y-149319954D01*
X163861897Y-149319957D01*
X163739957Y-149441897D01*
X163739954Y-149441901D01*
X163644145Y-149585288D01*
X163644138Y-149585301D01*
X163578146Y-149744621D01*
X163578143Y-149744633D01*
X163544500Y-149913766D01*
X157708500Y-149913766D01*
X157708500Y-149847894D01*
X157674439Y-149545594D01*
X157606746Y-149249009D01*
X157574950Y-149158143D01*
X157506273Y-148961875D01*
X157506271Y-148961869D01*
X157374278Y-148687783D01*
X157212427Y-148430199D01*
X157022754Y-148192356D01*
X156807644Y-147977246D01*
X156569801Y-147787573D01*
X156312217Y-147625722D01*
X156312214Y-147625720D01*
X156038138Y-147493732D01*
X156038124Y-147493726D01*
X155751002Y-147393257D01*
X155750990Y-147393253D01*
X155454409Y-147325561D01*
X155454393Y-147325559D01*
X155152110Y-147291500D01*
X155152106Y-147291500D01*
X154847894Y-147291500D01*
X154847889Y-147291500D01*
X154545606Y-147325559D01*
X154545590Y-147325561D01*
X154249009Y-147393253D01*
X154248997Y-147393257D01*
X153961875Y-147493726D01*
X153961861Y-147493732D01*
X153687785Y-147625720D01*
X153430200Y-147787572D01*
X153192356Y-147977245D01*
X152977245Y-148192356D01*
X152787572Y-148430200D01*
X152625720Y-148687785D01*
X152493732Y-148961861D01*
X152493726Y-148961875D01*
X152393257Y-149248997D01*
X152393253Y-149249009D01*
X152325561Y-149545590D01*
X152325559Y-149545606D01*
X152291500Y-149847889D01*
X146942396Y-149847889D01*
X146921856Y-149744631D01*
X146921855Y-149744630D01*
X146921855Y-149744626D01*
X146921853Y-149744621D01*
X146855861Y-149585301D01*
X146855854Y-149585288D01*
X146760045Y-149441901D01*
X146760042Y-149441897D01*
X146638102Y-149319957D01*
X146638098Y-149319954D01*
X146494711Y-149224145D01*
X146494698Y-149224138D01*
X146335378Y-149158146D01*
X146335366Y-149158143D01*
X146166232Y-149124500D01*
X146166229Y-149124500D01*
X145993771Y-149124500D01*
X145993768Y-149124500D01*
X145824633Y-149158143D01*
X145824621Y-149158146D01*
X145665301Y-149224138D01*
X145665288Y-149224145D01*
X145521901Y-149319954D01*
X145521897Y-149319957D01*
X145399957Y-149441897D01*
X145399954Y-149441901D01*
X145304145Y-149585288D01*
X145304138Y-149585301D01*
X145238146Y-149744621D01*
X145238143Y-149744633D01*
X145204500Y-149913766D01*
X136795499Y-149913766D01*
X136782395Y-149847889D01*
X136761855Y-149744626D01*
X136761853Y-149744621D01*
X136695861Y-149585301D01*
X136695854Y-149585288D01*
X136600045Y-149441901D01*
X136600042Y-149441897D01*
X136478102Y-149319957D01*
X136478098Y-149319954D01*
X136334711Y-149224145D01*
X136334698Y-149224138D01*
X136175378Y-149158146D01*
X136175366Y-149158143D01*
X136006232Y-149124500D01*
X136006229Y-149124500D01*
X135833771Y-149124500D01*
X135833768Y-149124500D01*
X135664633Y-149158143D01*
X135664621Y-149158146D01*
X135505301Y-149224138D01*
X135505288Y-149224145D01*
X135361901Y-149319954D01*
X135361897Y-149319957D01*
X135239957Y-149441897D01*
X135239954Y-149441901D01*
X135144145Y-149585288D01*
X135144138Y-149585301D01*
X135078146Y-149744621D01*
X135078143Y-149744633D01*
X135044500Y-149913766D01*
X124000000Y-149913766D01*
X124000000Y-130913766D01*
X131877833Y-130913766D01*
X131877833Y-131086233D01*
X131911476Y-131255366D01*
X131911479Y-131255378D01*
X131977471Y-131414698D01*
X131977478Y-131414711D01*
X132073287Y-131558098D01*
X132073290Y-131558102D01*
X132195230Y-131680042D01*
X132195234Y-131680045D01*
X132338621Y-131775854D01*
X132338634Y-131775861D01*
X132433644Y-131815215D01*
X132497959Y-131841855D01*
X132667099Y-131875499D01*
X132667102Y-131875500D01*
X132667104Y-131875500D01*
X132839564Y-131875500D01*
X132839565Y-131875499D01*
X133008707Y-131841855D01*
X133168038Y-131775858D01*
X133311432Y-131680045D01*
X133433378Y-131558099D01*
X133529191Y-131414705D01*
X133595188Y-131255374D01*
X133628833Y-131086229D01*
X133628833Y-130913771D01*
X133628833Y-130913768D01*
X133628832Y-130913766D01*
X142037833Y-130913766D01*
X142037833Y-131086233D01*
X142071476Y-131255366D01*
X142071479Y-131255378D01*
X142137471Y-131414698D01*
X142137478Y-131414711D01*
X142233287Y-131558098D01*
X142233290Y-131558102D01*
X142355230Y-131680042D01*
X142355234Y-131680045D01*
X142498621Y-131775854D01*
X142498634Y-131775861D01*
X142593644Y-131815215D01*
X142657959Y-131841855D01*
X142827099Y-131875499D01*
X142827102Y-131875500D01*
X142827104Y-131875500D01*
X142999564Y-131875500D01*
X142999565Y-131875499D01*
X143168707Y-131841855D01*
X143328038Y-131775858D01*
X143471432Y-131680045D01*
X143593378Y-131558099D01*
X143689191Y-131414705D01*
X143755188Y-131255374D01*
X143788833Y-131086229D01*
X143788833Y-130913771D01*
X143788833Y-130913768D01*
X143788832Y-130913766D01*
X157211167Y-130913766D01*
X157211167Y-131086233D01*
X157244810Y-131255366D01*
X157244813Y-131255378D01*
X157310805Y-131414698D01*
X157310812Y-131414711D01*
X157406621Y-131558098D01*
X157406624Y-131558102D01*
X157528564Y-131680042D01*
X157528568Y-131680045D01*
X157671955Y-131775854D01*
X157671968Y-131775861D01*
X157766978Y-131815215D01*
X157831293Y-131841855D01*
X158000433Y-131875499D01*
X158000436Y-131875500D01*
X158000438Y-131875500D01*
X158172898Y-131875500D01*
X158172899Y-131875499D01*
X158342041Y-131841855D01*
X158501372Y-131775858D01*
X158644766Y-131680045D01*
X158766712Y-131558099D01*
X158862525Y-131414705D01*
X158928522Y-131255374D01*
X158962167Y-131086229D01*
X158962167Y-130913771D01*
X158962167Y-130913768D01*
X158962166Y-130913766D01*
X167371167Y-130913766D01*
X167371167Y-131086233D01*
X167404810Y-131255366D01*
X167404813Y-131255378D01*
X167470805Y-131414698D01*
X167470812Y-131414711D01*
X167566621Y-131558098D01*
X167566624Y-131558102D01*
X167688564Y-131680042D01*
X167688568Y-131680045D01*
X167831955Y-131775854D01*
X167831968Y-131775861D01*
X167926978Y-131815215D01*
X167991293Y-131841855D01*
X168160433Y-131875499D01*
X168160436Y-131875500D01*
X168160438Y-131875500D01*
X168332898Y-131875500D01*
X168332899Y-131875499D01*
X168502041Y-131841855D01*
X168661372Y-131775858D01*
X168804766Y-131680045D01*
X168926712Y-131558099D01*
X169022525Y-131414705D01*
X169088522Y-131255374D01*
X169122167Y-131086229D01*
X169122167Y-130913771D01*
X169122167Y-130913768D01*
X169122166Y-130913766D01*
X176211167Y-130913766D01*
X176211167Y-131086233D01*
X176244810Y-131255366D01*
X176244813Y-131255378D01*
X176310805Y-131414698D01*
X176310812Y-131414711D01*
X176406621Y-131558098D01*
X176406624Y-131558102D01*
X176528564Y-131680042D01*
X176528568Y-131680045D01*
X176671955Y-131775854D01*
X176671968Y-131775861D01*
X176766978Y-131815215D01*
X176831293Y-131841855D01*
X177000433Y-131875499D01*
X177000436Y-131875500D01*
X177000438Y-131875500D01*
X177172898Y-131875500D01*
X177172899Y-131875499D01*
X177342041Y-131841855D01*
X177501372Y-131775858D01*
X177644766Y-131680045D01*
X177766712Y-131558099D01*
X177862525Y-131414705D01*
X177928522Y-131255374D01*
X177962167Y-131086229D01*
X177962167Y-130913771D01*
X177962167Y-130913768D01*
X177962166Y-130913766D01*
X186371167Y-130913766D01*
X186371167Y-131086233D01*
X186404810Y-131255366D01*
X186404813Y-131255378D01*
X186470805Y-131414698D01*
X186470812Y-131414711D01*
X186566621Y-131558098D01*
X186566624Y-131558102D01*
X186688564Y-131680042D01*
X186688568Y-131680045D01*
X186831955Y-131775854D01*
X186831968Y-131775861D01*
X186926978Y-131815215D01*
X186991293Y-131841855D01*
X187160433Y-131875499D01*
X187160436Y-131875500D01*
X187160438Y-131875500D01*
X187332898Y-131875500D01*
X187332899Y-131875499D01*
X187502041Y-131841855D01*
X187661372Y-131775858D01*
X187804766Y-131680045D01*
X187926712Y-131558099D01*
X188022525Y-131414705D01*
X188088522Y-131255374D01*
X188122167Y-131086229D01*
X188122167Y-130913771D01*
X188122167Y-130913768D01*
X188122166Y-130913766D01*
X195211167Y-130913766D01*
X195211167Y-131086233D01*
X195244810Y-131255366D01*
X195244813Y-131255378D01*
X195310805Y-131414698D01*
X195310812Y-131414711D01*
X195406621Y-131558098D01*
X195406624Y-131558102D01*
X195528564Y-131680042D01*
X195528568Y-131680045D01*
X195671955Y-131775854D01*
X195671968Y-131775861D01*
X195766978Y-131815215D01*
X195831293Y-131841855D01*
X196000433Y-131875499D01*
X196000436Y-131875500D01*
X196000438Y-131875500D01*
X196172898Y-131875500D01*
X196172899Y-131875499D01*
X196342041Y-131841855D01*
X196501372Y-131775858D01*
X196644766Y-131680045D01*
X196766712Y-131558099D01*
X196862525Y-131414705D01*
X196928522Y-131255374D01*
X196962167Y-131086229D01*
X196962167Y-130913771D01*
X196962167Y-130913768D01*
X196962166Y-130913766D01*
X205371167Y-130913766D01*
X205371167Y-131086233D01*
X205404810Y-131255366D01*
X205404813Y-131255378D01*
X205470805Y-131414698D01*
X205470812Y-131414711D01*
X205566621Y-131558098D01*
X205566624Y-131558102D01*
X205688564Y-131680042D01*
X205688568Y-131680045D01*
X205831955Y-131775854D01*
X205831968Y-131775861D01*
X205926978Y-131815215D01*
X205991293Y-131841855D01*
X206160433Y-131875499D01*
X206160436Y-131875500D01*
X206160438Y-131875500D01*
X206332898Y-131875500D01*
X206332899Y-131875499D01*
X206502041Y-131841855D01*
X206661372Y-131775858D01*
X206804766Y-131680045D01*
X206926712Y-131558099D01*
X207022525Y-131414705D01*
X207088522Y-131255374D01*
X207122167Y-131086229D01*
X207122167Y-130913771D01*
X207122167Y-130913768D01*
X207122166Y-130913766D01*
X214211167Y-130913766D01*
X214211167Y-131086233D01*
X214244810Y-131255366D01*
X214244813Y-131255378D01*
X214310805Y-131414698D01*
X214310812Y-131414711D01*
X214406621Y-131558098D01*
X214406624Y-131558102D01*
X214528564Y-131680042D01*
X214528568Y-131680045D01*
X214671955Y-131775854D01*
X214671968Y-131775861D01*
X214766978Y-131815215D01*
X214831293Y-131841855D01*
X215000433Y-131875499D01*
X215000436Y-131875500D01*
X215000438Y-131875500D01*
X215172898Y-131875500D01*
X215172899Y-131875499D01*
X215342041Y-131841855D01*
X215501372Y-131775858D01*
X215644766Y-131680045D01*
X215766712Y-131558099D01*
X215862525Y-131414705D01*
X215928522Y-131255374D01*
X215962167Y-131086229D01*
X215962167Y-130913771D01*
X215962167Y-130913768D01*
X215962166Y-130913766D01*
X224371167Y-130913766D01*
X224371167Y-131086233D01*
X224404810Y-131255366D01*
X224404813Y-131255378D01*
X224470805Y-131414698D01*
X224470812Y-131414711D01*
X224566621Y-131558098D01*
X224566624Y-131558102D01*
X224688564Y-131680042D01*
X224688568Y-131680045D01*
X224831955Y-131775854D01*
X224831968Y-131775861D01*
X224926978Y-131815215D01*
X224991293Y-131841855D01*
X225160433Y-131875499D01*
X225160436Y-131875500D01*
X225160438Y-131875500D01*
X225332898Y-131875500D01*
X225332899Y-131875499D01*
X225502041Y-131841855D01*
X225661372Y-131775858D01*
X225804766Y-131680045D01*
X225926712Y-131558099D01*
X226022525Y-131414705D01*
X226088522Y-131255374D01*
X226122167Y-131086229D01*
X226122167Y-130913771D01*
X226122167Y-130913768D01*
X226122166Y-130913766D01*
X233211167Y-130913766D01*
X233211167Y-131086233D01*
X233244810Y-131255366D01*
X233244813Y-131255378D01*
X233310805Y-131414698D01*
X233310812Y-131414711D01*
X233406621Y-131558098D01*
X233406624Y-131558102D01*
X233528564Y-131680042D01*
X233528568Y-131680045D01*
X233671955Y-131775854D01*
X233671968Y-131775861D01*
X233766978Y-131815215D01*
X233831293Y-131841855D01*
X234000433Y-131875499D01*
X234000436Y-131875500D01*
X234000438Y-131875500D01*
X234172898Y-131875500D01*
X234172899Y-131875499D01*
X234342041Y-131841855D01*
X234501372Y-131775858D01*
X234644766Y-131680045D01*
X234766712Y-131558099D01*
X234862525Y-131414705D01*
X234928522Y-131255374D01*
X234962167Y-131086229D01*
X234962167Y-130913771D01*
X234962167Y-130913768D01*
X234962166Y-130913766D01*
X234942563Y-130815215D01*
X234928522Y-130744626D01*
X234910006Y-130699925D01*
X234862528Y-130585301D01*
X234862521Y-130585288D01*
X234766712Y-130441901D01*
X234766709Y-130441897D01*
X234644769Y-130319957D01*
X234644765Y-130319954D01*
X234501378Y-130224145D01*
X234501365Y-130224138D01*
X234342045Y-130158146D01*
X234342033Y-130158143D01*
X234172899Y-130124500D01*
X234172896Y-130124500D01*
X234000438Y-130124500D01*
X234000435Y-130124500D01*
X233831300Y-130158143D01*
X233831288Y-130158146D01*
X233671968Y-130224138D01*
X233671955Y-130224145D01*
X233528568Y-130319954D01*
X233528564Y-130319957D01*
X233406624Y-130441897D01*
X233406621Y-130441901D01*
X233310812Y-130585288D01*
X233310805Y-130585301D01*
X233244813Y-130744621D01*
X233244810Y-130744633D01*
X233211167Y-130913766D01*
X226122166Y-130913766D01*
X226102563Y-130815215D01*
X226088522Y-130744626D01*
X226070006Y-130699925D01*
X226022528Y-130585301D01*
X226022521Y-130585288D01*
X225926712Y-130441901D01*
X225926709Y-130441897D01*
X225804769Y-130319957D01*
X225804765Y-130319954D01*
X225661378Y-130224145D01*
X225661365Y-130224138D01*
X225502045Y-130158146D01*
X225502033Y-130158143D01*
X225332899Y-130124500D01*
X225332896Y-130124500D01*
X225160438Y-130124500D01*
X225160435Y-130124500D01*
X224991300Y-130158143D01*
X224991288Y-130158146D01*
X224831968Y-130224138D01*
X224831955Y-130224145D01*
X224688568Y-130319954D01*
X224688564Y-130319957D01*
X224566624Y-130441897D01*
X224566621Y-130441901D01*
X224470812Y-130585288D01*
X224470805Y-130585301D01*
X224404813Y-130744621D01*
X224404810Y-130744633D01*
X224371167Y-130913766D01*
X215962166Y-130913766D01*
X215942563Y-130815215D01*
X215928522Y-130744626D01*
X215910006Y-130699925D01*
X215862528Y-130585301D01*
X215862521Y-130585288D01*
X215766712Y-130441901D01*
X215766709Y-130441897D01*
X215644769Y-130319957D01*
X215644765Y-130319954D01*
X215501378Y-130224145D01*
X215501365Y-130224138D01*
X215342045Y-130158146D01*
X215342033Y-130158143D01*
X215172899Y-130124500D01*
X215172896Y-130124500D01*
X215000438Y-130124500D01*
X215000435Y-130124500D01*
X214831300Y-130158143D01*
X214831288Y-130158146D01*
X214671968Y-130224138D01*
X214671955Y-130224145D01*
X214528568Y-130319954D01*
X214528564Y-130319957D01*
X214406624Y-130441897D01*
X214406621Y-130441901D01*
X214310812Y-130585288D01*
X214310805Y-130585301D01*
X214244813Y-130744621D01*
X214244810Y-130744633D01*
X214211167Y-130913766D01*
X207122166Y-130913766D01*
X207102563Y-130815215D01*
X207088522Y-130744626D01*
X207070006Y-130699925D01*
X207022528Y-130585301D01*
X207022521Y-130585288D01*
X206926712Y-130441901D01*
X206926709Y-130441897D01*
X206804769Y-130319957D01*
X206804765Y-130319954D01*
X206661378Y-130224145D01*
X206661365Y-130224138D01*
X206502045Y-130158146D01*
X206502033Y-130158143D01*
X206332899Y-130124500D01*
X206332896Y-130124500D01*
X206160438Y-130124500D01*
X206160435Y-130124500D01*
X205991300Y-130158143D01*
X205991288Y-130158146D01*
X205831968Y-130224138D01*
X205831955Y-130224145D01*
X205688568Y-130319954D01*
X205688564Y-130319957D01*
X205566624Y-130441897D01*
X205566621Y-130441901D01*
X205470812Y-130585288D01*
X205470805Y-130585301D01*
X205404813Y-130744621D01*
X205404810Y-130744633D01*
X205371167Y-130913766D01*
X196962166Y-130913766D01*
X196942563Y-130815215D01*
X196928522Y-130744626D01*
X196910006Y-130699925D01*
X196862528Y-130585301D01*
X196862521Y-130585288D01*
X196766712Y-130441901D01*
X196766709Y-130441897D01*
X196644769Y-130319957D01*
X196644765Y-130319954D01*
X196501378Y-130224145D01*
X196501365Y-130224138D01*
X196342045Y-130158146D01*
X196342033Y-130158143D01*
X196172899Y-130124500D01*
X196172896Y-130124500D01*
X196000438Y-130124500D01*
X196000435Y-130124500D01*
X195831300Y-130158143D01*
X195831288Y-130158146D01*
X195671968Y-130224138D01*
X195671955Y-130224145D01*
X195528568Y-130319954D01*
X195528564Y-130319957D01*
X195406624Y-130441897D01*
X195406621Y-130441901D01*
X195310812Y-130585288D01*
X195310805Y-130585301D01*
X195244813Y-130744621D01*
X195244810Y-130744633D01*
X195211167Y-130913766D01*
X188122166Y-130913766D01*
X188102563Y-130815215D01*
X188088522Y-130744626D01*
X188070006Y-130699925D01*
X188022528Y-130585301D01*
X188022521Y-130585288D01*
X187926712Y-130441901D01*
X187926709Y-130441897D01*
X187804769Y-130319957D01*
X187804765Y-130319954D01*
X187661378Y-130224145D01*
X187661365Y-130224138D01*
X187502045Y-130158146D01*
X187502033Y-130158143D01*
X187332899Y-130124500D01*
X187332896Y-130124500D01*
X187160438Y-130124500D01*
X187160435Y-130124500D01*
X186991300Y-130158143D01*
X186991288Y-130158146D01*
X186831968Y-130224138D01*
X186831955Y-130224145D01*
X186688568Y-130319954D01*
X186688564Y-130319957D01*
X186566624Y-130441897D01*
X186566621Y-130441901D01*
X186470812Y-130585288D01*
X186470805Y-130585301D01*
X186404813Y-130744621D01*
X186404810Y-130744633D01*
X186371167Y-130913766D01*
X177962166Y-130913766D01*
X177942563Y-130815215D01*
X177928522Y-130744626D01*
X177910006Y-130699925D01*
X177862528Y-130585301D01*
X177862521Y-130585288D01*
X177766712Y-130441901D01*
X177766709Y-130441897D01*
X177644769Y-130319957D01*
X177644765Y-130319954D01*
X177501378Y-130224145D01*
X177501365Y-130224138D01*
X177342045Y-130158146D01*
X177342033Y-130158143D01*
X177172899Y-130124500D01*
X177172896Y-130124500D01*
X177000438Y-130124500D01*
X177000435Y-130124500D01*
X176831300Y-130158143D01*
X176831288Y-130158146D01*
X176671968Y-130224138D01*
X176671955Y-130224145D01*
X176528568Y-130319954D01*
X176528564Y-130319957D01*
X176406624Y-130441897D01*
X176406621Y-130441901D01*
X176310812Y-130585288D01*
X176310805Y-130585301D01*
X176244813Y-130744621D01*
X176244810Y-130744633D01*
X176211167Y-130913766D01*
X169122166Y-130913766D01*
X169102563Y-130815215D01*
X169088522Y-130744626D01*
X169070006Y-130699925D01*
X169022528Y-130585301D01*
X169022521Y-130585288D01*
X168926712Y-130441901D01*
X168926709Y-130441897D01*
X168804769Y-130319957D01*
X168804765Y-130319954D01*
X168661378Y-130224145D01*
X168661365Y-130224138D01*
X168502045Y-130158146D01*
X168502033Y-130158143D01*
X168332899Y-130124500D01*
X168332896Y-130124500D01*
X168160438Y-130124500D01*
X168160435Y-130124500D01*
X167991300Y-130158143D01*
X167991288Y-130158146D01*
X167831968Y-130224138D01*
X167831955Y-130224145D01*
X167688568Y-130319954D01*
X167688564Y-130319957D01*
X167566624Y-130441897D01*
X167566621Y-130441901D01*
X167470812Y-130585288D01*
X167470805Y-130585301D01*
X167404813Y-130744621D01*
X167404810Y-130744633D01*
X167371167Y-130913766D01*
X158962166Y-130913766D01*
X158942563Y-130815215D01*
X158928522Y-130744626D01*
X158910006Y-130699925D01*
X158862528Y-130585301D01*
X158862521Y-130585288D01*
X158766712Y-130441901D01*
X158766709Y-130441897D01*
X158644769Y-130319957D01*
X158644765Y-130319954D01*
X158501378Y-130224145D01*
X158501365Y-130224138D01*
X158342045Y-130158146D01*
X158342033Y-130158143D01*
X158172899Y-130124500D01*
X158172896Y-130124500D01*
X158000438Y-130124500D01*
X158000435Y-130124500D01*
X157831300Y-130158143D01*
X157831288Y-130158146D01*
X157671968Y-130224138D01*
X157671955Y-130224145D01*
X157528568Y-130319954D01*
X157528564Y-130319957D01*
X157406624Y-130441897D01*
X157406621Y-130441901D01*
X157310812Y-130585288D01*
X157310805Y-130585301D01*
X157244813Y-130744621D01*
X157244810Y-130744633D01*
X157211167Y-130913766D01*
X143788832Y-130913766D01*
X143769229Y-130815215D01*
X143755188Y-130744626D01*
X143736672Y-130699925D01*
X143689194Y-130585301D01*
X143689187Y-130585288D01*
X143593378Y-130441901D01*
X143593375Y-130441897D01*
X143471435Y-130319957D01*
X143471431Y-130319954D01*
X143328044Y-130224145D01*
X143328031Y-130224138D01*
X143168711Y-130158146D01*
X143168699Y-130158143D01*
X142999565Y-130124500D01*
X142999562Y-130124500D01*
X142827104Y-130124500D01*
X142827101Y-130124500D01*
X142657966Y-130158143D01*
X142657954Y-130158146D01*
X142498634Y-130224138D01*
X142498621Y-130224145D01*
X142355234Y-130319954D01*
X142355230Y-130319957D01*
X142233290Y-130441897D01*
X142233287Y-130441901D01*
X142137478Y-130585288D01*
X142137471Y-130585301D01*
X142071479Y-130744621D01*
X142071476Y-130744633D01*
X142037833Y-130913766D01*
X133628832Y-130913766D01*
X133609229Y-130815215D01*
X133595188Y-130744626D01*
X133576672Y-130699925D01*
X133529194Y-130585301D01*
X133529187Y-130585288D01*
X133433378Y-130441901D01*
X133433375Y-130441897D01*
X133311435Y-130319957D01*
X133311431Y-130319954D01*
X133168044Y-130224145D01*
X133168031Y-130224138D01*
X133008711Y-130158146D01*
X133008699Y-130158143D01*
X132839565Y-130124500D01*
X132839562Y-130124500D01*
X132667104Y-130124500D01*
X132667101Y-130124500D01*
X132497966Y-130158143D01*
X132497954Y-130158146D01*
X132338634Y-130224138D01*
X132338621Y-130224145D01*
X132195234Y-130319954D01*
X132195230Y-130319957D01*
X132073290Y-130441897D01*
X132073287Y-130441901D01*
X131977478Y-130585288D01*
X131977471Y-130585301D01*
X131911479Y-130744621D01*
X131911476Y-130744633D01*
X131877833Y-130913766D01*
X124000000Y-130913766D01*
X124000000Y-121847889D01*
X189124833Y-121847889D01*
X189124833Y-122152110D01*
X189158892Y-122454393D01*
X189158894Y-122454409D01*
X189226586Y-122750990D01*
X189226590Y-122751002D01*
X189327059Y-123038124D01*
X189327065Y-123038138D01*
X189459053Y-123312214D01*
X189459055Y-123312217D01*
X189620906Y-123569801D01*
X189810579Y-123807644D01*
X190025689Y-124022754D01*
X190263532Y-124212427D01*
X190521116Y-124374278D01*
X190795202Y-124506271D01*
X190795208Y-124506273D01*
X191082330Y-124606742D01*
X191082342Y-124606746D01*
X191378927Y-124674439D01*
X191681223Y-124708499D01*
X191681224Y-124708500D01*
X191681227Y-124708500D01*
X191985442Y-124708500D01*
X191985442Y-124708499D01*
X192287739Y-124674439D01*
X192584324Y-124606746D01*
X192871464Y-124506271D01*
X193145550Y-124374278D01*
X193403134Y-124212427D01*
X193640977Y-124022754D01*
X193856087Y-123807644D01*
X194045760Y-123569801D01*
X194207611Y-123312217D01*
X194339604Y-123038131D01*
X194440079Y-122750991D01*
X194507772Y-122454406D01*
X194541833Y-122152106D01*
X194541833Y-121847894D01*
X194507772Y-121545594D01*
X194440079Y-121249009D01*
X194339604Y-120961869D01*
X194207611Y-120687783D01*
X194045760Y-120430199D01*
X193856087Y-120192356D01*
X193640977Y-119977246D01*
X193403134Y-119787573D01*
X193145550Y-119625722D01*
X193145547Y-119625720D01*
X192871471Y-119493732D01*
X192871457Y-119493726D01*
X192584335Y-119393257D01*
X192584323Y-119393253D01*
X192287742Y-119325561D01*
X192287726Y-119325559D01*
X191985443Y-119291500D01*
X191985439Y-119291500D01*
X191681227Y-119291500D01*
X191681222Y-119291500D01*
X191378939Y-119325559D01*
X191378923Y-119325561D01*
X191082342Y-119393253D01*
X191082330Y-119393257D01*
X190795208Y-119493726D01*
X190795194Y-119493732D01*
X190521118Y-119625720D01*
X190263533Y-119787572D01*
X190025689Y-119977245D01*
X189810578Y-120192356D01*
X189620905Y-120430200D01*
X189459053Y-120687785D01*
X189327065Y-120961861D01*
X189327059Y-120961875D01*
X189226590Y-121248997D01*
X189226586Y-121249009D01*
X189158894Y-121545590D01*
X189158892Y-121545606D01*
X189124833Y-121847889D01*
X124000000Y-121847889D01*
X124000000Y-111913766D01*
X128711167Y-111913766D01*
X128711167Y-112086233D01*
X128744810Y-112255366D01*
X128744813Y-112255378D01*
X128810805Y-112414698D01*
X128810812Y-112414711D01*
X128906621Y-112558098D01*
X128906624Y-112558102D01*
X129028564Y-112680042D01*
X129028568Y-112680045D01*
X129171955Y-112775854D01*
X129171968Y-112775861D01*
X129331288Y-112841853D01*
X129331293Y-112841855D01*
X129500433Y-112875499D01*
X129500436Y-112875500D01*
X129500438Y-112875500D01*
X129672898Y-112875500D01*
X129672899Y-112875499D01*
X129842041Y-112841855D01*
X130001372Y-112775858D01*
X130144766Y-112680045D01*
X130266712Y-112558099D01*
X130362525Y-112414705D01*
X130428522Y-112255374D01*
X130462167Y-112086229D01*
X130462167Y-111913771D01*
X130462167Y-111913768D01*
X130462166Y-111913766D01*
X138871167Y-111913766D01*
X138871167Y-112086233D01*
X138904810Y-112255366D01*
X138904813Y-112255378D01*
X138970805Y-112414698D01*
X138970812Y-112414711D01*
X139066621Y-112558098D01*
X139066624Y-112558102D01*
X139188564Y-112680042D01*
X139188568Y-112680045D01*
X139331955Y-112775854D01*
X139331968Y-112775861D01*
X139491288Y-112841853D01*
X139491293Y-112841855D01*
X139660433Y-112875499D01*
X139660436Y-112875500D01*
X139660438Y-112875500D01*
X139832898Y-112875500D01*
X139832899Y-112875499D01*
X140002041Y-112841855D01*
X140161372Y-112775858D01*
X140304766Y-112680045D01*
X140426712Y-112558099D01*
X140522525Y-112414705D01*
X140588522Y-112255374D01*
X140622167Y-112086229D01*
X140622167Y-111913771D01*
X140622167Y-111913768D01*
X140622166Y-111913766D01*
X150877833Y-111913766D01*
X150877833Y-112086233D01*
X150911476Y-112255366D01*
X150911479Y-112255378D01*
X150977471Y-112414698D01*
X150977478Y-112414711D01*
X151073287Y-112558098D01*
X151073290Y-112558102D01*
X151195230Y-112680042D01*
X151195234Y-112680045D01*
X151338621Y-112775854D01*
X151338634Y-112775861D01*
X151497954Y-112841853D01*
X151497959Y-112841855D01*
X151667099Y-112875499D01*
X151667102Y-112875500D01*
X151667104Y-112875500D01*
X151839564Y-112875500D01*
X151839565Y-112875499D01*
X152008707Y-112841855D01*
X152168038Y-112775858D01*
X152311432Y-112680045D01*
X152433378Y-112558099D01*
X152529191Y-112414705D01*
X152595188Y-112255374D01*
X152628833Y-112086229D01*
X152628833Y-111913771D01*
X152628833Y-111913768D01*
X152628832Y-111913766D01*
X161037833Y-111913766D01*
X161037833Y-112086233D01*
X161071476Y-112255366D01*
X161071479Y-112255378D01*
X161137471Y-112414698D01*
X161137478Y-112414711D01*
X161233287Y-112558098D01*
X161233290Y-112558102D01*
X161355230Y-112680042D01*
X161355234Y-112680045D01*
X161498621Y-112775854D01*
X161498634Y-112775861D01*
X161657954Y-112841853D01*
X161657959Y-112841855D01*
X161827099Y-112875499D01*
X161827102Y-112875500D01*
X161827104Y-112875500D01*
X161999564Y-112875500D01*
X161999565Y-112875499D01*
X162168707Y-112841855D01*
X162328038Y-112775858D01*
X162471432Y-112680045D01*
X162593378Y-112558099D01*
X162689191Y-112414705D01*
X162755188Y-112255374D01*
X162788833Y-112086229D01*
X162788833Y-111913771D01*
X162788833Y-111913768D01*
X162788832Y-111913766D01*
X169877833Y-111913766D01*
X169877833Y-112086233D01*
X169911476Y-112255366D01*
X169911479Y-112255378D01*
X169977471Y-112414698D01*
X169977478Y-112414711D01*
X170073287Y-112558098D01*
X170073290Y-112558102D01*
X170195230Y-112680042D01*
X170195234Y-112680045D01*
X170338621Y-112775854D01*
X170338634Y-112775861D01*
X170497954Y-112841853D01*
X170497959Y-112841855D01*
X170667099Y-112875499D01*
X170667102Y-112875500D01*
X170667104Y-112875500D01*
X170839564Y-112875500D01*
X170839565Y-112875499D01*
X171008707Y-112841855D01*
X171168038Y-112775858D01*
X171311432Y-112680045D01*
X171433378Y-112558099D01*
X171529191Y-112414705D01*
X171595188Y-112255374D01*
X171628833Y-112086229D01*
X171628833Y-111913771D01*
X171628833Y-111913768D01*
X171628832Y-111913766D01*
X180037833Y-111913766D01*
X180037833Y-112086233D01*
X180071476Y-112255366D01*
X180071479Y-112255378D01*
X180137471Y-112414698D01*
X180137478Y-112414711D01*
X180233287Y-112558098D01*
X180233290Y-112558102D01*
X180355230Y-112680042D01*
X180355234Y-112680045D01*
X180498621Y-112775854D01*
X180498634Y-112775861D01*
X180657954Y-112841853D01*
X180657959Y-112841855D01*
X180827099Y-112875499D01*
X180827102Y-112875500D01*
X180827104Y-112875500D01*
X180999564Y-112875500D01*
X180999565Y-112875499D01*
X181168707Y-112841855D01*
X181328038Y-112775858D01*
X181471432Y-112680045D01*
X181593378Y-112558099D01*
X181689191Y-112414705D01*
X181755188Y-112255374D01*
X181788833Y-112086229D01*
X181788833Y-111913771D01*
X181788833Y-111913768D01*
X181788832Y-111913766D01*
X188877833Y-111913766D01*
X188877833Y-112086233D01*
X188911476Y-112255366D01*
X188911479Y-112255378D01*
X188977471Y-112414698D01*
X188977478Y-112414711D01*
X189073287Y-112558098D01*
X189073290Y-112558102D01*
X189195230Y-112680042D01*
X189195234Y-112680045D01*
X189338621Y-112775854D01*
X189338634Y-112775861D01*
X189497954Y-112841853D01*
X189497959Y-112841855D01*
X189667099Y-112875499D01*
X189667102Y-112875500D01*
X189667104Y-112875500D01*
X189839564Y-112875500D01*
X189839565Y-112875499D01*
X190008707Y-112841855D01*
X190168038Y-112775858D01*
X190311432Y-112680045D01*
X190433378Y-112558099D01*
X190529191Y-112414705D01*
X190595188Y-112255374D01*
X190628833Y-112086229D01*
X190628833Y-111913771D01*
X190628833Y-111913768D01*
X190628832Y-111913766D01*
X199037833Y-111913766D01*
X199037833Y-112086233D01*
X199071476Y-112255366D01*
X199071479Y-112255378D01*
X199137471Y-112414698D01*
X199137478Y-112414711D01*
X199233287Y-112558098D01*
X199233290Y-112558102D01*
X199355230Y-112680042D01*
X199355234Y-112680045D01*
X199498621Y-112775854D01*
X199498634Y-112775861D01*
X199657954Y-112841853D01*
X199657959Y-112841855D01*
X199827099Y-112875499D01*
X199827102Y-112875500D01*
X199827104Y-112875500D01*
X199999564Y-112875500D01*
X199999565Y-112875499D01*
X200168707Y-112841855D01*
X200328038Y-112775858D01*
X200471432Y-112680045D01*
X200593378Y-112558099D01*
X200689191Y-112414705D01*
X200755188Y-112255374D01*
X200788833Y-112086229D01*
X200788833Y-111913771D01*
X200788833Y-111913768D01*
X200788832Y-111913766D01*
X207877833Y-111913766D01*
X207877833Y-112086233D01*
X207911476Y-112255366D01*
X207911479Y-112255378D01*
X207977471Y-112414698D01*
X207977478Y-112414711D01*
X208073287Y-112558098D01*
X208073290Y-112558102D01*
X208195230Y-112680042D01*
X208195234Y-112680045D01*
X208338621Y-112775854D01*
X208338634Y-112775861D01*
X208497954Y-112841853D01*
X208497959Y-112841855D01*
X208667099Y-112875499D01*
X208667102Y-112875500D01*
X208667104Y-112875500D01*
X208839564Y-112875500D01*
X208839565Y-112875499D01*
X209008707Y-112841855D01*
X209168038Y-112775858D01*
X209311432Y-112680045D01*
X209433378Y-112558099D01*
X209529191Y-112414705D01*
X209595188Y-112255374D01*
X209628833Y-112086229D01*
X209628833Y-111913771D01*
X209628833Y-111913768D01*
X209628832Y-111913766D01*
X218037833Y-111913766D01*
X218037833Y-112086233D01*
X218071476Y-112255366D01*
X218071479Y-112255378D01*
X218137471Y-112414698D01*
X218137478Y-112414711D01*
X218233287Y-112558098D01*
X218233290Y-112558102D01*
X218355230Y-112680042D01*
X218355234Y-112680045D01*
X218498621Y-112775854D01*
X218498634Y-112775861D01*
X218657954Y-112841853D01*
X218657959Y-112841855D01*
X218827099Y-112875499D01*
X218827102Y-112875500D01*
X218827104Y-112875500D01*
X218999564Y-112875500D01*
X218999565Y-112875499D01*
X219168707Y-112841855D01*
X219328038Y-112775858D01*
X219471432Y-112680045D01*
X219593378Y-112558099D01*
X219689191Y-112414705D01*
X219755188Y-112255374D01*
X219788833Y-112086229D01*
X219788833Y-111913771D01*
X219788833Y-111913768D01*
X219788832Y-111913766D01*
X226877833Y-111913766D01*
X226877833Y-112086233D01*
X226911476Y-112255366D01*
X226911479Y-112255378D01*
X226977471Y-112414698D01*
X226977478Y-112414711D01*
X227073287Y-112558098D01*
X227073290Y-112558102D01*
X227195230Y-112680042D01*
X227195234Y-112680045D01*
X227338621Y-112775854D01*
X227338634Y-112775861D01*
X227497954Y-112841853D01*
X227497959Y-112841855D01*
X227667099Y-112875499D01*
X227667102Y-112875500D01*
X227667104Y-112875500D01*
X227839564Y-112875500D01*
X227839565Y-112875499D01*
X228008707Y-112841855D01*
X228168038Y-112775858D01*
X228311432Y-112680045D01*
X228433378Y-112558099D01*
X228529191Y-112414705D01*
X228595188Y-112255374D01*
X228628833Y-112086229D01*
X228628833Y-111913771D01*
X228628833Y-111913768D01*
X228628832Y-111913766D01*
X228595188Y-111744626D01*
X228594303Y-111742490D01*
X228529194Y-111585301D01*
X228529187Y-111585288D01*
X228433378Y-111441901D01*
X228433375Y-111441897D01*
X228311435Y-111319957D01*
X228311431Y-111319954D01*
X228168044Y-111224145D01*
X228168031Y-111224138D01*
X228008711Y-111158146D01*
X228008699Y-111158143D01*
X227839565Y-111124500D01*
X227839562Y-111124500D01*
X227667104Y-111124500D01*
X227667101Y-111124500D01*
X227497966Y-111158143D01*
X227497954Y-111158146D01*
X227338634Y-111224138D01*
X227338621Y-111224145D01*
X227195234Y-111319954D01*
X227195230Y-111319957D01*
X227073290Y-111441897D01*
X227073287Y-111441901D01*
X226977478Y-111585288D01*
X226977471Y-111585301D01*
X226911479Y-111744621D01*
X226911476Y-111744633D01*
X226877833Y-111913766D01*
X219788832Y-111913766D01*
X219755188Y-111744626D01*
X219754303Y-111742490D01*
X219689194Y-111585301D01*
X219689187Y-111585288D01*
X219593378Y-111441901D01*
X219593375Y-111441897D01*
X219471435Y-111319957D01*
X219471431Y-111319954D01*
X219328044Y-111224145D01*
X219328031Y-111224138D01*
X219168711Y-111158146D01*
X219168699Y-111158143D01*
X218999565Y-111124500D01*
X218999562Y-111124500D01*
X218827104Y-111124500D01*
X218827101Y-111124500D01*
X218657966Y-111158143D01*
X218657954Y-111158146D01*
X218498634Y-111224138D01*
X218498621Y-111224145D01*
X218355234Y-111319954D01*
X218355230Y-111319957D01*
X218233290Y-111441897D01*
X218233287Y-111441901D01*
X218137478Y-111585288D01*
X218137471Y-111585301D01*
X218071479Y-111744621D01*
X218071476Y-111744633D01*
X218037833Y-111913766D01*
X209628832Y-111913766D01*
X209595188Y-111744626D01*
X209594303Y-111742490D01*
X209529194Y-111585301D01*
X209529187Y-111585288D01*
X209433378Y-111441901D01*
X209433375Y-111441897D01*
X209311435Y-111319957D01*
X209311431Y-111319954D01*
X209168044Y-111224145D01*
X209168031Y-111224138D01*
X209008711Y-111158146D01*
X209008699Y-111158143D01*
X208839565Y-111124500D01*
X208839562Y-111124500D01*
X208667104Y-111124500D01*
X208667101Y-111124500D01*
X208497966Y-111158143D01*
X208497954Y-111158146D01*
X208338634Y-111224138D01*
X208338621Y-111224145D01*
X208195234Y-111319954D01*
X208195230Y-111319957D01*
X208073290Y-111441897D01*
X208073287Y-111441901D01*
X207977478Y-111585288D01*
X207977471Y-111585301D01*
X207911479Y-111744621D01*
X207911476Y-111744633D01*
X207877833Y-111913766D01*
X200788832Y-111913766D01*
X200755188Y-111744626D01*
X200754303Y-111742490D01*
X200689194Y-111585301D01*
X200689187Y-111585288D01*
X200593378Y-111441901D01*
X200593375Y-111441897D01*
X200471435Y-111319957D01*
X200471431Y-111319954D01*
X200328044Y-111224145D01*
X200328031Y-111224138D01*
X200168711Y-111158146D01*
X200168699Y-111158143D01*
X199999565Y-111124500D01*
X199999562Y-111124500D01*
X199827104Y-111124500D01*
X199827101Y-111124500D01*
X199657966Y-111158143D01*
X199657954Y-111158146D01*
X199498634Y-111224138D01*
X199498621Y-111224145D01*
X199355234Y-111319954D01*
X199355230Y-111319957D01*
X199233290Y-111441897D01*
X199233287Y-111441901D01*
X199137478Y-111585288D01*
X199137471Y-111585301D01*
X199071479Y-111744621D01*
X199071476Y-111744633D01*
X199037833Y-111913766D01*
X190628832Y-111913766D01*
X190595188Y-111744626D01*
X190594303Y-111742490D01*
X190529194Y-111585301D01*
X190529187Y-111585288D01*
X190433378Y-111441901D01*
X190433375Y-111441897D01*
X190311435Y-111319957D01*
X190311431Y-111319954D01*
X190168044Y-111224145D01*
X190168031Y-111224138D01*
X190008711Y-111158146D01*
X190008699Y-111158143D01*
X189839565Y-111124500D01*
X189839562Y-111124500D01*
X189667104Y-111124500D01*
X189667101Y-111124500D01*
X189497966Y-111158143D01*
X189497954Y-111158146D01*
X189338634Y-111224138D01*
X189338621Y-111224145D01*
X189195234Y-111319954D01*
X189195230Y-111319957D01*
X189073290Y-111441897D01*
X189073287Y-111441901D01*
X188977478Y-111585288D01*
X188977471Y-111585301D01*
X188911479Y-111744621D01*
X188911476Y-111744633D01*
X188877833Y-111913766D01*
X181788832Y-111913766D01*
X181755188Y-111744626D01*
X181754303Y-111742490D01*
X181689194Y-111585301D01*
X181689187Y-111585288D01*
X181593378Y-111441901D01*
X181593375Y-111441897D01*
X181471435Y-111319957D01*
X181471431Y-111319954D01*
X181328044Y-111224145D01*
X181328031Y-111224138D01*
X181168711Y-111158146D01*
X181168699Y-111158143D01*
X180999565Y-111124500D01*
X180999562Y-111124500D01*
X180827104Y-111124500D01*
X180827101Y-111124500D01*
X180657966Y-111158143D01*
X180657954Y-111158146D01*
X180498634Y-111224138D01*
X180498621Y-111224145D01*
X180355234Y-111319954D01*
X180355230Y-111319957D01*
X180233290Y-111441897D01*
X180233287Y-111441901D01*
X180137478Y-111585288D01*
X180137471Y-111585301D01*
X180071479Y-111744621D01*
X180071476Y-111744633D01*
X180037833Y-111913766D01*
X171628832Y-111913766D01*
X171595188Y-111744626D01*
X171594303Y-111742490D01*
X171529194Y-111585301D01*
X171529187Y-111585288D01*
X171433378Y-111441901D01*
X171433375Y-111441897D01*
X171311435Y-111319957D01*
X171311431Y-111319954D01*
X171168044Y-111224145D01*
X171168031Y-111224138D01*
X171008711Y-111158146D01*
X171008699Y-111158143D01*
X170839565Y-111124500D01*
X170839562Y-111124500D01*
X170667104Y-111124500D01*
X170667101Y-111124500D01*
X170497966Y-111158143D01*
X170497954Y-111158146D01*
X170338634Y-111224138D01*
X170338621Y-111224145D01*
X170195234Y-111319954D01*
X170195230Y-111319957D01*
X170073290Y-111441897D01*
X170073287Y-111441901D01*
X169977478Y-111585288D01*
X169977471Y-111585301D01*
X169911479Y-111744621D01*
X169911476Y-111744633D01*
X169877833Y-111913766D01*
X162788832Y-111913766D01*
X162755188Y-111744626D01*
X162754303Y-111742490D01*
X162689194Y-111585301D01*
X162689187Y-111585288D01*
X162593378Y-111441901D01*
X162593375Y-111441897D01*
X162471435Y-111319957D01*
X162471431Y-111319954D01*
X162328044Y-111224145D01*
X162328031Y-111224138D01*
X162168711Y-111158146D01*
X162168699Y-111158143D01*
X161999565Y-111124500D01*
X161999562Y-111124500D01*
X161827104Y-111124500D01*
X161827101Y-111124500D01*
X161657966Y-111158143D01*
X161657954Y-111158146D01*
X161498634Y-111224138D01*
X161498621Y-111224145D01*
X161355234Y-111319954D01*
X161355230Y-111319957D01*
X161233290Y-111441897D01*
X161233287Y-111441901D01*
X161137478Y-111585288D01*
X161137471Y-111585301D01*
X161071479Y-111744621D01*
X161071476Y-111744633D01*
X161037833Y-111913766D01*
X152628832Y-111913766D01*
X152595188Y-111744626D01*
X152594303Y-111742490D01*
X152529194Y-111585301D01*
X152529187Y-111585288D01*
X152433378Y-111441901D01*
X152433375Y-111441897D01*
X152311435Y-111319957D01*
X152311431Y-111319954D01*
X152168044Y-111224145D01*
X152168031Y-111224138D01*
X152008711Y-111158146D01*
X152008699Y-111158143D01*
X151839565Y-111124500D01*
X151839562Y-111124500D01*
X151667104Y-111124500D01*
X151667101Y-111124500D01*
X151497966Y-111158143D01*
X151497954Y-111158146D01*
X151338634Y-111224138D01*
X151338621Y-111224145D01*
X151195234Y-111319954D01*
X151195230Y-111319957D01*
X151073290Y-111441897D01*
X151073287Y-111441901D01*
X150977478Y-111585288D01*
X150977471Y-111585301D01*
X150911479Y-111744621D01*
X150911476Y-111744633D01*
X150877833Y-111913766D01*
X140622166Y-111913766D01*
X140588522Y-111744626D01*
X140587637Y-111742490D01*
X140522528Y-111585301D01*
X140522521Y-111585288D01*
X140426712Y-111441901D01*
X140426709Y-111441897D01*
X140304769Y-111319957D01*
X140304765Y-111319954D01*
X140161378Y-111224145D01*
X140161365Y-111224138D01*
X140002045Y-111158146D01*
X140002033Y-111158143D01*
X139832899Y-111124500D01*
X139832896Y-111124500D01*
X139660438Y-111124500D01*
X139660435Y-111124500D01*
X139491300Y-111158143D01*
X139491288Y-111158146D01*
X139331968Y-111224138D01*
X139331955Y-111224145D01*
X139188568Y-111319954D01*
X139188564Y-111319957D01*
X139066624Y-111441897D01*
X139066621Y-111441901D01*
X138970812Y-111585288D01*
X138970805Y-111585301D01*
X138904813Y-111744621D01*
X138904810Y-111744633D01*
X138871167Y-111913766D01*
X130462166Y-111913766D01*
X130428522Y-111744626D01*
X130427637Y-111742490D01*
X130362528Y-111585301D01*
X130362521Y-111585288D01*
X130266712Y-111441901D01*
X130266709Y-111441897D01*
X130144769Y-111319957D01*
X130144765Y-111319954D01*
X130001378Y-111224145D01*
X130001365Y-111224138D01*
X129842045Y-111158146D01*
X129842033Y-111158143D01*
X129672899Y-111124500D01*
X129672896Y-111124500D01*
X129500438Y-111124500D01*
X129500435Y-111124500D01*
X129331300Y-111158143D01*
X129331288Y-111158146D01*
X129171968Y-111224138D01*
X129171955Y-111224145D01*
X129028568Y-111319954D01*
X129028564Y-111319957D01*
X128906624Y-111441897D01*
X128906621Y-111441901D01*
X128810812Y-111585288D01*
X128810805Y-111585301D01*
X128744813Y-111744621D01*
X128744810Y-111744633D01*
X128711167Y-111913766D01*
X124000000Y-111913766D01*
X124000000Y-107124000D01*
X124019685Y-107056961D01*
X124072489Y-107011206D01*
X124124000Y-107000000D01*
X230876000Y-107000000D01*
X230943039Y-107019685D01*
G37*
%TD.AperFunction*%
%TD*%
M02*
