M48
; DRILL file KiCad 10.0.4 date 2026-07-05T16:09:21
; FORMAT={-:-/ absolute / metric / decimal}
; #@! TF.CreationDate,2026-07-05T16:09:21+02:00
; #@! TF.GenerationSoftware,Kicad,Pcbnew,10.0.4
; #@! TF.FileFunction,Plated,1,2,PTH
FMAT,2
METRIC
; #@! TA.AperFunction,Plated,PTH,ViaDrill
T1C0.400
; #@! TA.AperFunction,Plated,PTH,ComponentDrill
T2C0.400
; #@! TA.AperFunction,Plated,PTH,ComponentDrill
T3C0.762
; #@! TA.AperFunction,Plated,PTH,ComponentDrill
T4C2.200
%
G90
G05
T1
X126.0Y-91.5
X126.5Y-96.0
X128.0Y-167.5
X129.5Y-110.5
X132.5Y-129.5
X136.0Y-148.5
X145.5Y-91.5
X145.5Y-96.0
X150.0Y-167.5
X152.0Y-110.5
X158.0Y-129.5
X164.5Y-91.5
X164.5Y-96.0
X164.5Y-148.5
X171.0Y-110.5
X172.0Y-167.5
X177.0Y-129.5
X183.5Y-91.5
X183.5Y-96.0
X183.5Y-148.5
X190.0Y-110.5
X196.0Y-129.5
X202.5Y-91.5
X202.5Y-96.0
X202.5Y-148.5
X207.0Y-167.5
X209.0Y-110.5
X215.0Y-129.5
X221.5Y-91.5
X221.5Y-96.0
X221.5Y-148.5
X228.0Y-110.5
X234.0Y-129.5
X240.5Y-91.5
X240.5Y-96.0
X240.5Y-148.5
X240.5Y-167.5
X253.0Y-133.0
X262.0Y-126.0
X262.0Y-127.0
X262.0Y-128.0
X262.0Y-129.0
X262.0Y-130.0
X262.0Y-131.0
X262.0Y-132.0
T2
X143.85Y-104.0
X144.333Y-102.833
X144.333Y-105.167
X145.5Y-102.35
X145.5Y-105.65
X146.667Y-102.833
X146.667Y-105.167
X147.15Y-104.0
X153.35Y-150.0
X153.833Y-148.833
X153.833Y-151.167
X155.0Y-148.35
X155.0Y-151.65
X156.167Y-148.833
X156.167Y-151.167
X156.65Y-150.0
X190.183Y-122.0
X190.667Y-120.833
X190.667Y-123.167
X191.833Y-120.35
X191.833Y-123.65
X193.0Y-120.833
X193.0Y-123.167
X193.483Y-122.0
X233.85Y-161.0
X234.333Y-159.833
X234.333Y-162.167
X234.35Y-102.0
X234.833Y-100.833
X234.833Y-103.167
X235.5Y-159.35
X235.5Y-162.65
X236.0Y-100.35
X236.0Y-103.65
X236.667Y-159.833
X236.667Y-162.167
X237.15Y-161.0
X237.167Y-100.833
X237.167Y-103.167
X237.65Y-102.0
T3
X242.133Y-104.42
X242.133Y-106.96
X242.133Y-109.5
X242.133Y-112.04
X242.133Y-114.58
X242.133Y-117.12
X242.133Y-119.66
X244.673Y-104.42
X244.673Y-119.66
X247.213Y-104.42
X247.213Y-119.66
X249.753Y-104.42
X249.753Y-119.66
X252.293Y-104.42
X252.293Y-119.66
X254.833Y-104.42
X254.833Y-119.66
X257.373Y-104.42
X257.373Y-119.66
X259.913Y-104.42
X259.913Y-119.66
X262.453Y-104.42
X262.453Y-119.66
T4
X145.5Y-104.0
X155.0Y-150.0
X191.833Y-122.0
X235.5Y-161.0
X236.0Y-102.0
M30
